<mxfile host="app.diagrams.net" modified="2022-06-22T11:49:09.931Z" agent="5.0 (Windows NT 10.0; Win64; x64) AppleWebKit/537.36 (KHTML, like Gecko) Chrome/101.0.0.0 Safari/537.36" etag="mA6torZal1ADhOH7VUke" version="20.0.1" type="github">
  <diagram id="Vqq5bdYdkwNwuRUhmMFb" name="Page-1">
    <mxGraphModel dx="782" dy="1511" grid="1" gridSize="10" guides="1" tooltips="1" connect="1" arrows="1" fold="1" page="1" pageScale="1" pageWidth="850" pageHeight="1100" math="0" shadow="0">
      <root>
        <mxCell id="0" />
        <mxCell id="1" parent="0" />
        <mxCell id="_AYRFwqcf-ICDJ94vdFZ-21" value="" style="edgeStyle=orthogonalEdgeStyle;rounded=0;orthogonalLoop=1;jettySize=auto;html=1;fontSize=15;entryX=0.158;entryY=-0.014;entryDx=0;entryDy=0;entryPerimeter=0;" edge="1" parent="1" source="_AYRFwqcf-ICDJ94vdFZ-10" target="_AYRFwqcf-ICDJ94vdFZ-1">
          <mxGeometry relative="1" as="geometry">
            <mxPoint x="170" y="-350" as="targetPoint" />
          </mxGeometry>
        </mxCell>
        <mxCell id="_AYRFwqcf-ICDJ94vdFZ-10" value="" style="whiteSpace=wrap;html=1;aspect=fixed;labelBackgroundColor=none;strokeColor=#000000;" vertex="1" parent="1">
          <mxGeometry x="410" y="-650" width="130" height="130" as="geometry" />
        </mxCell>
        <mxCell id="_AYRFwqcf-ICDJ94vdFZ-1" value="" style="shape=image;verticalLabelPosition=bottom;verticalAlign=top;imageAspect=0;aspect=fixed;image=data:image/png,iVBORw0KGgoAAAANSUhEUgAAAggAAAFTCAYAAABcXfTKAAAAAXNSR0IArs4c6QAAIABJREFUeF7sfQd4XMW59nvK9qLeLdmW5d4LNgabEgiYGm6AQGiBcAFDSICEkgK5JPyQwA25CeWSQKg3tIQSSugYY2xMtzGWq2xZva22l7On/s83qzVGSNZKVjVnQI+s3Tkzc74p3ztf5QBwWVlZE61WK48xXIIdHbkCYB3Dr5DR0A2gPQnsBGBk9ED/KllcLlee0+l09+8xs/YopwCXCIVsqixnj/JxDtrwdKBTBuoBxAat0S8b4jweT67dbs8ZgrbNJgeZApIkCWokkmMA4iA3fTA31ywBtQQOKs8666wvli1bNqYBwiOXXGJbLMsH84QhDIYM3nrTMK4BUD3YL1tWVjb3yCOPvGPFihVHDHbbZnsjRwFFlrl3X3hByH/5ZeGgR9BdZN5kGFvXAzcEgJeHgPLjLrroov+aO3fuebm5uUPQvNnkYFLgg7VrBf6JJ0RXLAZuMBs+iNt6BthUYxhLuIKCgqo777zzi/PPP98+lt/3MpcL58TjY/kV+hx7B8dhDfDW3YbxUwBf9PlAPytMmTJl7sqVK++8+uqrj+E4cyv1k3yjtrqUSOBvt96KyltvhWvUjnJwB/YKx+140jCuawBeHNyWWWvlf/nLX3574okn/qC8vNzcKENA4MFs8onHHoP9mmuQ6/ebACFDwv6S579o1vXFJkDoRjBOFAHDgKFpGZJy+KqZAGH4aH0w9ZQJQGDrnuPYuidwaBgGoOsZk4ETBHAWC9s7Okny6PmeCseB6nbfY9S/Qf31o08ab2/99BcgFB13rcshuy26S+L4mN2QPZCbX7o50YsqzwQIGa+Mka/YK0DgefAWC3RF2f+6S1+WelvT+7wi7QFDVXtf/8NJjq5xc3xKOdAfnmYChF4mynPIIWzBxLdsgSHL4O321GGmKEzpz1ut7ABkh1xXoe/YASmKqe9oQuh7Wih0INLhp6r9mqCehmcChOHcXQdPX30BBMHrha2igq1bpaODrWUtGoUWS6nvae3SGqbviYnT37QP6MBhhyHHwV5ZCcekSVBDIcjNzZCbmsBRHfqeDJ1EEbzLBcHhAGe3s/bVzs5Um6oK2/jxUAMB6AniyUiBDF0Hb7MxsEJ7jPVJh7SmQczOhuDxQKqv7/FwzxQgVJz08xw9aRlns4lH8TAqVMOwihwnG0Ctpmrrklahqfmlmzu7AQUTIIyh7dETQCBGTuuV93ig+f2Q9uxh6xhd6zF9UaSz35Kfz/aE0tmZAtEEKOiMp71AF8ku4EBr1X3IIYh9/jn0eJwBZl2S9lKK7SFBgJ5MpngEgXJ6vgs0095i4DwNktOMnfoj3mOzfclf6BmeT7XVBc7p39RWem/S/qB9wj7XdSjt7V/yJeJP9L7d3iE9WBMg9LDAeacTVXfdxUDB7muvZQeXc8YMdhBFPvoIlsJCCG43O9xosgSnk4GJxM6dsJWVsQORDliaIEtRETskBZcLYn4+pJoayK2tBwQSBgIQSk+52WmR5SzF4JiBDq9C5x1avP7fvw90J4GpYhhDp14/htoXQMg64gjknXQSki0tDBjToaaFw4wZ056Qdu+GvaKCMXha+wQA7OPHs+9pX9BBVXDWWXDPnYvwhx8i+4gjUH/77ewA1hIJ1hYBEPu4cQwISHV1iG/dytoSs7KQbGyEe948JHbtgm3cOGiRCPtOqq2Fc/p0WPLyEP7oI2QtW4ZkUxM7fKm+a+ZM1P2//7cXVOxLkkwAwrjjb84VOO0KGNy1TrtVsljFqJyUDbvdxiVlxS1JsqIZeFxXtLsbV93atE/7JkDox/ob6ao9AQTX7NkoueQStD3+OFtHvpdegqOykp35WjAIsaAgxcyjUXiXL2fnfvTjj9klkdYrnf3E8OPbtrH1ai0tZXui/IYbUHvddRBychhAYOd+Wxt4h4P1Q8xfbmlhfxM/UXw+xi+shYUp5i+KUINB9ixJN4inJHbsgJiTw/YKq+90svEQbwmvX894FI2V9hUxfHtVFeMz1pISZB91FDpfeglQFCSbmyHm5UFpbYW1uHgvL6L2qc99iwkQeli1WcuXg368S5di9y9+gaylS9ltJ/fYY1F3660ov+46dL78MnKOOYYhTkKWWjyO8Pvvw3vooQi++y6bSDrQnNOmIfLpp3BWVcFWWQnfM88g8MYbX5uI/mye/gCECUfdbOds2lRAOITjscCA4eI5DrquK+D5PZqurNYNy5bG12/2p8dgAoT+zMbYqdsXQCDGXrJyJZMY+F99Fa4ZM/aubcfkyQitXcsYMjF6uvGoXQDZPX8+dlx2GfucAIJz6lQE3nwTheecg+CqVfAsXQprfj77t2vuXEQ//xz28nIGwAlkEIimW1n0s89QcMYZCK5ejZJLL0XL3/6G/NNOY7+zDj8cBWeeiZ1XXIGqu+9G8333MWkFARkaW8Pvfpe6IXUrmQCE8cfedI5otzxgaNoeVdcf0HVjB8/xCmdwFo7XZ4micDp4YbwsJ/+n/vX/d7sJEMbOmt93pD0BhNIrr2QSrPYnn2TSAGLeFTfdxM5y0eNhDJiYODF3dqM3DNhKSqD4/WzNElOnM77pf/+XSQzG/exnjHkXX3ABdl1zDSrvvJMxZpJCN//lL3BUVaHil79E29//DmtREWPeTB2XTKaYv9fLLqL0N/VBfREYJgkAgQDaDwS+GYCOxWArKoKYm4vGP/8Z466+GonduxmQJymc59BDYS8rQ8e//oXc445D5OOPGYig7+m95I4OBrZjmzbBNWsWGx8B/X3VdSZA6L7WOQ7jb7yRTb6tvJyhNvvEiYhu2ICso45C++OPY8Itt8D3/PPwzJ+PRG0tW2AkOaB/u+fMQdM997BDktQUhCBp4VgKChigCK5Zg7ZHHmHocaClPwBh/HG/PoHjuRs5DhNEgfdxPKIcOEPTDQvAFamqauU4/o9xLXpf2xt/YLJkEyAMdGZG93N9AQQ6aLKPPhpF557LbkQk6SImTIcN3VpIjG8tKEB8+3a23oWsLHZron/X33Ybq1/4/e8j+8gj4X/tNSh0SC1cCOfMmUy60PnCCwwMUNtMIpCby6QAJJGIfPIJYhs3ouyqq9hBSECj4Y47QAd46N13GfCm/USHLn3Wcv/9yDn2WITee4/tuYb//u8epXKZAITyFTdeU1hYeJuuKv82FP1hfzQcFA3IhgG7y+MucLoc3zF4/oz25rYn6l7/7aUAlzasMCUIo3vJf2V0PQGE/DPOYBKttieeYBc6YsTjrr2WrSsCCCRFSwNhJsqX5dReqKlhjJlu4vQ3Mfz45s2MNxAQLjzvPLTcdx8m3n474xXE8FseeACu6dNRcsUVaLjtNrYHPIsXs+dIukzggfgCU0Unk0ztQXVoP5BEgG73Reefz3gIUxkkEkjW1bF90fHMM4zZU3vRTz9lEjsC+NRW+9NPI/f44xH57DN28SUgTmoG2r/0eesjjyD3hBPQ/sQTqb72sbEwAUK3BU4indIrrmCAgHRM7kWLoPr9DGHRYbfruusYo49VVzO0R6iTbk4kRSDRKE0yiUXTelk6PGNbtjAU6pgwgakeQuvWsd8DLf0BCBNW/NerokU8QlW1RzVV/RfHc02caOi6xrl5wziCF8Tr7A57Mh4I/0fdqts+MwHCQGdl9D/XF0AgMJAW5TO7A7I5IN0/6foJ6G7ejKKzz2afJevrmSSA2QB4vWh98EF2iJGagj6jQ5H2RM6KFWyf0CEa/uADdnNhKoMZM9gBSwcctU0HGUnjSEJBNxo6pNO3LNpXBEzoRtRKwOD44+F/5RWQ5CK6aRN7hoD7vnre9GxkChDmzJ99W7bbbpdj0bgIo04EoophZKkQii1OpzeaVKRNn3zxeN1rv7nEBAijf633NMKeAAKBgsJzz2VrmW700Y0bkXfqqUz1ReufbvOaJDExP+0DUinTWiZ1MoEFEtHT2U6ggABy9rHHsnVP6jUCrYXnn88AAK1tYsykTqD+4tXVbM0T/6A2iGEzw0YyDu6yf6B2CRgTQCcJROCdd+BZtIhJ3Wit075TfT44pk5lgMY5axYD7PYJExiYoL1GezG0ejUDDlJDA9uL1J61rIxJEugiSxIJajf4zjup9zYBQu8LnCYtfTMigECLht2sjjmGIUq6uZABFn3OdEpOJzsY6Tk6VGmSSSfE9EdkkOVwMP0VLQQ2OZEIuzUdSOkPQJh0yi3rC4vz5wi69mgyLn/cHggGDR2qx23zeL3uSRDEiw1BsDXV1l3W8ObvmCuYKUE4kNkZvc/2BRDYGs3KSq3lSCRlDEU3GTLQJes8XWciTjo0SbTPxLA5OSlDRlrjHMfWfho0M0MphyN125GkvYZceizG2qDvqB/S99Jhx2x67HbWf8HppzNVXaKmJmW8WFLCxkKHMtVh46PfsRhrn0B82hBy3xnIFCDMWzT3tgWzq+zFXhsKnBbYeB1xlYMvoaI5mMC2mkbpk/c/NQHC6F3efY6sNy8GWudMzdXRwdYYUytYrVDDYbZGGcMko8GutUffsTUfj6ekYLKcMuQlFQQx/MJC9psZ+ooi4x9kh8ZK1x5Ji/gJeKTt2dKAIe09REDBe/jhbEyJ7dsZAGHGkmSzQDZuNDbiPbRPqX/av2RbQFIIi4XtTZIysD1MRsEkAaF9SMbFZDcXi6X4E70z7cVY7Gsg25Qg9LmsyKIvNekEGJgF6wiX/gKEw4485FCroYNTJMkCvVMUBDkma3mwWL2wObC7trl119ZtJkAY4Xkd6u77BAgZDEAgiYHDwQ6onhhyBk30XUUQGNMnI7H+uGT11HB/AUKJ14YijxVZDgsCcQWtEdkECH3P2JioMRbjIBB4ICNg5tXTH9ffQZoREyAMEiGHs5n+AoRvHb/s0MrSPBR7rSh222AROXbwtYZlNPmj2LBhuwkQhnMCR6ivwQAIIzT0AXdrAoQBk+6ge3AsAoSRngQTIIz0DAygfxMgDIBo5iMwAULPi4CMFNMqBlOCcPBuFBMg9H9uDzqAcM0xx2DaPkEp+k+S0f9EMJk0Nvr9rz9VW0uhlrfub8Rkg2BKEEb/nA7HCOVkEs8++ig6H30UluHocBT0sb69vfr15ubrW+PxV3objgkQRsFEDcMQ3nr9dez4058gkJuuWTKiwH3btn0c8/uXHzShlj96//1UVKqDuLR3dOhr33//xdvvvPNqAHUmQDiIJ3sQX03XdTQ2NKCVog5+Q8obb731ycOPPPLz3fX1b5sA4Rsy6b28pq+jA/U1NVC7onp+s6mR2dv/4qab3mjz+U45aABCZq89tms1NTXpr7zyyvOXXnopAYRGEyCM7fk0Rz90FHj66ac/vOWWW35RXV39jgkQho7OZssHJwXOPvvsl2pqak43AcIYml8TIIyhyTKHOqIUMAHCiJLf7HyMU8AECGNwAk2AMAYnzRzyiFDABAgjQnaz04OEAiZAGIMTaQKEMThp5pBHhAImQBgRspudHiQUMAHCGJxIEyCMwUkzhzwiFDABwoiQfUQ7pcBCZJDo62gFp8kwVAnxaBiunFJMmjoDFqv1a+PTNA2tra2QEnEkEzHomgIegMvjRVFZBex2x4i+00h1bgKEkaL8AfRrAoQDIJ756DeKAiZA+EZNN3tZSZLQUL8FerAdLgvPGD2FCdfAwx9TINrdCAQCkKUENEUCz/FwOWwozM+GJCWRlGUoqgpFUVl4YsHuxbiqWSirmAAKg/xNKiZAGIOzbQKEMThp5pBHhAImQBgRso9op4lEAh3hPVCVELhAFHZNh8hzoBScmqZDN4BAKMJ+dApBbwBWiwheFOB1OSArGhKSBA4c6H9KxWDwFoiefEyYMgf5lGvhG1JMgDAGJ9oECGNw0swhjwgFTIAwImQf0U4JIPiidWhurUdeXjYQk2CNJmDnecqVxAqpIRKSDH8ognA0DkHgoaoaBEGAx+WA1SIglkiyugJ7joOmG0jqArzFE1A5ZSZcbjd8vg50tLagfPxEuD2eEX3voejcBAhDQdUhbtMECENMYLP5g4YCJkA4aKYy4xdJAYQ9eOvNVQgFolh21CHIz/VC6wjCZRgQ9tESEFCIxBIIhqNQNQ2qqsNmFWGzWWG3WqBoOqKxOGRZhQGDAQhV0aBZnLA43PCKKrJdFnSEJbiKJqFy8nRYbbaMxzraK5oAYbTPUA/jMwHCGJw0c8gjQgETIIwI2Ue001AohEC8AaveXo1tm2uRl5+HxUvnYMqsCsjhONS2ALxWkdkmpAsZKXaGIojFJdC/ebI9EAQ4bFbYrBZISRnRuASKRmoRReRkueFxOcHzX6KNaDyB5qCMibOWoLi0jLUx1osJEMbgDJoAYQxOmjnkEaGACRBGhOwj2qnf70cCHXjtlTdQvXEX8vPzUFxciOycLEycWorC4mxE2v3ggjFk26xM7UBsnmwNZFlBIBKBlFSgqRo0XYfdZoHb6WBqCfo72+OG1dp7NpOWdj8SohczFhwGl9szpoGCCRBGdCkPrHMTIAyMbuZT3zwKmABhbM45MeOBegwQQEhyPrz4r1dQs60eubk5yC/IhyhaEY/FIFqBOQunonRcAWKdYVhiCXh4HrqqIRqNwcYLCIUiCAWDsHM6NFmB3eFAblkJHFle7DVk6IO0O/e0oGT6IZg4efrYnAQAJkAYg1NnAoQxOGnmkEeEAiZAGBGyD7jTeDzOXBCj0SgT8TudTuTm5sJut2fcJgEEifPhpef/jV07GpCbm4ecnGzwvAXJZBwtza2IxqPwZrtx6LJ5mDVnMuI7GqE3+yAytQCJEiQYiTBEhwP2wkJYc3LACUJGYyAVhaqo8LV2IrdiKirmHZrRc6OxkgkQRuOs9DEmEyCMwUkzhzwiFDABwoiQfUCddnR04Nlnn8VfH/47ttTsATkmzppWhasvvwQnnHAC8vLyMmq3vb0dMu/Hyy++il3bG1BE6oWsbPJVRCIRQ1NTC+LxKHydfkQjEfzgktOxaFwZpN3NrH2SXPCcBouNhz2/ELzt64GVehoIc6HUNIT8ISQCYbgsVuROnYOCmQszGvdorGQChNE4KyZAGIOzYg55NFLABAijcVa+PiaSGNx44424/8kXkKg4DBg3D1ATQMtWuBrX42eX/QA33HADkyj0VZqamqCKAbz0wmuo3dmE4pKilASBExCLxdDY0IRIJIxgKIRIOIxzLjwNh1WOh1TbwmIhCDYrHNkuiAQMMgiMpOsGVEVBLBJDPBiBzSCAkTJeNAFCX7Nlfj/oFDAlCINOUrPBg5QCJkAYGxP7yiuv4OKVV6J15rnA5KMAQUwNXFeB6ldRvvsFPP7oQ1i+fHmfL9TS2gyFD+DZf7yI5oYOFBYWwOPxwmKxIhaLorWlFcFgkAGEgD+AC/7zu1g6oQJyYwccxfkQbCJ4w2BMvi87CJIYxKMJRAIh8LLGVBT7xlo0AUKf02VWGGwKmABhsClqtnewUsAECGNjZq+//nrc9+I6RI+6AXBkfXXQ8QCy3v4trv/hGfjFL37RJ9NuaW2Bygfw/LMvo7XZh/y8PDgcTgi8BfF4DKTKIDuFSDQCf2cAF15yBuYVF4LrDMM1YwIsdjv0UAy6RGGYWTzFr/VJoZt1RYUUjSMWiIA3sFdqsO/gTYAwNtbfQTVKEyAcVNNpvswQUsAECENI3EFs+pJLLsHjH9QhsewngL1bREIpDM+aO3H5yUvw+9//vk+A0NTUCFUM4oXnXkFLow9FxQVw2J3gOZGpFnydPnS0+5BUJHT6/Lj0R9/HFLcHQjAKx5RyWIrzYDV4KP4g9FgCULQuaUKXUENRoSaSSEbj0CSFuT/2VkyAMIiLxGwqMwqYACEzOpm1TAqYAGFsrAFi/Lf/9XEEj/o5kF1Gd/bUwIn5+vcgb+2duP1XV+Piiy/u84Vq99RCt4Sxft3H2LltD7weD5xOF6xWG3Nd7PR3oqmxBTpU+No7sfIn52BGdg709iCsE4qhFnjhobDJugYuLsOIJaDHkzCSSeiSDCUmQUkkYWh6n2MxAUKfJDIrDDYFTIAw2BQdeHtkMf3FF18w46mcnBzIsoyCggKUlJRgzZo1LLMclcmTJ6O8vByi2KVbHXiX5pP9oIAJEPpBrBGq2tjYiD//+c+4/6HHoB36Y0iVS6BRsALKgyAnwH3yBAobV+HBB/+GFStW9DlKUjGE4i2IxSOor21Be6sPiqzD4XQgGAgiFA4wgKBoMgMIl191Lubk5SPZ7GMAQc51w+G0MwNF2q+8bsCIxJFsaEOyPQBD7RsYpAdpAoQ+p8usMNgUMAHCYFN04O29/fbb+Mtf/oITTzwR48aNw/bt2zF//nwcfvjhuPbaa5lrlqIomDFjBgMIZEVNhk+FhYXYuXMnAxRHHHEEGhoa0NbWhkgkgmXLluHTTz/FvHnzsGfPHgY2tm3bhvHjx2P27NnMP9wsmVHABAiZ0WmkajU3N+Oee+7BQ8+8hvasacgqXwrOXQDeSDFhyrYY3/0ubG2f4nvfWoSVKy/DwoX7dxuUkhJ8/lZE4n5wvIFgIISmug5Eo3G0tbYhGougpaUVspyEv9OPH11zPqZ7spBs6YR1Qgm0Qi8cDjvLzcCMFA2AS8pQ6lohN3X2i1QHJUAgnQoFrKDbEcWepn+rqsoIY7PZ4HA42KFHtyMKCkFEpBuUxWJhnyWTSaaXoc+9Xi/7TQcjPUOFYlTT593bps/okKU2Wb5uWWbP0iFLIh+KsU0/6T5LS0thtVqZ0Qm1T33S4UkHMbVNn1PiDmqDxkyHMo2NRdpKJtnn2dnZ7CccDrO26T3p8+LiYhaco7OzkwXtoPboczqkqRBtiC70GdGE6tN4qX66bXofulXS2Mhqlt4/zRyIXvSO1G+6bRo3jZ8YBdGRAoQwUVe3YgKEfu3RIa384Ycf4u6778a0adP2MvQ0QLjuuuuQn5/P5r2oqIit29raWrYujzrqKHzwwQdszZxxxhl4/vnnGVAga+7LLrsMd911F/v93HPPYerUqVi7di0DHiRipbVmlswoYAKEzOg0ErXorCVwcMf9TyCSNRfxOSeDs7ngjgZhkVOZFGWLDVGbDXrTBjh3v4P/mD8Ov/3tb1BZWdnrkIkP+DraEY1HoEKCwSfZ3vP7oqj+fDvIRqGhoQmapjAjxWtuuBiTLHYk2/ywTSiBWuiF05Vyp6S2yIXRiEnQGzsgt/j7RaqDEiAQc1q3bh12797NGCsxWSIwFWLIxDjp0CNGSMyNCtUjgECf0aGXNtwgBkdMcV+QQQDB7XazZ/dtm9qYO3cuAwm7du1i31Eh8SyBgfr6epA4Ks1oFyxYwBjoli1b2KGbBgiHHXYYG291dTVj+lSI2c6aNYv9XVNTw5g2lQkTJjCmT76z1H4alMyZM4cBhx07djCGnWbidLuj99m0aRNj+lQICNBtj4AE1affVOg9aCHT83V1dYzp07N0myTGQe/Y0tKyF/AceuihDGx8/vnnDMQQePjOd75jAoR+bcnhq0xrgvbIG2+8wW76WVlZ7GdfgEC3f1rrtFZISkDriqQOJCqlNUFl0qRJLEDMH/7wB9x666248MILGUD44Q9/iKeffhrTp09n+4fWEj1nAoTM59gECJnTarhr0vl8xZU/xsZIMYxpKxDLGwed/7p0jDMM2GIhJH07ULD1H7j24u/hZz/7WY85DohnBNqbEPO3AJzAsi7Khgy7XYYrOwvt7UHs2dWID97/lJ29ZKx43a8uZQBBbvfDXlkGPdsNkeItkOSADUeHEolD2tUE+ML9ItNBCRCIiT7xxBOMcdEBN1yFDlHS3377299mzDENSogBu1wuxniJsadBCTFZAiwstGaXrpcYMN3WqNBtPi21IMZLIIEAQFpSQHUIYNABTu2mJQX0OUkt6Bm65aeBCn1OhzP1QW1TW1QIGKVvivQOaWkLjZnGToc7tZ1+H5IqEBiicdB3aTBF4yYJgs/nY+NZtWoVLrroIhMgDNcC7Gc/NG/E5EkSQGsyDYaJ4RNTf+CBB9haoPVF64PABP0mdQGBWJpnaoPAb2sriTxlvPjii7jpppvw6quvMkkYrZspU6awfqhNAsW03sySGQVMgJAZnUai1iOPPILf3HkfIsXHITz5cCg2R4/D4AwdrmgIuhyDXPMmjs1qw2OPPcZ4xb4lHAygs6UWaqQDDtFgiZdU3gZ/VEEg0IoZMybCWZCDhM6hvr4VNdvr8NH6z3DGOcdjkmiD3BGAc8YE8C4nDBVQwEG0W8GLQIzO6h0NsIXi/SLVQQsQHn/8cXYbolvwcBW6aZN04tRTTx2uLkdtP8RwSKpBTKJ7MVUMo2faCDySHpWAXRqAEvgjcEgSAwKvJDEjKRWBVQKQBBTTgJIAAq15qkPSp/feew/nnXceA44EGAh0kDqKVFoELDMNNzt6KDSyIzEBwsjSf3+9//rXv8aD/3gLkRlnIT5uFrR0cKQeHrImE/AG2+CLNmJ+0/N46MG/MaktFdpX/o5mRH2NENQYLEgFLILAg8IfR6IJtPv8sNosKCsvhs3tBOdxIaoZaKxvY9kdrU0dUHxhuOZUwpqbBU7WIVN6Z3DgnBbEIxHEdjTAHk5JtTMtJkDIlFIZ1DMBwleJRAu/p9uiCRAyWExjsAoBB9oDZCtjejsMzgSaAGFw6DgUrZCa4KkX1iG46IdIFE2GwRIl9VxEVUGurwntWgQzt96Pu+/6M44++mhIiQR8bXVI+Jth5xRYRQEUxIjcI5mBIcfBMHQkZZVJFMh7UhQEuLxucA4r4HJCt4lIVO+B4g/DNXcSbPnZEDQOyRjZwGksv0I4FEGiodUECOeff76dLKnJaIpuRftKEEjkTjcjujXtK3bvz+KhSaMbEx2A1M++xQQIX1KDbo8vvPACzjzzTFOC0J8FZtY1KbAPBUyAMHqXA3n5PEkAYeGFkIqmQO8LIHQ2o0OPYtrm/8Wf/vhHHHfccYjGwthTsxlauBUFOV4wiKFyAFKjAAAgAElEQVTpMGCAIxsCjgPlSqAcCwQOFCllQB+VUnZy+QW5hBighKLQFBVcRSGc+dngFR6JaBKihwc0A2F/CPHdTbAFU7ZrmZSOUAQVS45GxYzZmVQflXV6TNZEek/SgRKT2hcgkLiTRKMkJk2LPwkoEJBITYTOGD9Ld6mqTIdPenbSw1MhnSuJUqlNep70riZA6HldkE0FWfjSJupeTAnCqNxL5qBGIQVMgDAKJ6VrSGSU+6e/PYVY1emITFy0N/ZBTyMmCUJOZzN8egTTNt+3FyAQrwkGO9FQtxNyzId8rx0OUQRHQYzIVZLjU79JVdDllQBRZOqDWCKOmoYWuNweOEQeCY2Ha0I+qqZVQjB4SIkkBHsKWET8IUTJBsGfMkDfX4nEEpAcXlTMno/C8gmwO119PTJqv+8RINDNntyriNmnAUJax0qGIWS4R+JvMr4iRpbOsEWggHSnaddG0ptSSQMCstonIEG6WgIPpLs1AYIJEEbt7jAHNuYpYAKE0TuF5Al2+Y9+gk+qd0NZ8gMYVcsB0dbjgNMAoUOLYHr1lwCBKtPFlGIfdPra0NxYA6uRQEGOGxbDgKFqzBuBgiGnkyhRGmlOFKHICqLhKPwxCZyrAOMnT8Oe9i2YMr0SIi9AVlMqCSrhQBix7fX7BQiqqqFTMVAwdRZKJ1bBlZUz5lWFPQIEuvU/+eSTzEAqDRDS6oV0DAIyxCKAQGCCwAN9nnZbJPdAkhCQ/pzABBlWkfsjqRDSMRPoeZIomACh5w1MAOyll17Cd7/73a9VMCUIo/fQ6z6ytLsteQOR9K2v7HBj583GxkhNgDB654nOOIpC+sc//hH/enMNYjlTgEnLgPIF3RI2GRASUWTt/hgB3xYcYm3Aww89xNzF9y2015JJCc3N9WhtqkG2jUOOxwGBQEJXScfnoTDJgsDBsIhQ4knonAhfXEHCaWDarMnMToEBhK7SF0BojyTgKp+ECTPnwJ2dC6utZ6Azemej55H1ChC6ezHQwUY/+wZAIiBA6gZSSdDn6R9SI9C/6TdNWvrvtHtiuq303+mhmTYIX04S0Y+kMwSkuhcTIIyNbUbxLD5cvxY5WTZ0+kPIzivFihUnsPgaZhkeCpgAYXjoPNBeiD/QhXT16tX4+5NP44131iJGxoTOPMBbAlgcgJYEOnZBSARQUV6GW379S3zve9/r1d2XJNlSIo499TsRaq9DUbYTTsq2KPLgiCdJMgSbNRXbhowZBQGRaBydMRn5OU44ivMg8S50+BKYWOVifK83gBCIxKBm5WPywkORXVAEq81+UF0CMgYI3RfAvoBhf9ms+rNwhgsghEJBNNXXQVGSKB1XgYLCzCPT0eIjaQgZaw5lIZqSfUdafbNvXyZAGErKH3jbFC1x9Ttvw2UzMH3qBHjczlRkT18QH3xSjUmTZ+Lbxx3H1GxmGVoKmABhaOk7WK2nI/P6/QGsWfMutm3fgd179jDdAKm658yaidmzZzGJNgXOy2TvaJoKf8CPmprNEJJBlOZ5IcgqeIEnvQRgt0FPygwkqLqB5kAM/mgSFQVeSJqIJsmGJctTcW+6A4S4lEQYFpTNWYSyiVWwOxwMfBxspVcjRQrYQkzqYImDEItFsa16I4KNNSjMdqEgN4u9X2dEgiR4IdrdUFUFhkauMjx0VYGFBzp97YhGwqDIGbqmw+2wQ7Ba4C2uwuyFhw5ZXHwCIRTj/6qrrjIlCGNk11HwrHdWvY2gvwUL5k5FYUFuV5rYlCKT1pum66jZVY/1n2zBkUcdywImmWqHoZtgEyAMHW2HquW0unrfiydJoeknfTHNtO+UVFtHXV0tanZ8jtIcO3LddhjxJCw2C3Rmn2DAoIRMOl3Kkqirb0UsEkfhgsWweVQUluYgEU0wGwTRF0YwqcFRMRmVs+bBk5XVY0THTMc32uv1CBAoih95MRCTOlgAQigcRF3TNnidOvhAFA4+bbKSOrhjcQnBcAyyooCMTQwuZfySn0O5JHgQYhR4DgmpK3qiKCKQUDB++iGYMn3moM+z6cUw6CQdsgZJxfb+unXYsnkDFs2fhqpJqXwdfZX3P/gMX2ytw1lnn8NyOZhl8ClgAoTBp+lYbvGL6g1ord+OifleZGW7oFEaZ2bAaEAKxtDW3A7VnY8Zhx2FnLx8pv7YXbcD4WgrpNY2uKw5mLLoMBQWD1+E4ZGkd48AgcIcP/PMM0zHU1ZGubmHp1A+BRLdn3zyyYPeYTDoR13LDhSMcyMRjsHoDMOp6bCQuKmrEDCIxBOIxiVISZnZTyiqBqfDhvwsLxKUZ0LRmGUry/tA+izdQBx2TJq5CCVlZQxM0HMUrIO5f3ah3v6+EIGze++9Fz/96U+/9qipYugvNQe/ftpGpLp6M95ftwZTJpVh3pzpTGLQn6IbBl59410EwzLO/N7ZLJR32m24P+2YdXumgAkQzJXRnQKkut246SMooRaML8qFoGmI+UKIKAKKZy5E2fiJX5PqkXceqUHIcJ8kGd+U0qub41NPPcWSGpHl9XAVykVAGe0ogdJgF3+gE7vqqlkK0Po9LThk6RxYVQ22RBL2rs7SR3tSVhCOxiErKiRZZqoFm1WEx+WE1WpBKBJFQlJYOlAKwkGAIanoyBs3GUVl49FWvxNSuAOu7CKUTZqBnLwC8F2xIjJ9L1qMZLhDeSm6FxMgZErFwa/HXKokiSUNW73qTeRmO7F0yXy2Lg6kxBMSXnl9NezObJx44snMkDETPeuB9PlNeNYECN+EWR7YO7a1t2HL1k8R3F2DaXOXYtr8Raa6rxspe1UxvPvuu8wYhH4OhhII+hlAaPM1Yc3bn2DCxHIsWDITRQVZ0IIx2BUFIou8lXJ9NQwgGk+gMxhGQkoy1EiuLzarhUkUSNoQjsXZjZH0yvSdRRRhs4jIo4hePM9Ce/pjMmw5ZSiuqILL44Gwn3jj3emc9hgxAcLIr8C00ajP14G1770LVY5h+eGL4fEMnrEqrbnOzgDeWfMBikrKsWLFiT0aqY48NcbOCEyAMHbmyhzp6KNAjwCBxCkfffQRu8kPxW2+NzLQ7YziJ9BvUm8MZtY6skHYXb8FjS17sH7NRtisDhawafrsSoybUAjR0MGF47AbOgRy0aTIW12qBH8owtxgFBYhUgfPcxA48rF1Iamq0AwDuV4PHHYb+657icYSCCs8kzDkFpbC5nD2adxINKBAUj3ZgJgShOHdSCyFrN+PjRs/Q3NTPQ5bugDFhV/NJDcYI0pFI1URjUSw6YstyC+ZjKVLlw5G09/YNkyAcPBOPfEKkrRS6H76Tao5+qHYPPQ3XdJIJdATH6E69N2+hc5c+pxUxJQlmOL8fNNLjwAhHfCIfPCHQ99C/VE8BVJp0A8ZfVEWw6lTp7JUuLQADrSEQgHsqt+ClvYGfLh2E6wWyivhgZeSdghAcVkuyioKYON5CHEJDnAQVBUUUINUDPTjD4aQSMShqxqSiQTyCBRkeeD0emGzWfscYiAcQ8xwoLRyOvKLSiGIYq/PmEaKfZJzyCvQAUR2MXV7alG9+XPMmzMNVVWVg95vOr6IpiQR6qxHQ80GNLbFUDlnBfNyMMvAKWAChIHTbrQ/SdlPiV/MmjUL9fX1oGBkZMNDOWzIuJDcI4888si9cUcIKJBtF31OuYbOOecckL0dgQEK5kfP7BtBeNGiRSwycJr/0JlM/yZXdxZDgeMYyEjbJ1D7VIe+S9sSjXYa9jW+/QIEItxg3uJ7Gkz6pvzoY4/h0cf/gfZQggWusHA6lh0yFz9aeSk7JHsKGNTXy+37fSDYiR21X6CjswUfvvc5HA4XCwntcrsQDIRALmpWm4CqqRWonFKObLcLSkMb+HAcybgEp9WCZDwOLeKH2+2ExeOBnbLuZRgPgd5TVVQW2jOkOTB10eHIys0zAUJ/JnGY6tIBQDE5Otrb8Nlnn6B8XBEWL5o/6L2n3RtVJYlENIC2hs8R7myElJDgi1pNgDAIFDcBwiAQcZQ28emnn7L06HSRJCBPkRVJ4vraa6+xiyVF6s3KymIggNKuU5ZUCvdPl89//vOfuPrqq7F+/XpmZ3fxxRezSyp9vnDhQpAnH11Ut2zZgoqKCiZNIABBtkEECOh7+n3MMcdgw4YNLLX77Nmz8dlnn7H4NZRDJ52DaJSSL6Nh9QgQCAVRnGwiJKGyoSw0KQ8+9BBuv+t+5M8+GsUzD4dodyHSWouGj17BnHEe/PqXN2Dx4sUHJM0IhvwMIDS11DOA4HS6kZubwwBCKBhCR4ePLRASJWfleHDuD0+D0OaHN65C7LJM53QFAqfCXlAAS1ZWRgYt5EKjygoS8QTioSi4pArZlYeqJcvh3Q9AIKT78MMPY+XKlV8jv6liGLoVSUCxtaUZ5J1gtwo4YvlSCPt4ugxOz6mopIoiIZmIwt+6EyHfHmiqBFWRTYAwOERmrZgAYRCJOcqaImb84YcfYs6cOUyCQGCAcgWtWrWK3fTJfo6MicmFeM2aNQwgEJOn38T4CRiQlJB+brzxRnbzJ2a/ceNG9j0ZzZOqglQO06dPR1VVFUhqQc8RICEeSR53pI6nfq644go8++yzLL0AAQTqZ6zHOBlxI0Ui8oWXXMHicE859jzwwpfW4KHGHdj11iP40fdPwo9+9KOv6Yz6s17DkSBq6qpRW1eDj9d9wWwQ8vLz4Ha7GMJsbW1HJJJCmrKcxMVXnIXsaBLZcsoAkbdZYHNYYcsilYSQUddkyJiUJCTCcSixBCwU7pPnEXfmYNLi/QMEWpS0UAnNdi8mQMiI/AOqRAHC5EQIRyxfBqfLuTfBy4Aa6+khjoJwyZCTMaZOCPrqoMoJaKpsAoRBI/KXDZkAYQiIOkqaJGkA3dwJIKQTAdINn/5NzHzSpEmorq7G7t270dLSgvHjxzPPIPqbGP/EiRPZeU/S6VNOOYVJDN544w0GNMj+i4AAfUau9yRJJ4kBFfo3SRCIb5CkgrISE8igNoifbd26Feeeey4DGCZAOIDFQpbhJCL67vmXYurJVyC/6qtiXF1TseXl+3DM1Bz86pe/ZBM80EIAYWfdZtQ31OKT9ZsZQMjPz4PdZmeosrWtHbFohEkSVE3BpT85F95gDFmyDmdxHkSrBaIodEXz2v8oCIkmpSSS0QSkSAy8ZkDcx3c2E4BAPZCom/RlJkAY6Kz3/7m7774b3zpsKsaNnwarzcWirA1GofgYuqZAkROIRzoQ9DVAlqLQ1GTXjwkQBoPO3dswAcJQUHV0tElSVmLMxODpN52V9EMifmLipCKnQlmFqQ5JFYiZk5SB6tDfdPaT+oB+iB8RCCAJQNq9nwACfUeAgvogtUE6QSGBDZK20zlNhcAJfUd/k03DcNjvDfVM9ChBIMITCiL1AqGgoSp7AcJ5l2DyCZeicNrir3RFN60tL/8VR1V5ceONv2KIb6AlFA5ge+0mNDTW4bMPq+Gwu1BQmA+rxYpgMMQWEUkQ2ts7WMjlK6+9EE5fGN6khpwlM8GrGvRIHFBU5gdJUoWeCjNgjMURDUZgJNWvAIN0/UwAAi0yEqGRasUECAOd9f4/RwBh4VQnSsZVIreIYqx7WajWAReOh6FrTEogxUOIhlqQTIShyPsCA/q3CRAGTOP9PGgChKGgqtnmN4UCPQIEYtyEmAiNDSUKon7I0OTs8y6EOGExph5/0VfoHqjfhj2rHsOlZx6PK6+88oCy4JEEYfvuz7GrtgYbPtwKl8uNouJCWEQLwqEwfJ0pGwRfhw9JOYkfX3cRnJ1heCUN7oVTYc3xwiprkHwBGFIylQWM4/YCBYqcqEpJKDEJSlyCRhEXeymZAATTi2FktmAaIFCCJXdOCbLzKuBw5YLnhX5JE7gu5YSqJiEnIohHfZASYWhKAqoqQ5UJEKSBgQkQhmq2TYAwVJQ12/0mUKBHgEC3V7IAJReOocpaSOCAxD333HMv/u+pZ2ArW4CqZd+DmOUFJwrQYgnUrX8BbZ+/gsv/8wcMIJDRx0BLNBZGbeNW7Ni5HR+8txFutwclJUUMBIVCYWZ0krZ2JeZ85c8uREFMhiUcBz+pDGJRNrxZXugJCYgnIVO45kQKKPAUHyGeZMBATX6ZQ9wECAOdrZF7bl+AIFjssNk98OaWweUtgMWaSr29P6VDOgoGZZIjqUEyEUIyHoaikJ1BSmpgAoThm18TIAwfrc2eDj4K9AgQSD/z8ccfsyBJ5OIxFIX0PP/zP3/Cw08+B8+kpSiccghsYlfgCtLXGwYinfVoq1mPHCOAi845A2edddaAQz+HoyE0tOxEUolh48fb4O8MIicnm0lISMXQ2trGAtSQJIF0TVfd8ENUyIDqC0GvKIKlNBcWqwWCKLAcDLysQosmkGhqR7IjCKErG1gmtMpEgkBjoHDXF1xwwdeaNI0UM6HywOqkAcKu2iYYnIAli+bBanPC6cmH3ZUNq90Di5XicvScc4HsDFRFYrYGSjK21wCRJAkmQBjYnBzIUyZAOBDqmc9+0ykwIl4MxPwoW+RPfvpzeKYcjXELjoUtL5/l5tZicQYOOJsVvN0GKexDwyevwx7YgZuuvxonnXTSgAInkWdCa0cjwnEfU5/4fWGEgxEEAxEEAkG0tZENQgjtbR2QFRnX/3olyhIalI4gAwieyhKQJpr00RRemYCFIWtI7mpEeFcTi6KYackEIJChI7nu9BTJ0gQImVK6//XSAKF662489/K7WLxoDr77nRXIyc2HaHUwmwSr3Q2L1QlBtDDVA4XcpPTg5JlAwIAAAtkd0E/KtkCGCRD6PxeD8YQJEAaDimYb31QKjAhAINeSSy+7Au9vacGMoy+Co7wCfC/JbtRQGMlYANtX/x+OmlmKm2+6kbmvDKQkkxLafa0sYRNnUUE5nRt2t6Fm5240NjYjGAwwLwZSMfziNz9CaVyF3B6AUVEEV2Uxy8xIPvHkgqiR0WJCgd7YPiQAgd6PjEV7SthjAoSBzH5mz6QBAkkIPvhkC157iwKp5OL8c7+HmTOmwu5wQrQ4UgDBYoPQBRDIIyEpRUCeN3uLQRE4VRMgZEb6IallAoQhIeuYapTO0bbmBnCagmQiBk2OswueNasIFROr9roipkMtx+MxSLEYSE0oMEGhzsC+rmlweLJRUFy210NiTBFiAIPtESDQDbupqQk5OTnMJ3SwC92MFx+6HPnTV2D88lOZ3UFvRekMMIlCS816JHasxgN3/TeWL1/eryHRxIcCfrTU7WDpmO3ZeZCNBBQ9AqfLgbbmADZt2Iot1dvQTu6OsRh+/psfoSQqQyb1QWUZ7OX54HgrwBnghZQWWo1KUPa0Iry7fxKEmCMH7tnLML4kH7ZeQirQHPz73//Gaaed9rV3NQFCv6a/X5XTAIGycSSSCvz+KBK6EwsXzmNqqEBnB5YeugQebzY4XgDPUepXDrIUhiyn/KS/BAi0dDUmXTAlCP2ahkGrbAKEQSPlmG2osbEBoUA9bMk4eE2BoSkMFPA2F5KGBYFQBLquwWGzALoBiovGcQZg6FBkhUmNFZUkgjp4ixWu7EKUTJiSytJ7kKd+7tWLgZgqvfxgB3og48Rt27ZhwSHLMOvbl6Nk2bfZzby3QmoHJRBEpLMOO955BA//+TaceOKJGU8MMdq2pjrEOuogahJ7H1VwoKkzDIugoGpKKQynE6FYEnt2NeGj9RvwxaZqXP2L/0RJWILSGYZn0TRwvAiVAxTDAqvDAsGiAxQhcWdj/wGCMwernIfDnZOH06t45Du+rtE2vRhG5jxKAwRvbgkeeOhpLFowA8d8+wTQ33vqmnHH729HNBrG/HlzcfjhS7FwwTy2FpOJCLM56F5ovRu6agKEkZlOM5LiCNF9NHW7s2YHrK44ODUBwx8BWRCRmpjFPZBkUKr1SCwOmRI+8UIqoy/Hw2G3wCpaoGoauyyQebKm6eBECwSrC87cEoyvmga3p/cL7miiw0DG0qsEoa6ujhkEUvCHwSw0KRTGcuGS5Zh7wlUoPuxb+2/eMJBsaUM80oYtbz6Av97xa3znO9/pMYBQ94akRBx1OzbDooVh0WVYLCKFMmQ5EYLhOFp9ncjOcqGsvARilhuyxYJQNIE9NU2YMnM8+B0NUPxhZC2bDcFuB5fUkAjHwLlssLjtMJIy4jsa+g0QyAZhc97huK82F4VO4KfzeSwt4WDZByeZAGEwV13mbaUBQlnFNLz02iq88eY7mDN7Jk495USMKxuHTZu34J3V67Btew0zWv3JlSsxb+5sSOSpkIz22BHdPDQt7dZoejFkPhsHXtOUIBw4Dcd6C9VbNsNTqKNmxy5Uji+FGorBlpBht6TEt8ytX9UgSUmEYnEossr+VnUNNosFDrsVdpsVSVmBTHFwAGiaAV60wLC6kFsyEeUTq1hwpobdO5hquHLKDFi6AjWNZfr1mu553bp1TNdfWTm42etoMiie9dwFh2LWsZej7MgVzMhrfyXZ3Ip4pJ0BhL/cfiMTu/cUYTDdBkk/Otpb4G/cAa/NAG+o4PSUWoBJKziw7IyUFEeSFfACD7fHBYvTDs7thGQRYXFYEf9k+16AYPG6wSs65KQMTlagajqIo0u1LQMCCDlzluGC93PwcbuBCjeHc6dyuHIuh1x7ihYk+aCsZGecccbXSGOqGIZuy6UBQk5OPgRHPt5buw4v/ftNdjAcecRSfIuyw+XkIhSOMKBZWlaGLK+HBUEiO4SeiwFdV7oMFk2AMHSz9/WWTYAwnNQenX19sflzeIuBpx97AUUlhVi0eBacFgFGIAoXuanzqTNXNwy2pxOSjFAsxn6TxNnKIjQKsFktzP6MpA7EYzT2YzBbJJsnD1aBQ7aDh8Bz8MdUeEsqMb5y8qBL4YeTyiNipEhxrg9ffhR0zyRM/vZ5cJXu35WyvwCBPBbWvP0vVJXlwsYWAEWzI0OTVIrOFFLgwJHBoaIy45OkokIzDLhdToh2Kzi3A/E9LTAkGfb5VbBQ1sakAVnSwTs18CqgxSTEG9sQ3tWYsReDoqpIeAsxefFy/HFHFu7+3EAwCeTYgDn5wF++JWBaTkr8RWE+u+csp6GbAGHotsiXcRBcsDo8EK052LarHq+//gY2V29nxklLlhzCpAYL58+Bx+1hUqlkLMiMFHsrpMfUu6QIZhyEoZu/7i2bAGH4aD2YPaVz0dBlkqTYlNKZMjUOROW9ddtmWLOSePT+Z8DzIoqKCzBn/lRUTiqBFAgDwRhcQiqBGgMKugFZVhAIRxEMp0A/SZ8togiLRWC/pSR5JmksJordZoHX7YHFwsMqkoqCg6xokDUDAVlE+ZQ5KCgcuojEg0n37m2NCECgOAuPPPoorr/hl7AXVWLWaVfCW9K7ZwIBhGigCVvffhB//e//ykiCUF+3G3W11cizA/k5XoAmU9NSwICoQK6U9JvAA/1HIZIVFU0dPiSSMsaXFsNpsWDjFzsw5dhDkFOQB0HjkEyoENwUpwEwZAVRUjHsbOgTIBDDDyRkWEvGY+KcBcjOK8DH7RzOeV3D7lBqWi6dxeOPy3m4LCmxF6kZekpzbQKEodsS3QMlpbwVnEhqVmzdtgMbN36GTZu3IxqJYVLleFxz1RUoLCyARAAhEd7vwHSdwKgpQRi62TMlCMNJ26HqixIw3XDDDVi9ejVknQNv6MjPy8Ell1zCstv2dCbubyzbd26B4IrjH39/CboKWC125ObmorAkFxWVRSguyUasPQguHIO7i8EbBqDpGhJSEp2BCKIJKeXeLvCwWUXwhsGAAkkPSf1AUoju4IXOcFU3EIhIUO15mDJ7Yb/HPlQ0zrTdHgECoTdKOuF0OgfFnUOSEli1ejWLVLh0yRKWRpr0PRSM6drrrkf1zj3IHj8DRdMPRXb5dDhziyHaKGqdgUhbPYI7NqNl61rk2xO4/3/vwdKlS/t8PxIBJRIx1O7eAX/7HozL88DtscOQFBgKIb9UqGSm3iDJgpAKpasrKlra/dje2I78onGYNHU24IkiK8cNkRegkBtblxDCUFREt9X3CRBCcQmKOweV85cgv6QMosWSMpbUgVNf0rCuhdQMwE1LBJxRxYEkXqTHevDBB1kK0e7FBAh9Tv+AK3QHCKJog2i1p9warU5ohhVt7W3YU7sLNTW7cPy3j0FFRTmkWICpGfZbDFI10M3DDLU84Anq54OmBKGfBBvh6sR3KNbNhzXtkJf8ECiYDCgJcLvWoqRxFa685EL8/Oc39EuSUL1lE5MgPPvkKwwgWCw2uJxuuMiDrb0DhSXZmDarEuPHFyHcFoAYkyAoMmKROERw4HWDJfJLRMJQJQkeuw3ZpcWw5eZCEMU+x5JSRwDtIQm5E2ahYuLA3PRHYmp6BAiDOZDdtbvwuzvuQCAYYbyYpAfTpkzBooULsHDBAuRk52D1u+/i8ccfx7p16+EPBMhQAKKNbE0BVYozN5MZ06fhNzffjBNOOKFfKIwmh6zOt23dCDXRiXH52aCQRiRNMIjRE1Q0UjyfZAvsMyZm0lHf4ofqKEDBZA/y8rNZ3gUGELpKXwCBJBFRzoLiWQtRXjUVVpvta4vpuRodhU4O5W7gwjc1/PVbAqbkcEx6cM8997C84iZAGMwVuf+2egQIFgIJDogU90Ck24IV0biMLdu2ory0EKUlJV0AIdjnQEmKQAaLZi6GPkk1KBVMgDAoZBy2Ru644w7cfPv/IHHqH4CsUsYL2AEtJ8Btfwuzfavwf489ylI8Z1o2bd4Ae7aCZ574N3SNYxl8s7zZsFotaGhoQkKKob3NhwlVpTjsiEWYWF6Ejk+3wat1BVXXKOZNlJgRAwWOoiKIDnI927/t3F4+YRgscm/UH4V7/DRMO+SwTIc+4vV6zeZIroiUzfFA8h8QGLjsysvR0tIOKZFg7iL5eXnsti7FY+zfd/z+9ygrLWOEoPgDNTU12LlzJ9O/UyEjyblz57I0m3TrHogOKs3w2ztasXP7Bne1tmIAACAASURBVLh4GUXZHpByAWSNynNMxWDoKXsFjgxY6IYfS0LRVcQtPAqmTkRS4WEho8cuo5beAAJJYEKKDmtpJarmLULWfjxBaAmml9kmn4HL39Hw+ncEiHrSBAgjsD16BQgWBzNGYpET9yn0Ny8ISET9kOJ9AwQSO6bCMZvJmoZjek2AMBxUHrw+yIX9jWYrtCN/AnTbawg0oOzju/Dbn63ERRddlDEvqN66CZoljH/943Wosga73ck89MieoK21HcFQEC1NrUhIcWTleHDhRafB0hpAVjrfnqFDEA04crNh6eJDmb5xNBaHv7kDDlKVWCxA6SRMW3x4po+PeL0htUF48603cMttv6PYE0gk4sjLzWOWnyQRoJ+83Fz87JqfYvGiQyD0kj55sClEovvaPTXoaKlBkcsCr8vOUjhzuk7KqVTY3KRCsgSEEgpq2oIo9DpRmu/Brk4LtjWo+I+zxrFhdQcIxOzjqo6E3YtJC5eiuCxVrz/lnzt1PLvLwMNH61i96i0mMeleTBVDfyjav7o9AQReIPfXJHLz8mCzpHLMpwsZPTGAEPMjEQtk1BlL/2wChIxodaCVTIBwoBQc3uePPvpovBcpgrbssi7pwT79B5tQ/Mm9+MUlZ+HHP/5xxgBhR80WyHwALzzzBjSF4pLwKC4uYhKE5qZmhMIhdPr9CAdDyM3PwgUXnAqhyYccToRgFWHPcsPqce43Xs++VGK2B5qG9qZ2GFEJTlvqzDAI8JgA4UtS3XvfvXj8iacQj8eZx0B2Vg5sNguTDhARyeWQJBSnnnwyTlpxInJzc4YNKIRCIdTs2gIt1oECjw02gQevaOBFskVIGQnSP8jDoc4fRiIsIeHvhGfObFROpSyQPMvkGNtWh+COBghWKyKcFcUzF2DStBkZL96ett9/fajDIQA/W8B/JTZCuq4JEIbu0OoOEATBhs07avH3tR+izOvB9ReezwDBlwCBJAgipEhn5gCBAq6o5PZopnseuplMtWwChKGm8OC1T2fu5ZdfjodefBfK6X8CxJSamRVdAxo2oGrrw7j7f/6AFStWZNzx1u1fQBVDeO2ld5BMaBB4CzMsJtltS3MLwgQQAn6EAiEUl+XjBxecCq22BQVuD6wFOaxviyB0BQ7cf7ekmvb7Aoj5QnBbrV9J6XbQAARi6OvXr2fi/YkTJ2Y8Ed0r3nLrLXjzrbdZMiSKW0CBJDiBg6EZzEKUJsiblQWXy40pVVX4/tlnYd6cOazecJW29lbU7q6GzUgg2yrAQcGUugwXDU2HpiiIBqJoavahdMFSTJ+3CFu2bUY02YGikiwkdzejeWczcidNx+T5i/plH9HbOyY14JK3NZxcoeK7U2wQuwWaNAHC0K2OrwMEKz7YsAUb5AQ629pw5dHfRmnply5LBA5IwpCI+JiaIdNCoV3TiZy+BAoSkyxQfA5f1IrKOStw2GFjR1+Z6bsPZz0TIAwntQfeF4GDxsZG/NfNN+PvTz8H/qTboBZNgc7xTJrLRTvBrbkLhxYDTzzxRL9cHjdv2chUDK+/9C6SkgqLaENpaTGLitjc3IJgIAC/PwBfZycqxhfjwov+A0pNIwry8+CeMQFcXIbsDzG7NYuYCq/e3fyABUMj18i2TnCyxjweupeDBiCkXezI53sgon96njwWbvjVL7Bhw0bmEUEuIRS7nq7lpOsnS36ny838/MmuIClJKC8fh//84UVM5TCcIEFVVdQ31KK9eRc8VgMemwAuqUBOKAj6IxBzSzF9yeGwdhlO0sSTnUFtbQ2UeAT5xeWD7ufaENZwysM7cf9ZU7GoKOXZkC4mQBj4QdTXkz2pGBQduP+fL8Fms+KS00+DtUtkSG0RQBC6AEI82tlX819+b1DY1i+DJ6XAggkQMidgZjVNgJAZnUa6Frk2rrz8Crz9UTXkmaegLGcaFKsDCacHFiUJS6QDgZ1vwerfjLNOOQ43/uqXqKioyEhSu2X7JsRUH15/cTVURYfN5kAJAQRVQ3t7Bzo6Ohi/oiSCJWWFuPiH34W6qwk55MI4bTwcOR5wCcrLE4ASlyCAgyh0pSEgmyLK5BqOQ4rE2OW3t3JQAQQyMCSAsL+IhT0RgphtY1Mjnv7nP/HMc88jEk65flks1r2T6XS5WOAJUUjd1pNSkiEym82OxYcswvnnnouZM2YM+5qNRiPYvWcHlKgPRjgMUXSifOZC5BQUZpz7YbAGTf63V/zub9CXrcRNh/Coyv4SIZgAYbCo/PV2ejNSJCDQUyHpgSBYEY/4EI909GtgZIeTAgZpVYMJEPpFwAwqmwAhAyKNcBXiNVdddRWe/PcacAt+gOjExTAEEc5YCK54GKogIurJgUJG6rUfwL31eZxz3KH47W9+k5ER/a492xBXO/H2q2vh7wzDZrWjrLyUhVQmcNDW2gYpKcHn86F0XCEuufh0iA0dEMiDYnwRbPlZLKkfxdLhohLkQARqIglR16FLSSTDlCFynyyuvdDzoAEI5GK3adMmJsYpLS3NaPmQ7oVUE5u3VOPBhx/GRx9/xKQGJC2w2u0MrdGt22q3MWBA9eVkkgEQ8iUVBBE2q5XFXvjOKafgoh9ckFG/Q1Gpo6MNkVAIZeMqYLPvowfr6szv9yHSCzMgozWPJw/Z2bkHNDQyprzvgYdQccJleL8FuG4BjyJnqkkTIBwQaff7cE8AgbwXevOeIYAgilbEwx39Bgg0EEopawKEoZtPEyAMHW0Hq+VVq1bh4pVXwl98LPSq5Yh5C5gXWffC6zosiTDk5o0YX/cybrw65c3QV0bFPfW7YFhiaG/txKaNW5GIkcFxDmLRBPz+TjQ3tUJWJAYUKiaWYeWlZ8LW6IOq6uAmFEPM9TBJumgRmKs7p+lQO4II1zRAj0oQMnV3/CYbKVIK5/fWrcWTTz+FpuZm5qGQkhDwLHaAFI+nohbqLG4hiz9ALmKkSiDJgcDzzH3QbrfhtFNPxXnnnDtY629Q2+noaMfGja+ire3DHtsVBCfKyhZh9uxjQfH8B1oITG3YsAFT5izCo1t1kJj74pk8sqwmQBgoTTN5Lg0QrBYLgpEEA8kk/eqt8AJJ2ayIhTsQC7dn0kW3OmkpwpcqhgTZIESsmDTXtEEYAEG/8ogJEA6UgkP//PXXX4+/vfAehOlnwV8xG3ov0jpBVeAJ+5FQYzCqn8M58/Nx7733skvl/kooFERT2x6ItlSo/T27myDFZbQ0tyMQ6ERjQwuSsoTWllZMmDQOP7nyHHC7WxhAsE4eB3tRDkgyns5wzKwiQlGEqmuBmMRAQybloJEgUDyCd999F5MnT2Y/fZVwJIwHH34Izzz7HPyBTrhdLuQXFJKGlgECSZagUQ6CRAJ2u4MZKIqiBVZLKkRlWt2QSohhxSknn4xzzv5+X90O+/fBYABPPfUAysoaMGlSz8xfUcg2IQFJmoBZs5b0iW7pJVQVmD599tfsLihhEwGo5hjw1806puUA/1HJo7OtSX/llVeev/TSS68G0Lg/Qkw65Zb13zp+2aGVpXko9lpR7LbBInJojchoDcto8kexYcP21l1bt13W8ObvXqS2pkyZMnflypV3Xn311ccMNO7EsE/OIHWYBgiUuW3z1lpUTpyA0pIiuN2ungGhSBIEGwMHsVDbgEbBgid12SCQuq3VF4EqFGLRslMwc+bMAbVpPpSigAkQRv9KOPvss7HqszbEllyMRN64HqUH9BbkNWaTYnCE2hFo2YAVjho88MD9DMTvrxDfiUVC8AU6AIsCq5OHIunYsbUWDXWN2LZtJyjaL9kjVIwvwU9+ch64Xc0MIFiqxsFZnJIGM5WgpjGwgEAM0R314OLJbx5AIBVDdXU1Uy9QsKS+ytvvvI0/3XUXGhoaoagKc2d0ud0sp7aiJFkAJPpRZBkFhYUMHLCsiobOfFHphkaWofRvAggnn3QSvn/W2X11O+zfr127BqtW/QGzZ6cCO/VWCCTIMg+bzZORDceGDa249to/wuvN2dtkWoKwaNEiFkdiq9/A/23TcUw5h6lci/76ayZAGIoFkAYIZIVc19iBlvYAiorykZ3lRXlZEUiysG+hlK+ixY54qA3RAQIE2geKKqO9PQBJpRSyeaiYNBeLFy8ZlFDnQ0GnsdKmCRBG/0ydeeaZ+OCzdrR96yoo7rz9DtgqS/D6W+EL7MTRynrce889mD59eq/PhIJ+dLY2IBH0wZtXhIQGtHTWo2pSITirA7W7mrHh080MKOzatRslZQW46sfnAzVNDKjYqsoheF3QDQ68yEMQOca3ku0BhLbugZCQv3kAgeXHVhTG3PrS78iyjP/+4x/w1NNPgecE5plAenvS2RDiIrsEYnYEOkgURAaKJKqhm6mHjBWt1lRfZINgs7ID+NSTT8EZp58+6lb2iy++gIqKTzBvXvmgju2uu9bgoovugsfzpd1C91DLsgZ80GrgjXodh9hb9PZPXjUlCIM6C6nG9koQkgqqt+9h0T47fH6m+srK8rCkXKUlhXA7KVcIwItWBhBioVZEQ60DGlEgFEcoqoG35SK3qAqLDlnMMtiZ5cApYAKEA6fhULdw1llnYe2nLfAd8WPIWan4BL0VBhACbfAFa3CUtA733nM3ZvRg0E58KRL0/X/2rgM8ruJa/7vSFq1Wvfcuucq422AM2IDBgAkQIIRQ82jJA5wASciDhB4IJCQEAgFCIKEYDDGYaowxuBt3W7bVey+7q63a/r5/rtfIsmSrrGTJ3vm+/aS9O3fu3HPnzvxzzn/Oga6xCrDpodUo0Gm0QaYOR01jK8I1HmRPyIFMEwKTzYWDByqwZ+d+eL1u/OiqRfCW1EGuVkIzLpNOluQnwkOTuIZrohfW5g4YD1ZDYefadYqZGLig0+UjNDT0mPYdBjzavHUzXnr5ZRQVFQk3QC78Wm2YiAfA6IkmkxE2qw3RMbEI0WgEaPCREQkIRGhjyASg4N/wMK3QIFx4wdERBId7oB6v/RMJENg3kwNYXefBmqImj6LsqxV/ve/GgInheA9tgL/7AALjZFXXtUCnNyFMqxEaLl1nJ8K0oQLIclJgJreszDQo1RpYDM0wGwYGEExWB5rbrdBEJCMsOg2nTZ2BhISxmRZ2gGIeseoBgDBioh70he655x68+d+1MI1bgq7cM+AN7pvz0x+AwMRKutZ6WHUN0MhcUNAlMYg7fynwXWOrHnpjJ1IT4xEZH42gMA28ahU6LQ40N7chMzkG9n2VkGtU0BbmirXJbXXASZTAdUolh61ND1NxzakJEGiz2b59OzIzM0XmxZ6F6Ky8ohzfrl+PVatXgzm7nQ66KtKk4BR5E8g1sHXZYDJ1QqlQITk1TRATVWqV2I1RU0DBc+JloceDSqFAVFQUFi1ahHPOPmfQA264TjwWQGhtNWHDhjLExGiRkBAOmhm0WpWwY5FnkZNDZNx76U2DQBkvW7YM119/pDdHixV4a6/Ru3xDyaotq1f8Al/+ofhY9xvgIAxsNPgAgiYkBAdLa0AugsXaJQKk0AQmZTq1QqvVIDoqHAX5uVCHhApwYDY09utiXQ43GlpMUIclITwmHQXjC4cUkKxfFz1FKwUAwuh/8Ezr/OBDj2JXpQ7WyT+AN2MGoNL22nHJxNCI9o5inO3ajr+/cKSJoaOtBYb2enjM7QgJ9kq7e9poiQ4YTOZQYj5mE2YKZ02IWkRG1URoAY0aHrVCZPS17CmHXKOGdkougmhWtHtFgjWP1yWi7Fp1nTCX15+aAOFYJMWmpiZ8s+5bkYGxpLQUSqUK7e1t6Ghvg1qthtPtlrIiinwLTFvchdzcPBTkF6C5rUWAAmoXGHmKngusS3BAMp4yWIHEpCQRRnPG9OmjbmQfCyDs29eAJ574HBMmJCE7OxYOh1v8NRq7oFQGYdGivslmvQEEmmGqq6tFNMvuhUN9T73J+9jXTWUf1KiehjbjLfxSZutLWAGAMLBhtHr1auiaipCflSDGZV1jC1rbdHA4XGDilYhwcmtkcLncQrMwcUI+QjRhMBuaYNI3HPNibjdQ09QJRUgcYpNykZZZgHHjxvUr2MvA7iJQ2yeBAEAY/WOBmyG6Or7zzjv4dGsxdCGp8MblAlHpgCYKUIdJ0W3dTgR31ELTXAqHoQw/nJqIP/3pmSNiIVRWlKCtsQwxKhlCNSrI6DV3yKQt0AEBAvlv4h8ZbBabFIvH6RLedZFx0ZDJZehq1sGpCELouHShGffYvHDLvAhSeuGxu2Bu1cFUVgtFV/9MDA6XC10KDeInTkdG/rjR/1AO9XDAyZq2bN2CV/75KioqKxEVGY15Z5yBfUX78N32bUJ74LA7hG83+QsEDBazBRkZmcjOykKX04G4nHFIjwrFzm3bBQFLAgdS0CQmc5o2bRrmzJmDxMTEUSfE4wGEJ5/8AuPHJ4r7sVjsGD8+CY2NBthsDlx33RxkZPROwHnuH0W48rL/Q2Jc/OHFgiiVsRAow56lvqHJ89KXuw88Xp23CjGZX2FD8Gosl/lyjx1RPQAQBjaMmKNj354dqCnfjQm5CQgKDoLD4URldT1sNjssVhu67A7BRUhJikdWVrrQIJj0TTDpegcI3MDUN3fCLY9EUsZ4JKflIT+/ACoVE48HynBKIAAQhlO6/m2bWXzXr1+PjZs2Y3d5A0qaDLC4gwBlqFjEZR4X1E4jEtQynDY+Ez+79adYuHDhETw5Brtrb2tCZ3sDZC4LIkIUQvMnIzr3eqUcQCKFrsRz4P9euQwmkwUmZl40mgVPLlgWhKCICERmxSAqKgJeF+DyMlePdJ6lqQOG/ZVQHIekyOvpu5wIS81CZEomopNTj+uW6V+pDq21XgECF3rGNYiJYcCfI8lSGzZuwJtvv4mODh2SEpNx+WWXYe2332D5B++LcJXc+YZptYiIiBAPrq2tHSHqEMTGxmDBlT+B2+uCvbEa9bX1kgdDULBwd0xMSsT0adNFaue4uLh+sf+HdusDP/tYAEGvt2LPnnpERISIGN/ccfJ/s9mOri6n0CzExYX1etHn/rEXGbnXY/FZ04Uqm4XPYNWqVbj44ouPOoeBkj787MvP/nd7zPuYcEEKIFuNpcptvTUeAAgDf84kiBbt242iXRuRlhiK2OgwoQ2zWKxobG6H3eGA2WJDqCYEkyeNg0ajhUnfCKOup8epDM1tZpgcaqRkTkRKej5y8woEt+dUcx8d+FPwzxkBgOAfOY5UKzThce2h9rShoQGtra1obpa4PdwsMbwy1wf+pQswN5k9i8vtQmenHjoCBV0TtGogIkQJmcst8ikIgEAtgtsjzA58F70yoMtqR0uHHjanF6rweMRlpMKlNCI+XnJpl/IHSaU/AEFvsUEZl4z47HyExSUhIup7L7WRkudQr9MrQCDq4YMSxMEeUaKqqquw4sMV2LV7N5KTUjB+/Dh8vuoLbNq8WbBPU5KTEREZAcY0sHJCbWgUiIlgY/qZZ0Pf1gy7ySg0BmyfDz0nOxuzZs5CQUGBABaDyf8wVEH05/xhIyn+bQOs6itw13UXQqOWBnxPL4bu/TscSfG5zx/E/ywrhEyeApn7I9ylruh5HwGA0J8ne3Qdjv+S4oMoPrATupZqTJmQLjJ4UjPpcDrRoesUO5KUlGSoQ7QwGRph7Kg73JCuswv6ZhvisgqRPn4qsrLzDoPmwfUocNZgJBAACIOR2ug5h/MgN54s1EqT39bf8P80bxuNBug6mmDUNSJKHQytKhhMwkdegqC/8S8BAjUL/EvzgtUOp0yJLkZPjFEi4VBytv4CBHIbXCHhiM8bj/CEFMTEj13i8TE1CLGxsWJS615oL2KuhQ2bNqKqqkp8vtu2DXqDAZkZmYhPSEBQkAwet0fEPiBAiIqKFJ4NCYnxdCEV4IEAITI8ApMmTcL06dMFIZJAYjTvrIYNIDy3DnHZtyIvKxPTJ6QJGfQLIDBQ0nNeO7zOq6h0gFPxX9wra+/+vAIAYWiTHTk3DXVV2L1jE+DqxMSCdKiU3+dlCFaooFSFwqhvgLGjFmabG80dboTHZqOgqBwZixYj6pwFIpx4oIy8BAIAYeRlPtquaLVaYDIZ0N5aB6uhGXGhaqgV9JoDPLT/Od2QqxXwMtdCkBxulwe6TissThfikqMg00aiwyRDiDYI8YmSWbA3DQK9HIweGaIy8xCbloXIeJqbRy4z8XDIvVeAwNgFmzZtQk5OTq/sapoRDJ0GHCw+iL+/+CK+XbcO2lAtMrOkRd7DDFduN/QdOuHJQNTHrI30UKDZgSaFtNRUzJg+QwAEqoxEKuh+xrQeDkH0p83hBAiXXv4k3l19EPfcsFCQN2li+Oijj/DDH/7wqK4dlYvhaVsWFMHXQOYph1v5cXfSYgAg9OfJHrsOn0V9fR1amuqxb892WE2tyEqLQ0JcONSqECjVoWhvqcPB4jJAnYjJU89AVlQcYh5/AoqZM4GbbwbCw4fekUALA5ZAACAMWGQn5QnC88Bqhl7fjobaMqi8NsSHaRjrV9Ii8K4VwfAy6ZIcsNgcaDV1weUBwkJU0NlkCE2JQXauZCboCRB0VjvUSRlIzhuH8Nh4qENG92a3vw95wCTF7g2bzEb84amnsHz5+wIEUEMQGRmFwkmTReyDsrJSYUcKVkruiwQJkWERwnY0c+ZMAT60Wu1xgzH192aGu95nn32Cysp3kJXVt8viYPqwalUxHn74TbyyYheuvXgmUuIjhcqLhLneAuYcBRAe8soR4SyEXHY5PPgGm1Z8i+VXCYNZACAM5on0fg5Jox0dHTB26lBSfAB1tVWwWU0islpERDTyx01CwfjJiIqOgXrLFuA3vwHS04HHHmP8arTaOxGl0EIh0p4HykhIIAAQRkLKY+caNB1arGa0tTSgtvogUqI0gp/gtdohD1HC43SLOE3c5NodLnR2mNDRpkNQdBKistMRHOJAZLQWTp1RkBStHUbIo+KRNmEKIuKToBlD61l/ntqQAAIXsbLyMvx3xQps2rIZBfn5uPwHlwlTA+1GlZWVKC4uRnVNNWiaSE5KFsBg8uTJoPmCBJPRrjXoLkQu2JWV+4WXgj+L2y3DhAmnYV95EzbvqcLPf3SWAAg00RBA9Sy9ZnP8h1cBu+sseHAm5N7/4i7lngBA8OdT+r4tatAYJIxmIHrseA7lFgkPjxAuvKI8/bT0oafCf/4DnH023m3YgIVxUxCr7J2sOjy9PbVbDQCEU/v593X31ArauiyoriyBvrUG6bHhwi3S3eWkkz7cdhc62/Uw2NyIy52EpKxcBKuUIq5Pm64RrfWVcOosyMydhISMLISGh4uMxCdb6RUgEGVxMeTi1BtLtLsQWJcmCYvVKrwSwrRS/gFOokxqQWDAh8HvPtdHtnm8EM6jVdAiUYefC0ESiZm0Yd355HL85b4fQgY33njjDdx66639Awis9ZxXBTivgVcWC6/zPSzV1AY0CH5+WP1prqUFuPde4O23pdp//Stw4414tWMzLkmchQTVkbye/jQZqDM4CfgLIBwsr7Nv37jjndpVj9wsOceJkvbSSy89snjx4hvS0tL6jg88uK4HzhoBCdgddlgtZpSW7oXH1o7kyHB4rTbo20wITclBSt4EqDShCD7EJZDWNaf40DTBGAnkF42lje5AxNorQGADPlYn/+ciz9TDLS0th/1OucBTWPwQJJBD4Ms+KEJTut3iO+sF3Lr6/0je+GgLYqO0WDgrF88//zzu5ULTo/SqQfDVedobCpXrHri99YDivzlfP/Z5IJtj/+Xvl5pffgk88ACw7ZDn6TXXAI8/jlfl5QGA4BcB978RfwGE4vL6LgKEmlUP/zQAEPov/7FQk2udw2GHTtcOfXsD5A43Yhm3IDr2MDAYC/cxHH3sFSDQ1nrw4EGkpKQIAiHzMnzyyScgozsjIwMVFRWCT0AzAkEDVa2nn3668F31aQ2ogWAgGIZNvvDCC0et6+JwCHUobeo6Lbjrqffx6u+uHhxA4MWf98bA5XwEMvmnWV8//di5582Zeux0z8UtVSVlP69Z9fgHPP1UTvc8lGd3+NwDB4AdO4BvvxWx28GUzVdcgVedB3BJUkCD4BcZ97MRvwKETTveqvni4VsCAKGfwh9j1QgUGAHYF23xZNUKDOSx9IuDQGIW42WXl5dLWRjDwlBXVydSQjO5TGFhoUgNTa0BA1tQ28DfCTCeffbZo1wlB9LBU7Hu3U8ux08vn4OGiiIBrgakQfBVfsGbC6fzwdTv3rj8wtPztNnJ0UgMVyJRq4IiWIZmkwPNRgcadGbs2lXcUlFSdlvdqsc/CgAEP4w4RlVi+fBDIDdXAghyOV6tWR3QIPhBvANpIgAQBiKtsVuXG1Iu8OQA0eRNbzpqsGtqasR3arEZtp7B584//3yxVvk02yLaoV4vzOm9cb4GKhWugVwjqUnfu3evWDMZUp2bZ5PJJNZMXo85j9hPkZNILhcf9ouE/tFS+gUQ2Gku+AQKDHjEm+TN8gZ9GR8Z8MgXHpg3RxIXz2NkxKH4gvrm2p4ekDw+yr0iB/2Mv91ehtVbivHozy/u1bZ1TBND96v+zblA21r+jx9m2HILooOPARBKmisOFt9Wt/oPKwMAYdCP7egTfQBh0iTx21ABgrTD8Zm/iTmkRGcs3U2CfryDPpvq63o0ObKwbyPdp946GwAIIzEaTvw1uIGl5pvB9rhxZQpoar/37duHjz/+WGiy+RuJ8/n5+bjvvvvw3HPPob6+XoACJifkJpfkea5pPMaFnos1Tew+0MF1jWsdteYEAVwDSSZnZEeewzH/4osvik3xWWedhUceeUQk3GPivYsuugiffvop7r//frz22mtCM88YQGybayrXSoIa9nW0cPT6BAgbN24UcRD48fEJiITYcSIeTgS+775JyxeRisPFp57hb4O92bY2oKFBiopJbzFfzKbOTqC6GkhKAuLiREA7ARb44f/8mEwSgZwf3/Hu27ezLwAAIABJREFUw9hX/8QP7aN7wEyQV933Kp69Zwky05KOqtBvgAAg4u5vN+fnps65MNmOrIggJGqZ/6KnBiEAEIZlHPgZILS1tYm06gTqnJDGjx8vdkycXLiD8k1ufF99i7RvwSZBmJOPjxDLOr5dC99R1uv5rvoAie9997XJyZFmxtxcKRWubwPACXrDhg2iXU587C93bSdSVRsACMMyskddo59//jm2bNki3gcu8Fxk6UZPM/j7778vQtY/+eSTYsGPj4/Hd999h7PPPluACb47CxYsEC75BBTR0dE444wzhMmcY5uAgGOYZncG9COoYLusw/eR78A555yDefPmiY0xYwgRXLAP//rXv/DAAw8IQEDQwDDSBA5MTtXe3o6pU6eK6/HaPJcghskKB7tm+vvB9BlqmS87OQScVCg03jQREv3yqS7hy89JhROVwWAQdTlBEQ1xAqFgKTh+50Q2mBv+6COgtZUZIYGCAmDePOYoAJ5/HpgyBSgqAm65BWCobjoXxMQAHR0A58d33wV+9CPG7wZiYwGCCqsVoBeazSYBi4SE0amFYHSvF5Z9g8b6WvzhVzcMCSDkXPLYZtm8K+dMSwnBwvgupIcrAgDB329RX+35GSBs3bpVuA2fdtppSEpKEjsXTjicvJjohpMfJyqmXyc3iPV8Exgnr3Xr1on3lJNcSUmJ+Mt3k+0cOHBATFCcPPneUt3a2Ngo3mVOWr73nfW5a3rzzTcxe/ZsESefEx4nOW4qaF6kGzM1jFSjXnHFFQGAMFLj7RS+Dsc21ypqBzgGOfa4NhEkfPXVV1i8eDGeeeYZnHnmmSIR4JdffinU+zSD+1T7jArMNYxacr5TfMe4fvG9oLaA5/D94vtCPl5qaqr4y/bY1ty5c8XCT3DA9/GSSy4R1/7lL38JppEnT4/tUVvB92jPnj3CPM/rsL/UbqSlpeHKK68c1Ho5HI//mACBizx3KxQ4BUlExYmEkwEFQOFQmERT/H3GjBniJikAnsvfOFG98sorvWYl7HlDUnpoCQRwIf/0U6CkRFrQZ80CGJSO/C9+nztX4n9x0WdMmtdfB666StI4EDhERwNLlgBffAEsWgTs3AlUVQHjxwPbtwPz50sAYjQm1KMSubymFXc/8TY++OvPEaI+MlznQDQIdHOcd978OXvUE3BufBfOTnBBrQhoEIbjZTqqzWEACJyACAS4+NO+ycmNqlS+m3z3brzxRrEj4jt3zTXXiB0Sf+NuhpoGns+JkxMVAf+DDz4oJqfNmzeLepz8CBD4jtOsyPec16L6lZOmL3seAcLatWsFSOD1b7nlFgEiqErlu0+QwPkhABBGZKSd8hchcKZWjIs1d+M+cwHHM9cjqu8JsAmo58+fL94dRvHlAk5OADVdPH/nzp3iXGrOqQ3jcb5jXPQJAvidm2duivn+fPHFFwJM810j4GY2Sq6D3Dzz/eD7x7WR7yyvx3eT1yaoZn8IMrjpppaCGgUCcoKYE6l16z6YegUI3CHwJnx2FQqN6Iq2GB/CokaBN8TvPu8G3ihvkHV5gxQmH84LL7zQL4BALUBZmbTIT54sLeQEDcz8XFMjaQkYsZZahTlzgIoKyeywfDlQWgpcf71Ud+1aIDQUOOcciSdGMEEtA00WeXmAXg8UFgKnnTY6AQIfkNnahctufxIP3HUtzpqRd8QEMFCAQDfH8LhErLcm4oZMCwrCXD1IigETw7DMsH4GCL73kCnROeGQcEWVKlWXnLC4oHO3z90Ud/YkuPI9pDmAEye1A5999pnwRKJ5gLsiTpacxP773/+Kd9kXr4TvMic+fqfWgZMkJ0SqRKkdoNqWmkXudjhxMgAaScycPHkOba3cJS1ZsuSETnYBE8OwjOxAo+Dm1CreAa5zBMknY+kXSZGAgRMQdwa0ZfJDIMBJgxPQt99+K9QkRF6cVHysTE4sPtbmYBDR/v1AcbGkJZg6FRg3jomeJADAWDTMRJ2fDzCRpMEgmQzq64GsLAkI0NxQWwuQFMq65E9Rs0DgQd4Y2xytREe7w4lnX30fVq8Gv7vtYpHgylcGAxDo5qiXh2OXNRI3ZZjgcdi6eTEEAMKwvNx+BggE4rt37xa7EL5vfB+5W+LOhaHOeZxAgPZVLuIMac53lRoC7lRef/118f8999wjdjoECdztUMu3Y8cOAQS4m2K7BB7UCBB0EBRQk8B3nqYK1qMmkRMktQ4kX1FbSG0jCWG0AdM+S80iActg3n1/PY8AQPCXJAPtnIoS6BdA4I6AkwUnKO4yfAxlTiIkMhFAUD1DtSQBgS+/Ao9x4hqpCWLvXgkApKaO/UdJuda36PDYK5/i3hsuQF56/JABAt0cd1mi0OJQ4JxIndBSSG6OAYAwLCOGJJqcHAmN+sGLYSh9pIqUZgRqHkaTCnMo99SfcwMAoT9SCtQJSKB3CfQKELhToOqEthNqBfidKsN//vOfOO+88wQA4E6EvxE8UGPACYh2RzI9SWJkHe5oSOrgjmMwhSYBmgNIOoyPlxZ/7vjr6iQeglIpgYH+ZtI1m4GmJkmjQOIiC9smgZHcBx4nqXE0FIKrbdt3YnetBUFyGf7n8vmHgdZgNQgECPFaFd5qiIDc7cBEZQda9aYAQBiuB06A4IuDcIIBwnDd4mhvNwAQRvsTCvRvNEugT5KiL2wyd/8ECGvWrBHMZbIuaUagypHECgIE1iXjmbZR+nYSINAWSYLI0qVLhcpxMGXVKmD3bmnxJp+AvAOaG3icBEWGx6ZnAwEDvxNAkGvA48xx1NUFaDSSaYGAYONGYMMGKW7NggUSJ8HHeyAQOeMM6VyCBrbncEiAhGaMkU7rTZn/9bnncM7iK/HfNVvxi59chIQYKcnPUAACAyW5ZHL8tTQMCXIT4hzN2L2rOBAHYTAD9HjnBADC8SQ07L8HAMKwizhwgZNYAn0ma6KGgAs7zQgEALQ1EhTQZEDbIz8stHUSMNAVhLZLHqdric+H9LLLLusXQZFtkZDI3bzFIi32DGnPBZ+LdUqKpK1tbJRiHJx5pvSXhEWaFsg94ELe3i6dQ28FEhvJR2BXufi/8orEVSA/gcCCHg7ELgQQbIfAgVoEAg4CB8ZZ4PVuv10iR45kIUBgLoYb/+d2vPTeV5gxMRsXnFHoF4DAOAhFHV4sqw9FsrsVuqIdAYAwHA83ABCGQ6oDajMAEAYkrkDlgASOkECfXgz0PiD5iX6ZI1W4UHNBJrkwI0MKZa/TSbt4qv6TkyUQUVkpAQACBLpE0nRAoiI9H0hkfP99ySWSCz0BAH+n18Inn0heC6xHjQK/E1QQgNALgu2zHgEHTRhXXw18/rkEEHxBmkZKFvQYeeedd3Dl1dfg8w17UNfchFuuWITQENWQNQgiUJLRga0dQfimRQlZ2XfN+gPbA5EU/f1wAwDB3xIdcHsBgDBgkQVOCEjgsAT6RVIcKXlx8eeCzw8X8oMHJcBA4MDFm1iFQIFxD3iMHwZQ2rVLMidwsae3AmMeZGcDRuP37TGuArULbJfggNeghoH1qGGguSEzUzIrEFAQNNANct8+KWYCzx/JQtMN/dqzs3NQXteEd1etx+J5szF9QqZ/AILJgUajAxvalPiurqvVXb3nzrY3rnuP9xhI1uSnJx0ACH4S5OCbCQCEwcsucGZAAqMKIPR8HFTz+3gAXNh9oecJJLjDJ1jgMXIUuKD7Qi6TQ0DOAEEDF3Z+54e/sz4//O4Lt0ygwd98/AP+zu9sk0CCZMiRdoekFwPNDDTx6DrNWP7lZmg1wbj6gvloaW72fPbZZytuvfXWpQDqjzWMGSjpWOmeaw12rK6TmcuR8JpToXwAv44zBQCCnyaGAEDwkyAH30wAIAxedoEzAxLoFSBQvc0sWHRpPJGZpcgLYOAkLuYTJkg7f/IT9uyRtAM8Rm4CF/L+Fi74BA5c9H3OFb4wzDxGrsFIExJ76zt5H4zyxWA3docL3xWVYeeBIlw0/2yEBDn8BhAa9BZsK6q17FCOX2VLzP8UOsW/898umHj77bf/aenSpQtHykW1v89vTNVjHAQSXkhuCXgxnJBHFwAIJ0TsgYueJBLo04uBKm5fIKQTda/kINAswB0+yYbkB9BNcdMmyeRA8wNdzLnok1zIsMxnny2ZHKhdoMmBYIL8gbAwKdQyNRIEFwQWLNQWkH9AcDBtmqSNILeByaEYZIngZMaMkY+46CMp3nvvvUKbUd/Shve+/BaTcjIxKTPJfwBBZ8bO3aVtRZ3KP3ecdlkIELQt/+8T6gIAwQ+jPgAQ/CDEoTURAAhDk1/g7FNbAr0CBO5embGK0dHotXCiCjW0DKfMRZrJmei5wEV7xQopLgJdE8kfuPJK4OWXpUWcmzVGSmR9Eh1Zl+CAXguMzMi2CC7IPSD4YERGhnamdoIAhARIggaSG6nB4DV+9jPJq2IkS3eAwOsaTFZ8uXk7uuwGFGYVeLZtXucXE4MvUFJZZcOdDeff1wIvFkVvf7nqgan2awIahCE+8QBAGKIAh356ACAMXYaBFk5dCfQKEOiqyKhrTFhBT4aRKly8aVKg9wEXa5IRaVKgBoB/fTwAEgq52+ei/tprwP33A3fcAdx2m5QGmp4PBBLTp0uLPGMhUGPA36gdILGRWgm6Q/IvgQLDNDPoEq/P65HjwPPoPskcDxTDSPIQCNJWrlwpkt2wuNwelFRXY83WrYjTxnrMLdV+BQgVB4tvqzv/iTUIdp+nad5+7X1pZfm//9m1hQETwxBGfwAgDEF4/jk1ABD8I8dAK6emBEYVSbFnHAR6MdCLgMXHQaDGgB9+5y6fWoYLLpCCJ5FLcNZZwLp1kifCwoXA1q1Samd6QBAs+DJFUmtAcwNJjDxGMMA6BCdshyYNmh14Dl0mRzo1NEmKjEXB8NW+0tCqw8ffrIfXqfc4Oiwrlt79v0MmKR4Vavl5Y4xK13rTj/Jlv/rrZVlxEUrZqflm+OOuAwDBH1IcUhsBgDAk8QVOPsUlMKoAQs9nwV08F2vu8skx4GJOzwafGyRNAeQT0IRADQPrMpsj4yiQuEhNALUJXOh9QMB3DXINWHyeEdQO0ERB0MAPwQeP+cBDf8M5+2s8ESAwr0V3E4/F5sCug/vwzea1nqJdLSve/ecz/gcIXq8s+oZ/zMkqGPeXW5ecOeumCXIo5P66q1OsnQBAOOEPPAAQTvgjCHRgDEugz0iKDJnMdLAMpzzaCxd7Eg0ZAMlXqI2gOYFmBJIV/VXoAUEzRPdr+avt7u3Qk+Stt97CTTfd1O2evKioq8fyVZ95qyrKP3zlqWfuGqqbY6/JmqbOmjLlwuv/VHjp7QsLY2VYkh1ACIN6xgGAMCix+fOkAEDwpzQDbZ1qEugVIFAI3MGeaPvzmjXAjh3SLp7eCVT1cyf/wQcSsZAaAxII+TuPk7joK+QzEBxQc9CTYEhiIrkFNCl0P6f7w6fW4t//lrQR5Gky7DLrx8RImoae6b9ZnwGaSJBk5MWhlp4kRV97TW2dWL9zE6rrd6595m9F97TtWbbrWNc6XhyEvrI53nzr7X+afuXdCzc0ARdnyTAjPmBqGPAzDQCEAYvM3ycEAIK/JRpo71SSQK8AgYmWSkpKRDZHejKcqEJ+AZMrcdf+gx9I/ILycunDKIc+U8NLL0mmgh/9CHj4YWnxJnD4178kciI9G777Tkr2xL/Mx0CCI7UMNE3MmiV5MzAKI5M8ffaZ9Ds9HXhNmhy48NPMwdDLNF0sWgS8954EGu66SyI6sq80TdCkQe8Lek0QgPBD3gRBBK/HfjOvBK/pM33wOPNF0NuCpo2+AILL5cbBqmJ88u2qyr2llkeXPf2714cDINDN8Y47ly5cUQGUd3pxw3g50qVcUYHSXwkEAEJ/JTVs9QIAYdhEG2j4FJBAnxyEdevWIS8vD7lMVztChfwC7sKLi6XwxoxhwMWWGIULLr0XCAS4m+cCSxdGLt70TmA3L74Y+PRTKTYNF1xmb5w6VcrPQPIh//7nPxIw4ALP9qllWLxY+p2ggNoCxlngeeQ2sB8kKtKjgnyHtWul2AskRi5fLoEIagxodqCrJS0yBANc6Ln4M98DCZC8B2o1CFIIcA4ckM6jd8R110n3w4yV550n3SO9GJhB8wJeqEcpqW7AV1u/dgENr/3lja77yj9/2NjXIxqsBsEXB8HklOFfBzzwArh5ghzhyhEaDCfDZQYIEAgKP/nkYxQf2Ie0jGxccsmSI0iqJ4NIRvoeAgBhpCUeuN7JJIFRR1Lk4u0LmbxypbRYc+fNnbwvJ8Kbb0rxCrgQc3FftkwiJdLN8eOPJSBAMwBNEYyFwHPpEUENANskJ4HBj5jgiWYKmi+Yl4FmB3ILGFDpxhulxZ0kR55HTQQBxBtvSCYLaiveekvSJlBrwSBN7BOBCrNE8h4IOqjNIGhgPAVGaGSaaXpm0CTi+52aBGpJ2E+CHB9x0hesqueAq65r9G7e+bW3zVy3/c3PHP+37e2HvhougEAzU4PZi1f2e5ATIcM1+XIEH6IkdBiBr3cCDieQmQg06YDGdiAuEojSAgYz4AFw6elA6AjnshgVL+khgPBJjBX7jLXYqi/FOG0KJodn4PLkuQgJktAWn/P69euwYd3XOHPOZGSkJaK1XY8NW/YiLbMAF164eNAp00eFHE5gJwIA4QQKP3DpMS+BY2oQqD2gFiFQBiYBmhuoaaBWgeDj9NMHdj5rkwPS0dEhwl33LA0NDZ6Pv/zMVGeqt4SHKV/9zb9dj+Kbh1y9XWWoGgQfD2V3mxfvlXlwTqoc56bLQEZCTQtQVAWMSwdSYgGVAnj5E+DmC4GnlwG/ugYoqwfajcCZ3QikA5fGGDyDLjgk0eTn46/BpXiq7L9o6tKLG3kg/yr8Ju8yhMiVwpS3/L13MHl8GmZNm3TEjbo9HlTVNGL77lJMmToLZ545X6RWP9HcoLH0NAIAYSw9rUBfR5sE+gy17HK5EBwcHJiMTtAT64uDwO4QILyxbGWxBeWGcQXRuidetf+2+KNHD0WMOLLD/gIIbPXjKg92tAKX5chQGCNDbSuwejuQGA3MHCdpDl7pBhByUwCrHVg8G4iPOkGCPFGX7QYQdiUo8NNdf8OuzioEQ47Vs3+PbFckPnjvPUSEynH+wjMgl/dNAnU4XDhQUomK6mbMnjMPhYVToFSpRCj0QDm2BAIAITBCAhIYvASOCRA4AQUNJBPS4PsROLOHBI4HED5a+ennFe07S5LSUy5taPU8+RcrXsNDD1Gjf0TxJ0DweIGXizwwO4Gr8+Tw2oC6VqAwGwjTSJd9/Qvg2vOAv30A/OLKkY0+OaoGUTeA4MrLwY+2PYOVLduRFxSH6xvyEGZz4oLzzkCIWtXvblusNuzZVwqD0YHZc+chOycHKpUq8I4eQ4IBgNDv4RWoGJDAURLoFSBwcdqzZw9SU1OFJ0OgjLwE6Eny8ssv48477zzq4tQgMN3zf7745pPLLsu/MzIUO5963fr7kpV/bBxOgMC2LU4vnt3lRbIWWJQigwoyRGqB4EMZNaubgYwEoLwRoAbhlHWO7AYQutLT8WzpR3i2/lOcaYrD/fkXICUyetDaOb3BiJ17iyEPDsWMGbORnJIi0oIHNApHv6f+BQjb36z54pFbARk5uyxpL7300iOLFy++IS0t7ZQd6iM/O47+K1osFnAO53vJz1gto46kOFYF6e9+08Szfft2zKHbQ4/iAwj3Pv3O088+Pf9Gl9M7e+1WPLjsmUc+I32he3V/ahB87ZK0+Lc9HpyeJMN56XKEBPv77k+C9mw2OL74AqbERBTZbdjcsAevhe7DH/N/gFmhaQjyA3RqbG7D3v1liEtIxfgJkxAfnwCNRjNo4HESSP2oWwgAhJPxqY7ee2IeI2NnJ7Zu3YSaqgpMnDQFEycXIjIyakwEHewp2QBAGL1jDT4eSF8A4dZb7/rlAy/8alFitPchePHq35bZnylZ+UfTcAMEtr+z1Yv3yz24KEuOWQmyQDjmbkKni6qhpRmtKz/CXkMH4qZORE5uOl7v3IkroicjUeHfgBLlFTUoraxHZlYeMrNykJCQKCajAJkRCACEUTzBnURdo9ad0YdLSw6g+MAeTB6fibSUBBwsrUJFdSumzZiN9PQsxMTGCrPgWCl9mhh2796NpKQksSNhTgAWqkrIqqdbFoVhoxoVdPWLQGRkpAjuw+OcIFni4uKg1WphNBoFI5+FatCEhAQhJCYj6qSfIegKqD7M2GcbRGIszEXAthl6mMf5l4UBnBgK2mw2i7bJ+mdhn9kW2zYwIhIYS0Ep+sJrsw2qf1jYt6ioKLEQ8zhVQixMkMTrsh6PuxnAAMzzkCjkwbb5YSGRMz4+XvzlMZ+sWI995Llsg7Jh4b1QXpQdj/PaLGwjNDRUyIPHeT+UweReYjr7NAi33nrr0tNvfDDpf6/0PO50QfbWp54Hvnz5D1u7D77h0CD42l9ZKZEWr86XoSBKhqBTXMnKZ80x0NhQj7LSAwiHE/kT8qCJkFKmG9w2aOUqBMv8Ty70eL0oOlCCxmY98vLHIzEpBUlJyWNqMuo+bv31fwAg+EuSgXZ6kwDXo/b2NtTX1eDg/r1IjNOiIDcDwYrv1aoetwc79xxEp9mFSZOnIjE5Vcz3Cvq9j/LSJ0mRkx1vvqioCBWMUnRo8Z02bZoAAHv37kUzowyBcQfGYfz48WhrawOBBRdtFqrHMzIyUFZWhl27dolFj0KZP3++WCjZNt28WAg8ZjKWMiDabmAsZTCuQC4mTpwoFnvyInyL/vTp05GdnY3q6mrRtm+hPeeccwQYYNsHGI3o0KI8e/ZscW22Xctc0GCMhAwUFhYKIMC2fSBmypQp4rrsA+/Ht7iz3+RksO19h9JMclE//fTTBXDgsUoGQwDjJqTgtNNOEzJk262MtiSyUk5AQUGB+M62fWCFbaSlpQl58DgLQdTll19+1BDqDhCyz/216Ve3Ke4Pkruvb2vHw699aH69/PO/HUpFBQwnQPCRFk0O4McFMiSHykY0JfZoebcImDkuGxsbUFdTBZvVgHH5WYiLG/kopIy0uWt3EYxmB3LzxiEmNl6M81OVnxAACKPlLTm5+sH1kXN4c1MDKsoPQiF3YcK4bGhC+spd5EVXlwO795bAI1Mjr2AC4hOSxGZ5NDsC9JmL4eR6nCfX3XQHCEzWdMtDv71q4Wz3o1a7bMubK4If+fqNxyREh+EFCGzf4gT+vMuDxFDgqjwZTqX00AS8BMP1dbVoamqAQd+KjLQkpKclQTYMWoKBjGJqw7bv2AevXI2k5FTMnn00l2Ug7Y3VugGAMFaf3OjsN995boSbuBmoq4Kdm4G8dERFUkvYHxWqF51GC4oOlEMdGoX0jBwkJCYJjcJoBPEBgDA6x+Exe9UTIIy/+IG8h+/sesJqk03dUya/59nvKj/B8uXCLjKcGgRfJ5sswLO73JidKMMlWXIoD3k0jEHR9rvLNBHV1NSgtaUJel0r4mMjkJ2VLkxNo6HI5UHwet1obarHi68uw1/+9o9TkpMQAAijYTSeHH2g+VBsBhrrYDa2i4inifExg1rYPV4P2tv1KK9sgDYiBolJaUhJTRNm6dHEHQoAhDE4dnsChOnTb1UsuSXy3vFZnnva9Hjpr29p/1L68UPtIwUQeJ297V78c78HV+XLMTdRhmPE/RmDEv++yzSv1dbWCHOC0dABrUaJvNwsqAcQz2A4BSA0F0z2ZdbDpG9Ce+NBvPPxTjz30tujauIZThl0bzsAEEZK0ifvdaglrKmpRktTA0ydbUiIi0RqcgKCfb7dQ7h1mirojdTQ1AFteAziE1KQnpEhTPCjoQQAwmh4CgPsQ0+AwNMX3fHAub/4ieXxxla5e932oF++/vgft4wkQOC1Vtd68UmVFz+fIkN+ZH/UbQO88RNYnTyDpqYmlJeXostmhiJYhpysdISH+9cjYbC3yF2HTBaELosBZkMT9K1VMHbUweXqwsfrGgIAYf/+tX3JNu2CB35x2owpT0ybnKtOClchIUyJiBAF9FYnmk0ONBpsKC6v79q+KRAHYbDjcyyeR+5ZXW0t6uuqYbUYEK5VIT01Eeph8EIgV62+sRUdejNCQiMFkTEzM+uE52AJAIQxOHJ7AwiJF94f94db7U+Gad2Xl9cF/fbZZUn/bvnyPstImBh8IiRp8T8HPdivA+6fKUOU6uQACfQq2btnD5wOG4LkXsExOBEExL6GqlweDIfdCrOhGYb2GgEMnHYbPB4nPG5nACA8+uj9+wMAYQzOdCemyyS8NzY2orysBPYuE0JUcqExCA8LHfYOWa02ARRMFgeClRpkZGYjIyPzhHkjBQDCsD9y/1+gN4BAhswtj/zqtmsvNP+2pEbx3afrVf+38q9/LBlJgMA7tbmAF/Z6YHV58ZvpcijkMhgcQNTYcf09/MDIM9i6dQvsXVaolEGIjYlEetroiSwqkwfB7XTAYmyFSd+Azo4GOLpMcLud8Lic8HhcAYDw7rtbHw0ABP9PQidhi9QSdnS0Y+/ePXB0mRGilCMhPgoxMVGQ0tONXDF0GtHc0gGLzQVZkAr5BeOFl9tIc5wCAGHknrnfrtQHQMC0K35b+NhSw5+NFllhcaXi1o//af3UkJy2bsGieXOyk2OQGK5EolYl1ONUnTYbHWjQmbFrV0lzxcHi2+pW/2ElO5mfnz/l9ttv/9PSpUsXDoYw024Dnt7hRnaEDBEqmeAnPDpXPmbiJHAHsWXLFhj0HYgID0WYVoOszPRjJlTy28PtR0M0JXDxt5o6YDY0wqRvhr3LCLfLIYEDtysAEA7JMcBB6MeAClQR7uZbt24VpoQwjQJREVokJsRBdoLJVO0derR3dMJssUMWpMaU06YK18iR8njoEyCQjMWgPSRRcCfFSZOLBX3zGYiIv9NGw9/ZWQZRYpwBHqM9hWiMxxmMiH8Z9McX5IgDXqX5AAAgAElEQVQoiMdZh22zLbbNmAKMYcA2Wd93TdbldVmXH1/bDDhEH1KSSHyxCvidwY9Yh8d91+T5DKzEa3Ew+NrmNXk/PJ/X5HnsC9tmP1nXFxCK98EgSj73Nl9gJQZiYmAltsn6vvuhTBgfgfXYNu+LbbMuZcVjbJvtsW32m78z2BLPYX97i7rVF0DIPPsh9e0/0T1x+tSuW7btU7267FP1U7qu8BUjDRA43+xp8+Lmr9ywumTocnvxyZIgTIweWRQ+2HnvvffeRVJCLEI1KmRnZfqFjDTYvnQ/z+c62WXrhEnfCHNnq3CzcjvtAjC43fycPACB79JQc0wEAII/Rt7J2wbnbAKD1pYGxERpEaZVIzkpHkGjKFMqQwC2tnbAYDRDp7dAqQrF7DlzxRo1mA3cQJ5mrwCBi9a6detEoCHfAseFk4ULGxdECpaLry+CIRcyLqg85oukyPq+2PA+MMFjPkDBc3nc1zYnAwZiYpKogwcPigWUAmCgJAZ7KS0tFYGR2D7bmDdvnlhst23bJoJW+AIxnXvuuaJ/3333nQA5bIPAY8aMGSIYEgMdcfLh8fz8fBEUiQGO+OHCzOMM8kQwwKBFJKf5QMmiRYuEHDZv3iyC47AuGadz584V12JQJAITHs/KyhIBpBiYicGieK88zntkVEb2g8GY2Ffez8KFCwUg2LRpk+gn7//qq68+6nn2BRBY8cKf/eqHD9/R/ujBKkXQ7nLlTz5aG//cwkXzZo+kBsHs9GLptx68XeoVJocwJfDATDnumy4fYUXdQF6F7+s+9Lvf4Kc3XY/omFjIjkxtMbgGh3yWDJDJ4bRbYDI0wWJsg93aCReBgQAEkjnhZAEIfH/4DujaGuGGDIWF08QcMJhdUwAgDHnwnbQN7Ny5E6UlB5EYH4mwsBCkJDG64ehwU+5N6B6PFy0t7TCZu1BR04wFCxaKyMHDCRJ6BQgMjfz222+LhYsd8IEAX6d9Hep+vLdjrD+Q41xgGTCCC7xPe8E2iJR8IZu5sPsAhS9cZXt7++Ewybwe+yzZkzoOgxUuvPQxJQDgwu4Ln0yAwZ06d+2cmHxtM7Ijz/GFSfbda3JyshADg2X4gBBBEwEIv9NX1hfVkX1m+yKBh9F4uG0CD4Ih1vVpENgmQQM1IGyb9/n555/jjjvuGBBAKDjvV8m/W9r5j9QE+/mrN2t+884XibcsuPDM8SMJEJwe4LX9HjyxzYNaM4Rp4cxkGT69VA5N8JFaBN4/QSVlNVoiij38u/tw+eLTkZE/EwoFM7EdlUV7hCZNAgOZAAKWzlZYTG2w24xwOQiqyS+QOAYnC0DgOCCor6+pQEJ8GELVweC+pF1vhq7TgflnnY3MzMwByT4AEAYkrlOiMiMDb9myScQuiY2OQHxcNNQhzEs72osMQcEqGPXN+HDFCpy+4HJMmzZj5AECF+e33npLLMzczY9UaWlpEer+JUuWjNQlR+11CFQIFGhv6lmOpUHAQw/Jb5cZ7r/r2va7127XFL24PLlw7jlnxYwkQGB/jQ5gX7sXz+/14P0yL5JCgX+dF4SFh7LiEkyVlZVi145twjtAo43A9BmzRfjs4UTE/XngDz94Ly44axwioxORkD4Z6pCIEwASOF15YTG2w9zZItjUEjAgAdF1UgEEjnVq3hjLPj5Gi5ioUERHRYjdnEwGmMxWmC1dqKhqhN0djEWLLhCAvD8lABD6I6VTow61zGu//hoqJZCdmSqiH2q1w++Z4A/pyoMUYnPQVn9AeCrt2F2OmQuvx+zZcwelWetvn3rVIAQAQn/Fd2LqHRMgAJh65f1zn/11/fMWm2z8H19PU+ZPPTdopAECJUO3xzqzV8RHeH6PBwtSZXh6ngwN9fVYv+4bhCjcyMpIQnCQDFabA9X1bVCowjD39HlCC3SiCgHCovkFUKtDEKKJQFzKeGgjE+D1SEm7hr3I5MKEQGBANjUBlMQtOOSZcBIBBJretm/bivBQBZKTYhAVQd6NstecHp1GM6xWO/YdrERIaBRo7qOG7lglABCGfbSO+gtQM7xmzRpBQJw4LgcREWEID9Oe8I1IfwRHYOB2OdHeWAJdSzlspnYxHxSVtWPOeTdj9pzTRx4gUN2+YsUKofLtrkHg7p6cAqrMfaTA/txk9zq0I1J9T3WiL/GS7/eR1CDwHk3GTkRERiI0VDvQ2xj2+pTP8uXLce211w5MgwCAZMWf39j0yiVn6a587JV0lTb1ImQkxo6YF0P3DpNgQx5Cqd6LL4r1SGj4BoquNkwcn4UwbQhC1CrxogrCapcdbe0GlFU2Ij4xDXPmni6ImyNdugOEoKBgKEPCEB6VguiEHLGrH75Cc4JNmBMIDFxOkoAl0uHJBhCY6G3jxg3wOC3IzUpFdHQEVErFcSc7r9cDk8kKg8mM3XtLkZScgYXnnis0j72VAEAYvtE62lvmHLphwwbUVJVj8qQCxMdGIyws9LhjbDTcF12YWfSt1WhvLIbV1A7X4Y2CC/vLO04cQCDiov2bAu4OEIjWqdqj7dzHsqcNmUCCCz/t+nxReR5/Z33yA3won/+zrs82X1dXd8SzGE6AYLd3obGuGrrGajitRkRq1VApg2G0A9Fp+YiOSxJ2f31HO7psVsDjFDtbuUwmgs6YjZ2wWjhp2xESGobU/ELk5BYM21ii/J5//nncc889AwYIPGHh/9z70xcfrPz9+p0RaQf0VyEmMgVJI+Tm2LPDBJOrv/oKpRVlmDdjPOKiw6EWu8SjrX5ut0eMn5r6FhSX1WFy4TRMnzFDcDZGqvQECPJgJRQKNUK00YhKyIZKHSbyHPir0DuBBEObsQ1dNhPcLrtwUxSg4BDX4GQBCNRO0oW0sb4KEwqykJwUB2U/gEFPWRNQWqw2NDV3YO/+MoyfMBnz5p15lJ94ACD4a5SOnXY4Nnbs2IHdu3egIC8TmRmpCNOGjhqO07EkKeZEmRxmQ4swJzDGCTUGEtfIfXg+OKEAgbvrDz/8UCz6PoDAhZ07f9rESf7jAsaFnn/pKsjf+T/JeNz18VxGo+Lx9PR0sUOkVwSPsw1fuszuwhpOgNBpNKCmrhihwQ4EmyxQK4IEKcXrBRwuN3SdZjBVLpNoeD1edDkcUCmViAwLhcfjhtVmh9PFnZwHCqUCXvLb1VHInTwDsbH9s4cO5BXjokqAcO+99w4KIGRf/Ov0P97d8N6EbPPsl7+4GDFx05AarRmROAi+DvOZk3S2Yf1azJw6HlkZyVAEB/cLwVPOLrcL+4pKBWP3rHPOxYQJE0ckh3pvACEoSIGgYAUUqlBoIxIRHpUEeRATIg1Bo8C8CfTkserRZekUcQykiUAiIJ5MAIFzA9Oy79rxHcblZ6AgL1twDAbjmdD9heA4sdpsKKuoRX1TO+bPPwc5OdT0SCUAEAYy64z9uvR027B+nQhwNGlCgQiFPlrIz8eUrkyGIHkwbNZOtDXsh0nXKDSIh+cDsVEYJQCBKJ9eDNz5+wACNQMEAtzdUeD8nx+CCb7kvrgC1CgQIHCB4zn0AqD3AHfnJInQRXLcuHECPFCjMGIAoVOPuuZyxKVqYNOZIOswIkTEr5d6wIne4XChXW+E1U6/cg88Xi9kXkAbqoZGrYLN7hApPe2H3DuDgoNhs7sQlpCNCVNn+TUcJuX8zjvv4IYbbhgUQGBH//cPtz97/09rb353dUGYXXUVEiOjRgwgkCn87rK3MT4vDXNmnSbGyGDIh3wOBJPrNm5DY0snfnjl1SKi2FAXlmO9rL0DhGDIg5QCJAQFK4UvsjYiQWgVZPSZHghQ4KDjeLOZBPnwcOyCw14JJw9A4LMrLyvD6tWrkJYSh9kzpx4iH/qLMy4DzUAORxd27fwONnc4Lr300gBAGPtr/YDugK7oX3+9BvC6MGfWNMTGRA/rHDGgzh2nsjwoWGimdU2l0LdVH9YYkPN02FtptAGE43kxEATQXY/mBn6GtJM6JMDh1CDo9B2oqNkPh8cMXUcnJhfmw60zQmWzQ9UtK5cIgmTrgk5vFCQ7t8ctNAsERfHR4fB6ZcL+SZ9UuVwGl9sNp9MFuycI6eOnIS0jB7UVB9HeWIPY5Exk5k2A2s/q8eORFH3jMf3835730XNFLzqdyFm57SZkphQgJSJk2CIpUnYEfW+88TrCQ4Nw6SXnCxONv4rD6cJHH38Jl1eB6667QcSfGAzoOF5/fACBYODCH/4C119zMX56/RVQKNWHAIIC1CiQQKRUaaDRxkKlCRfJko7LUZDJ4LCZ0WXRi5ffB06PdFsc+wCBY4Hv80cffQi1UobzFs6HRuNfM5H8kLxb6vahsXIHGttsCEmYjR/84AcBgHC8QX6S/O6Lelq0bxfmzZ2FzMz0MXNnNC2SU2PoqIOuuUzEOemuJRjVAKGnBmEkpD7cAKG8Zj869M1Yv2Y7JhUWYOqsCQgJksGrM0Ht9SJI/n3EbU5wnWYrdAYjbDa78EcniUoTooJWEwKj2YpOs0WozHkewQSBhDxIjtT4GIRq1DCZbdB3AQnZE5GYkg5qHAayoFGLQI1Lz9JfgECy4s9uqF53w5K6mX//4Bykpi9BamSY3wECX1LyVrgYGA2tuPSS86DxMyjqLgOTyYL/rlyFqOgE/PjH1/ZJUBvsmO2uQXj+lfex/KM1mDl1Ev7vV7cjJSUJSpX6MEDwAYVghQpKtVbwE6hhkFRT35sfOJ44AdjMesEx6Floxvo+rsHYBQjUGFCruGrV59C1t2LR+WeL3Zz/iiRXTq6Gtlo0Ve+AzayDy2VHq94TAAj+E/SYaInzzrbvNkHudWHmzJliwR315dCmiWTkjpZy2K1GeKkh6KElGLUAgS/4ypUiLP9JEweBHITK2gOob6rGxm92IkSlQWJyAqbOGo+YuHB4LTYorF1QMewxTQ+HRlmX3QG90QyDUQrQRK0BCXahIWpRj9oGape1IWoRt1/ZSySujk4zbHIt0nInITImVqhEjwcUaLN9+eWXceeddw4aIPDEeTfct/mV3++ZU1ITjvrOu5GdmAJlsNwvuRh84ba//fYbVFWUYuHZc5GQEHvcexvSC3xIPc9FYv36TQgOicNFF100pCZ7ntwdIMjlQVizfieefu4NhIWG4o5bfoyF55wBbVgElErV90AhWNIo+LgKJDaK/4MUQn1oM3cI1WFfpggvPNLuYQxzEAgO1q79GvuL9mLBWWf4eTd3CBjIg2A1toJaA0tnm0hnzVDTAYBw7FeAAJVzCucwbjpGOumPX1/Qbo0RIGxctxoWQz3mzV8IbUT88bV4w9WZ47YrrSpMqKZrqYDVpDtsQhhTAIFC/+yzz0RkwJMlUFKnUY+K2gNoaqnD1g17oAhWITQ0DJFREdCGq5GZk4SIqFDIbXYouxwQ+3a3R4TaJQ+BLni6TpMgRCnkTJbjhsPuQHJ8NNRhYVCrj52u0O3xoL3ThuCIJCRl5iEsPPKYNrKhkhR9YzVr8UObH77j4JwLzmjE88uvw6zJC6BWBg8JIHBc2GxW7Nu3D/v27MJpU8YhJytjeHMWCGAgReYkoa+2bCMOHChDbM65uPjii4/7ag6kQk8OgixIgYrqRvz5b/8W3hULzz4D1//kCqSmJEOpVENFjUI3gEBTgw8ABimUwmXRYTMed3fzvRZhbGoQHHY7/vDEI/jF3T+TtCgD4WX09YAO7bZk1MA4bGhvKhZ5KEjgcjkdAYBwnIEthbO3iaBrmzauh8lkxIyZs5GTkydc1sc6UPABhI7G/ThtyiTEJuVDGxEnNEyjo0iggBsAt8MOQ0etALgSCfl7jsGYAgjUIHzwwQeCkJiSMnLpbRkXgYTGCy64wO/PVm/QoaxqH1p1jfhu/V6o1RpBwiTR0mDohNHYidiESEwszEVMXCTUXhnMNQ1QOdwIlskQDBm6zCbo2lsQIpcjIlwLdXwClDHR/d4xu11uMDtXlyIK+VPnIDwiss/7JNp/8cUXsXTp0iFpEJjueeFcy5zH79iIlWtzERX9S4RrwwYFEHymhOrqKuzZvQvJiTGYNLFgWF0QfRQG7nycdita64rQ3lQifILrW2zDDhDcHjlcHi8iwsNgs3tQWW/AlKnTYTSaUFtVCbnMI3bKMTGx0IQyXLTiiMkpSKGSyIj9AAhiGjnkwTAWvRgIEB5/9P/wk6vOR1L6ZBEWdkhFcDk98DgdMOgaYOyog9unMQgAhOOKlpuM9vY2FO3bg5rKEkybkg+tRo09+8vhhhrTps9CckrqqApzftyb6lGhO0AYn58GlTocsUm50EYmgdq/E1mk+C5eoSUQydUMLSISqpfvuMidMoYBwrvvvov6+vpeQ/0Ol9BJOqMdiW5K3KVykSQ5kN4QQ2WtEyCUVu1FU0s9tq7fA41Gi+joKISGamDQdwpynd5ggNlsQkZ2Ci698nw4qxsRZnUKcCCKswsylw2qmBiExMdDFty/xB50xXI6HDB3mmA3WuHSxCB/znyER8f0KUre/+rVq7F48eIhA4QJEzPmPHrzOwgLMWLFN/diyripaDH3P90zF2e6r5IpfPBAEYKDvDhtykRERjAE8fAV6QVzizgU+tYq6JpKYLebpbTGLseIAIQ2YxC2bNmIs+fNQkJiAqLi0qFQhyBYEYKysio8/cxfYDYasPjC81A4eRJiYmOFXDhm2X9yE+ip4KCd8Tj2US+88NJ7Zoy6OQqA8Mj9uOzC6QiPTkZc0jhB7BRkrAEMExr4BDCge7GpDSZ9g9Ae0FRD/oYwKQQAwjHnjtaWFtTWVmHfnh3Iy05Cfm7WEfXbO3TYd6AS2vA4TJxUiPiERJGTZqjz7AAes1+q9gQIcnkwFCoNouOzERaZhGAFdcFH8oH8cuFjNSKTCVd5xkqxWfQw6ZsOuTBLwGDMAwS6JH777bfIy8sTn5EsjNLIrIrFxcUi0yF3+AUFBSIrIr0mBjuAjSYDyqqLUF1Tge82ShqE2NgY0T53gy0trUKLoNfpYHfY8dOfXY1IiwORdjeC6KOqDEawIgiqSC2C+0nA48LqcrpgM1thNZgQ5PYimKmvNVHImXXmMQHCsWTe1NTk+frrrz9Zs2bN/a+99lpjH3WdDGKYu+SxjfPOmjVnZvoK3HzJVrz0/rkYl3srdF1eNBsdaNCZsWtXSXPFweLb6lb/QRBP8vPzp9x+++1/Wrp06UIucnwOu3bugL3LgsmTxiEpMaHfWpPBjR1pgeCCYO5shq6pDF1Wg7Az+8DBSAGE6KTxuO/XDwgNwiUXnYOM9AykpOdDGRIKj1uGr9asxVNP/RFNza2IjIzA9GlTMXvWDMydMxNpaSlQh2hhFxqEzn6FaqZKWJCTxmAchMMA4YKpUCg1UIdGITo+U/ylCaZfxQvJfNdlhsXYAofdInJQEBgEAMKxJcgdKUF8R3sLdmzfirgoDaZPndTnu8qxVt/YjNLyehG5NDsnHwmJiUKjcDyOVL+e5QhU6g0g0G2QJi5GPw2PSYVSHQoZaHIYCEwdeOcpM8qUIMDRZTkc5EgCBIdIyCcDQGAsA6bCZIAj+pyPVPHFzP77y//EzgPlQLBaRJRLjNLgxz/8Aa6/7ieCEzGYwUuAQC+G6toKbN9cBLUyBDGxMUI93tlpRHNzCyxmE9rbO+ByOXHLndcgvNOKCIcHqggtVKEhUISoBEnxeIWDRAADiw02oxkyhwvB3Wxi/QEIBBdME90ze53bA9Q3Gb27D9TvD9FEfpKYkGzsMAPBckCt5OQKdLmAuDCUpURjzfTrHvtswaJ5c1TOYjxw/euoqFWhqOpxaCITsLU9SICjsqIDLfUECKse+ag3gLD6yy9gNnZg4YJzhM1yuF4z386Riz+Rt76tSpD7RFpjF+3NkuZgJDUIiRmF+Nfrb2DL1l1iJ3zG6dMxc/ppSElOFjwSt8eLmpp6rP12E3bs3oea2jp0Goy48fof4/rrrkZ0TLwgJXVZ+wcQKH+fFmGsBUoiQHjskfux+JyJqGvoQE5ONqKiYhEaEY/QiDgEK6gJ9BF0jxxFYmJ1uwUQoKycDDXtOsQzYMjpAEDoc9qh7JoJDDrasb9oD2RuG86YO73fnCBqOCuq61Df2I7k1EykpKYjKSlZcBQGM9ceb3705+99AQQShgkUGKckIjoV6pBwiRczHOWQgoIaA2o7OXcRIIjEah73IY3BSQQQfCplLp5MeTwShfbt9evX4/ePPYlqUxDSZl4AbXw6XF1WtBzcgs6D63DPHTfhxhsl//eBFpIUS6v3oa6hGjs374daHYq4+FgoFUrBQaBKjtyL1jYyo53433tvhKbdiHC7G9HTCgCnG15bF2QeL2RyKQRzb4WqJWeXHWaDCQ6LTZgnetbtDSBwumyzelFpBLLCZYgMsuOll17C3XfffcRlLF3A7nKgqgnISAQ0KqCkDlArgKAgQOnbqHmwMliGe+94/LF/EyBo5MCSGX/C3MkV+OMbNyEz7wf4bWkylG4bXG31Bp3V83drcuEnkDkbMpf9IOmuqy543KdBWLP6c3Q0l+Oss88WwYGGy7ZHAECXH7OhCZbDscclQHCiAEJ0QjaMJhO2bd+NDz/+EvRqodvegrPPQEFeHlJSkhGqpWujArYuB0pLy7H/YAny83IwpXCS8HbgPVED0t9kT+T2se6YBAgP34/5s7Pw8usfo3DyeJw9fy5SU1KhCtEiRBslMmNyomaseYlI5hXPlyYDag3Es6Z9VgBBag2k3wIAofcZj8HnWltbUF1ZBnNnO2bNnAJtqGag06Oo73Q4UVJeBZ3BiuTUDCQkJiMlJdXvbsSD6lwfJx0PIMjlCiiUKmjD46EJjxORUKmF9hd/VryrXo8Yn9QUEthKY/gQv+BkBQg0MxAc9OaH788H7GuL4Zuff/4FvPTeKoy/6DaEJX1vM6MWoezrt5DobsKzTz2OqVOnDrgLBAgllXtRXVuJnVsPIFQTiviEeAEQOg2daO9oR6fBgNbWNjicTtx53/cAIXz2BCi1GsjNXbDrDJC5GIdfhuCgbtEBvV64nS64bHbYTVY4uxx95hfvDhDMDqDS6EWpAdjW4sH6BuCBWXIsSJRyMTDUMmMs2N2A2wtYbMD+SsBsAU7LAxKjgS0HAGUwYDBLf8NDgQPN2PBWrfuFfV8ve3Dq9AkTYiPDEGn+N568eTk+X5+N9c1P4VVDLszuYN4Kzd8WAEXweNZF7X+r+reTbT+658475nMHQYDQULkDM6dPRkxCjshsSIQ+1LfMtzthHgLGCGBCEouxTcpe6NMUuE8sQOCul4Qno9mCiopqfPrFGlRV14mQ23m52Zg7eyZyc3OQlpYq0qP3LFS107zQZTH0O3+D2Ft7vGMSIJCDcNGCSdi2uxRffbMNebk5gp+RmpKCsPAIYR9mcCnKlaCKmeoInkhAPczROKSmDQCEvqc5ErobGurR2FALfUcLJozLEcmIuHkZarHaulBcUoEuhxfxCSlITEoRmluFop9moqF2YADn9wQIMlmwcCOXC68ihvKmq7F0jEnXNGFxUKm1CFaGHAIKA9eH+uYtggCOXxKmHQ6L+F+YE0QOlZMYIJD9yrwJTLk7Uml3GZr30ceewPpKMyZe+vOjVFutxVvRuH4Z/vX8H7FgwYIBDCGpqsnSifLq/SgpK8b2TfsQFhaOpKQEBAcrhImBbF9yEDo69KCJ5c57b0C0qQsqsx2K/DQoEqJE7nCP0Qy32QaX2QY59f0MsCSDAAbUGLisRI/HDtZhDomCasI81HqjsbsN2NLsxdZmL9roJg/gnmlyzIp1YeUXa3Dx4kVQyGWwOJn9AQhhLg+jDLEqGQqzJTCwseh7gOB0ATHhgEGOA38+4Plg17q11+XmpmfGRmqg7diDJ678HSK0Zlz70iPYErYERgIEeDmaGyAL2g1gd2Tx+4Zfjzf+8Nd33nJ6d4AwZWIW1JoIRMSkCbWxUimpIAf+ivGJ0F7nFi8XVco0JdDezJesuxnBfYIBgphcFCqoNVGwObxobGrGzl37sOW7Heg8lL8jNydL8A7S01MRGxMjxlVIiJRdUAIIRhE5sb8aBJ5HxNY9qtpYSNbk4yBcct4UdBgc6DSaUFWvx2nTpiNMEyJU4DRbpqamiY0HvRycDmvv5hfuytzUHgQ0CN0nO27campq0NrSCIO+FanJ8UhNSey3OWEgEyfTa5eWVUEmVyIsPAYzZvo3nPxA+tJX3Z4AoaqmGdV1LcjNzkBWZhqUqpDDAEEAhiAFVCFhUGsiBVgNDlYJIMH3rb9FaPecDjidNjF/Cc6QALWHzAknO0A4ESRFEhMfe+IP+KZUj4lLfi4eWvfScmAz6te9jTf+/icsXLiwv8/ycD2zxYi65jLoDO3YtnEfrFYb4hPiwHCtzD3BKI40MXR06MDMj3fddxPSHIBb1wmkJyIoKQohmhARKVHm9kDe5YDLZIW9zQC30Qyv3QWP0CwcvxAguPLm4WtDNFbVeFGsl8ABNQUsP86X4cwUGTrMDmhDlFCLTT6gCgIigmWIk8mQEQGkHsoRVVwLMFq01Q5EaYG0eMDoxFerq/HAfb/+8wtnLpg1PT8lElqZEzGKp3Dt4k144f0FeLblKdihgFvX1Nlp9bxoiyt4A2Zlef7bBRO7kxR9GgQCBLLyFcoQoa4TuQhCmZgrqN8vmOAZgBwNu1Ap262dcNjN3UwIow8giKBHTNSkDIVXrkZ7hwG1dQ0o2n8A1dV1YiE0m60CQE6cME5oFqZOLURqSpJQaToIgAYKEEhWPLSTHivpnn0A4eJzp6Ck2oymxhqcOX8+xk0oREVlHZYte0+A8NycHMyYMRWFhVMQJCPTuxftiiArSqaGgIkBwuWc7sVNjQ2wmA2ICAtBVmbqsJqACf7JGamvq8b7H6zEXfc8gOhjeF4df+bzf42eAGHj1iK8+d4XiIqKwGUXn4sZ0wsRHsaETQQHEkDw8RO4wWH0UxFCXSEBBWmm7b0QCKSy+YwAACAASURBVHDeIqh12W2CY+ArNDUIgCDIiCe5BuFEAATa0p599ln866NvMGHJzxGWkHFY+ERp5WveQlqQDn968jFMmTJlwCPN1mVFY0sNulxGmI1WNNSRIe2EzdoFvV4CCGaTCS2tVHHbce+DtyG1ywNnmwHe9ARos5MESuSkTZBAXoHc6YatvB6dFQ0IOU6gpO4dpokhc8aZsKhjUGbwik+pHgIolOiBe6fJcNvk3gN9SCGdpUi+vqCNdqc0rPlbkPzwcXok3Ju7ROIgZCfHIDFciaqyL/Cbm/6M6sYI/PL9ZxAemYyGoj3NtQf39+nF4AMIqUlR8CAI8XFxwuefPseh4XFQasJF8qLD3ITewLjwaf/e3kyTgtAYOB1wu7uTEEcpQBCTi1K4TQUrQ0VMBJPZCr3egLLycpRXVMFstogkZW1tOvz4R1fggvP/n73vgG+zPLc/2lu2LFnee2Q4trM32QkQCLPQtGWWDaV/oO1tS1vKanvLhULZpS20UEYZIYE0g+w9ndhJnHjvIS/tPf+/55VlO7Zsy44Tktz79ucmxJ8+Sd94v/Oe5zznLGYTEFHoTiu5pkUGIHuvFVqVBNseLyUG4carZ8Dui8JHH3/MJuY5s2dj/PhxaGltw569B9DcosPUKQW46aYbIZcKu3Mpwh0bul48/6sBAnUmNDY2or6+Fk6HFRIhD+lpSVAo5EM+zEY8QfZ7ASWVUtmHWvSMnXX4ZM0W/Ndv/gy1hpwKL57RHyAYTXZs230UX23czbQTVy6dj6tWLER8nJaxxX0BAoEfxhBSnLtIFmQTWNosnwWwhcyWgsDAyY4HgQMCreGyh3o7kC5zgED+A+Xl5ay8EBs79lHG/S+vUPfCn197A6ebrMiafTNUmXngyiQIeLww1ZfjzOa/YlKaCs8++wxmz5494noYTbRWmwWdBh3cXiv88MJhd6OhRoeG+kYGEKiuxzQILhd+8cwjSLR74W43MICgzE5iT2G2+vUSUvSD4/bB29AG8wgBglkUhbRpc6HRkuAviFjNbqDaFEC1CciNBiZG+3Do0CHMmzdvwN1os9kCHR0dtVFRUftUKhVpB8KNEgBrsq97fl1fgGDp6sSM8T/GtImteP7dH8DEuwklJyqHbHMMAQQEPNh3+BTG52Zh4fxZUMWoWS2ZKDuRhEAC1faCSvWzW4+JMXAGe9m79QVUXqCHns/juaQAQjDNUQA+n1YdUhYV7iKg6XCwMlVzSzOKjpVgzqyZWLJoPgMILrsRdmsXKxmMeHT7AVxKAOGmq6dDooxHbUMrtu3Yi9raeqZBmDp1MrKzsxnoIX+TjMxs8Lk+lqUQvvwSpG1D7Y3DtTm26gOAZjZWXruq5zB/sWZd0R/+/ukztd/5aC+8sOPHcIN5o/aOlKt+/fjk6YW/n5qfLU5QihCnECJKIoDB7mGGYi1GB8qqmpxH9x/9V/2mZ+/v8/qUt99++9mVK1femZKScu7F/z6fiXUm6FpRWVHB2otFQh6SkuIQo1KNaQBa/+uRHoz0ALSa2mDuaoKxvRYOuxEbd5fjyWffvugBAs09docbx05U4Mv1O9DYpMOUwjxcvWIhZs6YArlc0cMghABCX2aBMQ19AAIdD5q7qAxK/hvDepn0tDNexhoEuoFpJUQixfOdpU1gZOfOnXjuD/+DRqsAiYVLoIhOBsdPxXYO69vzeB0gK01r3RFMH5eCn//sJygoKBiRTajdZoOuqY494DkiIdwBG3gCqoH7UV/bipMlp1FXW4+uTj3sdhsDCAk2DzwdBiAtgTEIAT8X4PmDdXeauO1ueOp0MNeMjEEwCaOgl6Vi1rSJUCnDK47puLz55pt4/PHHBzxTdDqdf/fu3ZvKy8uf+s1vftM6yEPHSbgj+7rn9/QFCCoRDzV1L+H//eBz7D6Wg/e2P4mGJn1EACFeG4Vd+46j+GQlo9FXXrkYOTnZEImDtTxC4UKxlNWW6SZjjAJZI9sNPUY3CJkF9VDIlyZA6AlpYqsOIRMt0g89efbuO4joKDmmFOQx9T4xCHZL1ygYBJZDzrQaJOQMUpdUygoFu3T/W/e/0zY90dHe7m19Hny9uxmvvv3ReW9Z6+uDQGBRKIlGl8mOI8dOobj4BCwWK/MyYZqNGdMwMW8S/F4HOzaD6TOYRW23YHU4gNDQGUBJYCY4+avQSVc/gLLals6SzsBxjyKpHhz/X/Go4Ag4FzdAoHTc0tJS2KwmSCUCxGk1iNWoz+tcTA9C6sAiYyqzvomBAxaC5XGwa2rj7opLBiAwTUGAi8raJmzcsg9btx9gLberb70BBZPGIZG0ZwIhm6POKj2wOYuY226sxx5BIYBgjAzbs3bdbt8DFsB0GbY5UsshdRWQsxb1wp7PUVtbi//65a9w4FQLMud+B9E5eezt/A4X/B5PsKVQIoE/4IWxqRwNez/F8hkT8NwzT0dkA02rNoO+E51NVeC6Lezke/lSGB0uiEVeJKXGwgkudG0GlJfW4Ojh46ivb8TPnnoQCWYXPF0myCbngisWwsvlwuPhQSzjg8PzsxKDvbJxxACBNAgmeSoEUiWmTkyFTDKwP3esshjIarkvQIiXi3C89Ajuvu4JCIV+/PLtB1HRnBYRQCANgs3uxtGSChw8cgoFhVMwZ/Y0xMXGIDoqmtXy+EKq5QnZjUU3G1F6Fn0T/OFcBFl7ED3ULp0SQ4hBCAEEUkkTYAzWa3kAl4e6+gYIBTzExWoYu0IAiQEEXzDeeaSjV4vw7QMEX8APLocbtlJ7tlGSBHyq8Yrk8Ph56NRbUV1bj9raGjQ0NDLf/BtvuB4CHj2UOocUcPZqEYZ2Umzp8qNNMhOB/OvxflkApV19pGeBQA38/ofwhGjLxcog0LxLx+fM6VKoohWIVaugpVbsnt7lkV45EWzffS6ddjPMhmZWUmDeIz2dRK5LCiAwq3N60HdrDjo6TSivaYVEFo309DTWokysjEjER8GkvO6yQ7c2ocejo/e40TxG9t6kk4l0BFMYL2MGgejSI0eOMJMeUh2fr0Gr5PXr1+NHP/k1EqfeiPjJV4DPamsDR8DtgYd8CqqPQHd4Df7y5xewYsWKIdswvR4PWppq4dQ3QeB1QCoWBFsG3V4YrE506PWIj1MhPiUekMtgdXuha+3C6VNVmLNwMiT1bfDozYialw+uUACOyweb1Q1BlAQ8MQ9+pwvOquYRAwTSIMTnz8Le0lbkZSUgNz2OtUz2HXRs3n//fdx3330DDkakcc/0wnAAwWK1IeB7BDcuKcGHm2bizTXX63RNTcNqEMbnpqOt0wSFXIoARwqpUoNYrRb79x9EV2cHZs2chtzccd32pkEcTvU9WpGEPafdroGkVu/1Obi4NQgDAcJAu22qGxNzwuNyWemFOhhoZTZyDUL3UaNVCTFWFwGDUGNrw/uNO5Am1WKhOg/pUm0P5T0AIAjIkloMgUgCgVAOP7iM/i0+cQoOuxULrpgHiZDLWlsprGawEezoIC3C8FbL4rhZWHDVDdjdHMDfSv3Y0RSAg3YdCJSCwz2EQOA0gENw8Uvwc1gJLFwsJQayMy86ephZc8+YMR3iMFHvYzYXMx8XDqupW4062ExtsBNj0F1j7+0kusQAAl+M6rp2cLgBpKcmQSKheYoE1TFBESKHi4b6Vjz73O+gilbiquVLMGfOTEik8rD+LqzkQmmsIwAIxJJe1gDhQokU9Xo9/vTyy3j7n1+h8LrHIcvIYOKQsA8Tvx+uFh1I0l+85gXce/MK/PQnT0ClUoXd3mG3o76iBBKOA1y/G4JQKhztn8NhSYykPPf4vJBIxZArFeDLJQwomJweSJViOI9VBAHC/HwIFDLw3D64HG6mi/ALuACXA2f16AACWS2bPTx8veskblo6GdoYBauohAaVecg2NVxY1rkCBOp42Hn4Azz9wAuoa4nGXb/5nq6hhT8sQCBh2ebth9Cm0zEBXl7BFMiUGqZQf+qpp6DXG5CYkIB582bjxuuvZfbEpEkwdjaEn9e6TUaY41iPU+KFAQjHTTXocJmRp0xFgiiarYpDo3+aYzC6OShS7A8QhkuNIwc3BzEI5o7RaRDYh+rT0TCKEsO63U244blfMFZHRimmvGALZt/Bo9/xRJDwBrJZ9DslXwohl49iUw3uPPYqzF4HksQxKFCmY2lsPhZp8qEICINZDMxqOZhXQQCBOl+CvgdBgyQqNThdTsTGxiHgc8Jmah8WPAV7zocHCJK4WbjhhhuYmyiJfl/Y3e7+rJrv9QoVLwPcreBw1OBwMsDxpyCAdvhxIGnXn+ZNzcv61dSCLNFYaxDI2Iyam0L2BKFOJRIYU0syOaBKxcFqKpUWDh3YBX7AiinTZkIio6yWyNvvIgEPQbaLy1gB0hkQMAj5UJBRGd2HZ7UZ0zG/hEoMApEcx081oLyyGknxKkybnM8WMeTdQq6KdP9S2uqfX30L//3ff2DzVXp6CqZOmYKZM6Zh6pRCZjUdGr0AwRDJ4Q0h+qAb6uVaYrhQAEGn0+G3zzyH/+w5jUkrH4EoIW7Ik+BsbAE/WonTm9/B3KwovPTCfyM+Pn7AazweNw7u3oy0eDn4bhe4fB4CvkDwAUz9KKy2xIKcmSUy0dxevx98IR9iiQQciQgchQTWM3XwWx2QzZwAgVwGjpMy1QPgi72Axw+f3Ql7S/vIRYriKOTMWoCoGDX2FtegrEaH76+cEbbUEO6ARAoQElf8KiVGga9zJowvTI6PR3qcCuMSVRCLeDh8ugxXz3wQWcld+NMH89ve+2Law/Vbn19D79c/iyEkUpwzZwaq6nRYs/Y/sFkdjDFYtnQRa32qqKzBkaISHCs+iVOlZ/DQ/T/E91bfDIFAAkNH3RDnNZQ9ELJSvjAA4d36bXi3YRuLYZ0SlckecLQi1ogUePY3P8OVC8ZBLA72UPcFCAAXjS3tqK1vxvRpk1lteKhBvhEOm74bIIyuxBDcf3dHwygAwle7mnDvC78P6kF8bjj7tGf1AFKKBfa74Q6zkqfuHbvPBU/Ah0Z7B96q2wSdK0i5EtiIE0dhiSYfP0q+CmtefuMsgMASHbl81o9OKvLgNwn+H+kzqNWVHlTDl1+CLMJIwproYfzumm9O/WJr1/quiTd/gEeFZ/AmZAhADQ5U8PiSwQmMFxibb8iQOGfPSODzZsR4kRbFHzOR4r+3A9oYIEoaBAFbjgLzJgEON2B1AApp0AV17iTAaDTg4L7t8NqaWNdHTFw2A+DnakjW52nH9kXXIwMGDjM8TlvQb6IbGFzqAEEoVqC53YZ//OsLuJx2TByfjYXzZiAzKwtiiSzYrSAQQd9lwPYdO/DV+s3Yu+8Q+AIBE4CSl8nVVy7D7betZkJ4KhuSSJH0GCMbQYHtZalBoCRBaq3RaDQsEvl8DVohP/XMc9h0oAqTrn4QwrihOybcHV3g8Lio2PMxCrQcvP7Ki0hMTBzw8aiWV1JyGC5zGxKVEkikIvjdHjYpBbvwgwCB/Tefy/wLAj4fbC43Oo0mZnJDrmQ8rw9V1Q1ImlsAeUw0uB7A5fCCp+QwEaXf5YGtqhHmyqaI2hzNdgd88hikFs6ANiWVTZhOlwd/W3MAEzK0WDgjt6fUQH3Pa9euxa233jrg+0UKELJn/VZ5060ntl+/rH6azy9Bp0EFvTEGNkcy2owqpGm/wj03HsDp6riu2578/m9OfPE/bw0FEKYWjoNIFouauias/89mlFXUIDEhHgQcli5eBKFIDIvFBr3BiNhYDWstEgol0LfXDnMJBenz4CQ1MoCgzlyKycvmYGPbsRFdpjs7T2FT+zEYPXa2qo4RyKEVRWFV/EyY/rUHtywoCAsQjBY71u4vgjQjAegy4roZsxCjGjzVkgxZaHKxmyN5CA79FRjVTpPOKESK//PmP9k1TxoC+uk/aN+D/w7w0vsigNPmBjxY8jYaHJ3IV6ZiCWMPJiFLmoA4ngJ//t0zZwGENr0Fa7btQ0ZqElYtvAJCUS9DQY525IFBFPfwACFkP+0ecZrjb196++nye3dswwOc3sZ1OgB/CkjgsavUp7/8UVZ64k+UqTlCK1cKjRiYrfYiSWADuQqeSxfDS/8GYlVAVgIwKRN49Qvg4RuAo2XBdmQyOqtuAW5d1AsQ3JYGZKYnsJCraE06FNEUjhaeWY38oucwMEalLjLuopa9kJ01MQSXE0DgCpUoPVOBTz//Ch0dBmRnpSE3JxPLF8+HWhMLHhMo8uDx+NClN6KjswuHjhRj774DOFpUjOnTpuCt11+CKjqKMV6sxGDtivxQd2/JyoKXo0iR9av7fEw1ez7DOohBePrZ5/H1rlPIv/oRiJIGsgF9z4rXaIbf7UbVgU+RrwVef+WlsACBJjuqh9psZtRWn4bX1oVEdRQTpjBDo4A/2OjE2ASiE6g0xWMUsMflRnVDCzrtbkRHxSBKkwRVuhgqdRRLYnR7vT12plRqsJY1wFzZOCRAcLo9sEEATW4e4jOyIVNQcEhv7bpdb8Gzb2/ET+9airREWtyARV2/8cYbeOKJJ0YNEIAAZ8Hdjx5456kvZ6Un6uHxctmPzy+Az8+HgGdHTJQVXUap+08fLFr/+x//5ztUkx2MQSCRIvkdCKUq6DrMOHjwMLbv2gej0YL0tFRMmVLIWvsIhbPrhsOBSCRjOQ7DDabUHwVA0GQtw4qVV8HksQ/3Fmf9/t2GrXi15j9oceqhFiqxUD0RV8dNw9LYArz3hz9i5YLxYQCCADq9GZ/sP4ZxS2agrrwc41x8XLN04aDvLZZFMw8E6xgABLbwDsVBE5MQ6my4gF0MDfZOBqzGyZOQKtUgii+DQiCBgMNj91z/EkNDux7/2L4XadkpmBebzFTkoUH6DAqyouwNYvGGH8GkvPMR91wwfcrvJ+bliqNkYnCFYjS6JSg18RlgjQ0Y4WyscJ45cHDEbY7vbQSWTQPUUYBEBLzwMfDELcCOYqDDCGQnAoQ1tapgiYEYBAIIGWnk8kr6DRkzJKNUQirbjHQwUOhxMyGoy2VhBj/BUk0IjAdLCJcLQKBSlkKVBIvNjurqKmzeshc7dh9ERloK0tNSMH1qARYvugISqbSni4HmfrvdCYvVylx1yeMmKyuDPf8ISNDxouM30kGPmMsSIBCDQBG/1JJ0PhkEcjD8yzvv4Pk/vo7xS++Gdtp85mg12PCazPC73Kja/yny4wYHCKHXE9BxuhzQd7ajvvY0pDwP4mKULF2RxR52x3OyhxktqsgzuTuJ0eZwosPqgzIhCxKtF6oYJfhkHtJHiT4cQGChVx4/BHGpSJ2Yj2h1LAMG/UEX4ZQ9x6rwxdZjeOGJmyAS8FmbaSiLof/xiJRBoNdlr3r6wK/u2TT7u1cWQyJ2dxO8obpmUKjkcgsCB0+kVd7+i+/e1rjtuSNDAQRWT6ZuBYEcXohQWVmLM2VlOHz0OLOpJoMV8km47547kZSUwHzPu1orIri3gtkDI2UQCCBce+21wf3TQ6aqCli/HjCbAQq6UocvAXzUtBt7uk6z8sJ89URoRUpGl4t5giFLDB0GM97bthtJS6dB39CM5C43vnftVYN+P3KapNVHZDR6727cHi9a2o3Qm+ysFBanliM2WgaRSHCWBTMTLo4UINjtwJ49wN69QFYWcOedQaAcwSCWweX3QEQe9/1WteEAgtHqwNe7DsIZ8OF7y5ZCo+7VDJE+gwCCxdDCzn0kg3V0sBCn7qRHrzMIGLwutBv8CGkQQvv697//fei55577ZWlp6Y7B9t9XpBivFCFWLmLHWWf1ocoYwHEjH2VGjk9n8RW7oxP+BJ9wF57gNAMY1gdhzZ4gQAh1M//la+Ceq4HDZUC0HMhKCtqkhzQIIYCQnqoFl0dZONQZJGHdMCxwSKHpdvwbRpvA4cDv8wedSp2W4PHqBga9ZYTuks1lBBCoq4hAAh0nm9PDukJOny7Hxm/2oLGpFYUFeVDHxGDq1AJcs3IFpBIpm7P6OijSNRaao1mJYZQAgQF6EmJfbnHPpEHYu3cvsrKymLHJ+Rp08Kjf96GHH8ax0mqkz7se6XOuA18sC/uWnk49u5PKdv4ThfF8vPHqy2EZhP4vpgc1eRs0NNZAr6tBnFIEpVQCP6mEyPCIlRuoFh68MDhCAVup+VwedJms4GoViMtOY7bMfvSa3QwFECwuN1ySaKRPnoG4pJSwwKDv5/T6/HjlX9ugVkpx943zmLXqRx99hLvuumvAsRgJQKAuhgUz9bP/59F3oY4ydd8IQWAQ+qEHUFun0vTka1e++d6zHz45LEAQkFiPRGciCCVK+AJCtOp0aNM1o6y8Ett37MFDD9yDubOnMxV/Z0tZRJdQKMFwRFkMmUtxbX4+8OWXQWBw/DjRL8DcucCHHwLa8M5v9JAj2pzP5THxHVlAh8ZQIkWvL4BDp8rw6cED0CiVuP2KhRiXkxkBQCAaffCHICVBbtt/GserOtHhFIHDE0FEEckSOZtkPDYjPHYzOF47tBI3puVoMDUvBUopAYZg++OQPgivvw8OAQI6Tt98A7S2AiTGuv9+4KmnIgYIQ53IcACBeUT4g2U9UuX3Bcekz6AEPIu+OWKAwCZdv/e8AYT+IsUWsxtNRidO17a5Dpc2726bedsGgDsHHK4PTUdP/m580xW3rZh5VeogRknkchoCAPTZne5gLDtNPaSX7tu8FGIQrJ1VOHWmAiWltbjnjpsxYUIu8xkhYC4UypjYjpgp0scMcPSjRY+f7KsNLFkw5O7HGII+uSaXK4PA/Fe63RFF0mh4/ALUVFehtVWH4pLT2LB5FzsmBBBUqmhMGD8O11y9AppBtESMQfAQg9AR0RzWfyNGVIfaHhlQ8HYDBrpfu1shfV52TTNR41n/1vv7/r8rrerC7OU/xKzZc7u9G0b18YZ90erVq7+uqqq6mRMbG5v90ksvnbz99tvFYyFSpIdye0c7tLHaIb8AbdfS0oJ33nkHr73xJnyiKMTnzYMmZxqUiVkQyUgDwWGxzx0lB2DRN6KhaCOe/uUTePCBB5hXQ6SD3stkNqKq4iS81g4kxyiCKzK3l3UmkNdBgG4wtxecQAB6hxMN7Taka5VQqGQobRXCYPViyZVBMWU4gOBwe2Dy85CQPw0Z4yYy8UukZRqT1YGfv/wx7rlpKWbkpYG0FPw+pYjQ9xwpQMjLz579y+89j+kTKvDJxhkorVkBhawBCmkDMpI6kJViQJTcFdh5NO3ok39edr2o9nPtUFkMZDJC4IB+Qup0okJ5AgkcDif27NnNfADmzZ3J4n07m6mzbPgRbGcLRf12q6mHDGuyI6WOi6WbNwPV1UEGIRSUlZEBrF4NyMKDzaE+zSdVJ5H1vSUQSKQDRIrUZx3gcOF2e9h5FYtFQzrbhRgEi7F10Dr7joNnsKHEgoRJV0CdlN6tSQt6K/TgFmaYxK46NuF0NVXBXHsEC8fLMG2cFkI+MTCDGCXtasKrsgRw/vlPwGIBqA2TdkYeJ7NnA6MIPxtw/J54Am4ud0CJgXncD9KZRPoMt8PM2mAjZRCCNx5ZMHdHQY8xgzBkF8O+Yx/Vz7n1ISSo+HAkpMDWckO8jHvHtFTlxFXZYlydzkGynOLdh7/Ww23RW2KoZ15O73+yEbV1rbj7jpuxfOkCSKWK7o6Q4H0nFMtYGBh1h9AqmOY3h0UPl8MIP2uXCLEMIb+R3mTUSwEgEFv1QuVaHDKU45akebhSOxka4dmauKHinuleZU6vMg2amltRVnYaFrMVxSfPYOfug3A6XVi0cC6io6IgV8gxPjcHixbMRVRU73sQ2CD2hbqQRjuCPiaU0fB/AIEdw9NnSvHRp5+irq4ecdo4zJ87B7NmzkRiwkBBYeigE5qiRMcPPvgAn3/+BSorKxjC4ouk4ApE8DptrAWHHpiPPPIInnzySWgHWR0OdyKZjWlbCyrLiyENOBCvUkDA4QZBQjd7QPsg9bbT40FFswkKkQCWDh1c8WmYsyB3AEAQCPgwunwQp2Rj/PRZkMnC+zkM99kOnajDB+u34rkffX9Ql8WRAoTFy+fNTpf/C4+t/gxdRgn+ueFfyMxKh87kQkVjB0pKyqxtTU3rlXJ3uckg2Cxq/MIeOUAIAoWeHAYOB51dZgT8HsTGqplBSXtj6XBfu/v39PAjR8I+QsVI0hyvugo4dAj45BNg3TqgsRFYtAj4978HZRCG+kDDtTkGv2tkTwFa7TmtXQgChIEMwuffHEebfDoyJo48wpyu47IjO1EQ3Y5p2QoIed0R0TQRhXNSNJmAtWuBjz4Cdu0CCFz/6EfAb387pgzCtcsK0Km3ISM9jXliDCawo1UwAwhdjay0FBpdBhMOnjgKp9s2oPIRJdZiyfxZ3SwCqe/HtsQw0jbHt95++9mJ866+85Q/mfN1bYCBgytTObguk4MUBYdVLSMd/TUIVpsHX369E5+t3YL5c2figftuQ1ZmBgTC4D1H4ItYBBY9zxexUgJZAodrjSTwcKkxCAQQflv2MX5X8Tk7hAqeBMu0hfhe8hVYqslHjFCBoQBC37hnYjL9HAkqKsuh15OegIOSk2ewYcNW1hI5c8ZUTCmcxAB/bm42Vl1zJWMViZEgoySbuT3S0xh2u1CmymXBINDKlTwKKN+e7JZHMo4eO4oXX34FBr0RPr+PrR5k3as4bawazzz1W8THDS1GJHqdWIWysjKQkJEYDbVajTlz5rBsCArhGGxVMpLPSu9T31CNtuYqqKVcRAn4zNyGZS4QAvcHW8ucZjuqy6sQnZWPCXMWoLT8OCB0Ii01HtayerSXNyCgikP2jLmIi08YyUcIu+1fPtsKo9kAqaMNj9IE3m+MFCCQk6LX1oZn7/ovJMV24Nl3foTs3Huhs3jQrLfi+PHyiJ0Ugz3tQQaBhRd1T1ThzweHAYS2xpMRH5MQJdpTZogEIIQ0CPQuVF8/eBCorwduvBGIjo74vUMbDgkQNNoezAAAIABJREFUKA1ukBVxuDeSyNVwWDuZQ11/gKC3uPHqVzW45vsDzbAi/dBUZy7a8gmuyPQiI0HOEubYSmUoq2ViWXQ6YPt2gLqUVq0aW4CwNB/l1c1o0RmwfMk8SCkFNcwx6wEInQ09DAIlZTYbarHy+hyo1f3ZnwCqqjqxcU095k2f3C2uczEK2GyxobEzgHGFy7CIwCE47OH5+eefj0iDMFKA0D+LocEcwJbGANbXUlcIsCSZg5XELCg4IOsUfrB5CntbAkhTgjEOIRDRFyDEaqLh9XFZKmGAp4Q6Po0lzR4+dAA5mWms9CuRUMtekKGk+5E6QpyDGvoQQAiyc+eqQSizNmNNy8GIE1wjvZb7b0dzwbbOE6COI3pY8zlcCLh8Zs51Z8pi3J22FBI3F/t2b2FW/BNyU4IW7z2pjWSdLDgr7lks14AkaM3NDTCbTOw7dHR04siR4zhw8Cg69QbcdftqPHjfnUF3VB6fXV/nChCYNX93+SCoSbiESwx0omj1Tjd1pPQ4vYaU90/+5tc4VlwC8iIgmksiDkYk0+RIN8bPf/ozLF+6bEST7GgvsEhfRxG0VdVn4HN0IVYhgohQP5khef0w6DphcHGQM3cx4hKSeo6HzWbF6bISuI16xCdmIWvCxEjfbtjtzDYHXvvwM8Dlxy8euSMIWvqM0QCEhBg50mXP4LaVe7Bx7wTUdr4Kr1A6eoDAE6HDYIHJ6kRaSgoU5BMxQOjGgVSuQlvDiWG/c+8GRKUTJdrNIowUIIzgnQbbdGiAMFBkOtRbShRqOCxdTIjXHyDsPd2JU+1SXLnq+gj5iN53onuLaPZAwIuNX6/D3BQ7chLEDCBQRwAL4A4Eo2cvdBbD1YvyUFpWjxi1GidPVyE3Ow0Tx2cx9o+EvqFBbXzEIJg663sAwtpNuyBUuCCVDXSoHMmptVjEmDPnVpjNjkPPP/98xCLFcwUIfT9jqy2ArQ0BbGwIwO4BFiZxsDyFg1gZB7dt9qHOFMCLV/DYv0kEgLFPF0NUdAyOHK+CWODDkqVLkJiSDbEsCp9/vhZvvvkWswxesngBFi6cj9SUZIilCnhcFjitgxv6hFiEcwUIIzkP57ItMQjPV3yGV6q/RoJIhVXx07EqYSZmRmdDyA16akTKIPSPe6Zj6Q/w0dXVAbOxk81dAqGAhfWdOHEGt//glm6AIOgGCG3n8lXYay8bgEAra6L74+LiWCdDpKOquhJP/urXqKmtY4mHNEEQ9e5mqDXYxjR58hTcfccdyMnOYTkPIwEgkX6O0W6na2tFbc1pyHke8B0OOKweRGVMQFruhBEFQ432/UOvI+S8v7gKe47uwKolKzExsxeY0DajAQgU99zZtBtP/fB34PO8+OWbLyA1ezqa9bZRMQh0c32wYQfqPA5Mj0vEyvlzIB9Q7+dAplCjtf74yA5Jd82OsQjfMkAggR1FXCvkcsaYUK23r6BxuC8mVahhNxOD0DxAg3DwTBs2VYnx4J3fg0TEAy/CTgKqZ3boGtFwZj1c5tPgcs72NXDafMiOS4JKKWNU/Ia9zXjptaAPQt/BVp483phd2yGR4vUrJqPTYMORY2dYNLHNZkdbexfG52YgPTWRvR/lC8iVsXA7TDB21vaUGHYfKcItt01ERubZ3ScUhBXMu6CgtKCYOCjQI63GwLOwf38n3O4p0OlM3xpA6PupupwBbO9mFnT2AHY2AW4/ECUCHi7g4JECHoROPY4e2MHaHIkhOFxSg7Vrv0JycgKuWr4YeXmT2Ap57/7DzKys9HQZO5ZvvvYipkydBo/bxlpqBxs9mR49bokXdxcDre73dJ2BL+DD3JjxrHOm/xgtQAiWH+jaF4EnlMDlcjL77/b2Vhw4WITvfuf6sxkE07kDBMYi9PgiXMIMwmhFikXHivCHF/6I2ppauNxuyGUKCMVCuN2uoGgm4IdAIGQWq1dfdSWuvWYl4rVx5zWlbLgJvP/v6SZqammAqa0dmbkTIO1juznSfZ3L9k6XG79/812kp6tx3aKroFH1ijFHCxB8ditmZv0cy2adxisfXQOX+HG0W1yjAgjkO/XFvqOwxUej60Q5HrnhOmjV/cEkBzJlLFpri0Z8KHq0CN8yQKiqbUZDUwfmzJqM6GjViGPGqd2KFNCk1O/PIBwq68DnpwSYtuBKzM3RQKsUMXGniM8FbxClGwGWluZGnDj0BeJUzUhLHWhk5vMFsH7dKaTHaxmlfaxcj9vufCjMg5QHtToBkyZNHhOgHgIIVy/OQ0lpDQQCEaxWG3x+PzLTk9HQ2Apdexfi4zSYNCEL6Zm5QYDQXsuAII09R4px6x15ZwEEt9uLkyebmY9Jbm4cOjutEIsFLD1TIhFCLh9YBr3YAELfG+D1Ej8e3dUL6sQ8YFEyB4/kmOCq2AW+ow7jx+WAI1Bgz76D+M/G7Uz8O2/ODFwxfw6SkpKhjIqG3mBC0bFizJk1HbHaBOZz4LQMbujDynfdmR6XgkgxkknjnADCWW26HJYZYrLYcPDAASxeMKcXIHhdzMzr3EewZH3JlxhGAxDo4tuybQvefOttNDQ2wOP2QMC81zlM7Ee/p9WXWqOBWChiJQyyE33g3nuQm5M7JhPUuZ/Ai2cPtDjqNBjx1a5NiJJrcPX8KyAjp5VzYBDilUI01X6A/7rr7zhTE4f3tvwBXFnMqAAC1Tz3Hz+NAw11iBNIcPOyxYgaELTFgTwqFs01R0d+YEMswrcMEAIBDsxWJw4VlWJywURoNCpWTol0MIBgpgjdgQDhcFkHviwTo2DucqZaV8vFSNNIkaqWQiERBBtRgx24PcNk92Dn9m+gERZh1pRzS1ptb7ehtlaJhx56ZkzuP2IeX/jDb3HlFeNY7fZMeR0MJgtzmqyqaWDhOMQgWG0OZixWUDCZ0eKG9hpWLqGxt+gEvntn/lkAoa3NjPvv/xcUCjF+9aursXHjKWi1SshkJCjTIi9voPj5YgYIP9/rw6bueBI6xwIKAeUAcRwz5jj3YiK/ihkliaUqgCdDRVUtvtmyE8dPnGZM1ozpU3DF/LmI02qhVAYTdylynUKeHMzQZwiPhJ6Y9cvTKGk4DQKly7IfbmQmgNQJQdcmiYzPfQSfg+Tae0lrEEaa5kiiRgIF//zgA2ze/A0s1EoFsHpjoNulkOyLhUIRc6djfuBOB/v94sWL8MO77kJyYtK5H//LaA+ENCl2WmdxoKbpINISJmNWfj4EfN6oSwwEENqamnDdgseRk2rAf73+IALKZSguHp1IkUACicNkMin4lAA1YBBAiENL9eFRnRmm/GU19b5pj71hMk1tDpxllDSqdxn4or4aBL2Resm5iIqOwtFjp5nKOTMjGdHRCogjEPAGAUInzPrGAQzC4fIurC2ToHDecqgVQqikIvC5HHgY2xaASMCFkPQ7AcDt9bOVOP29vnQ/rpjQiGtXnO3xYDTa4fH4ER0ddNwj1o4oeVpp04q7/2hoMGL3bi9+8INfjglAoHngP1+vBdfbzoydRCIhKy2cOl3N4ovJJKyuvoUtGibkpmPy5KnwuMwwtFWzc8wAwrGTWH1X4QCA8MQTnyEjQ4MFC3JQWtrCvltysgoJCVGYMiWFgYe+42IGCJ2OALzdBAL5IKjFwdbI/l0MzGdEJAdfpERHlxklJ0tRdKwEjU0t7HyRlfnkgkm45urliNFoWRdDsB1vcIBAYLOXRbi4SwyR3M6jZhAiFBqPLUAItuiGgpwuWR8E+uD0kCdkKhwmcpTYhpOnTuKDjz7C/gP7mcEPn6lIeexAkI2lVEYCtmAKu9vjZm1PlENAkxe1Ki5dvBgPkWHL/42eI0CCz7feegv3PvAgNu3dAw6nFQU5i5GdmoKWlmb/hg0bvrz//vsfAxA+S7l7T/3jnlUiHuob/ohHVm/GF1snY2v546isahxlFwOtcofo4+JwoYiOR1PlgVGfWX+AlNd90x4vLEAwWxw4crwMuTkZ0MbGQG8wo7K6HkmJWqhV0VCplBD3yRfo/0VlSi2btE0EELofgqFtjlTosbZc1gMQ1DIxNAohYuRCqOUiqOVCREuD2QV6qxtdVhf0NjcO7d+OwvQarFx2dnbJRx8dhl5vw1VX5cHp9MLj8SImRg6j0YbCwpTzDhDoDej+37N7J0yd1VAr+IiOkjHPiLqGFtQ1tEKplCMmWgl1TBRS07NZz75BV8WsfmnsLy7F9+6ajIwsTc/nNZkcePfdfYiNVUCrVTBGRa+3IipKCqvViSlTUpGdrT2rhHIxA4TBboZwAIEZJAmChmR+CGE0WdDU3IITJ0vR3NyC6ppa/O7pJ5GZnQO3w8LU9gPMkwa8YdBLIygEHiOrZeqMoYWh2w3EDp2pM+rJIMwLRwIQqKuE2ANyp6RnTySDxxMGGQQDGWeOzejp1LpUjZKCzoN21uJIiVbhBm3T3NKMfQcO4Mu1X6K6pprZVjJ3LzI2Ym1WFO8CpjGg1ERCrqRBIPqRVl8EJEjESDGbv/rFL8fm6F8mewlZLT/xxE/Q2tmBPUVbIZOKMXPSEvKEGDVAiJeLUFx6GHdd9zS8fiH+6y8/RmsnPyKAkDcuhSUbisVSCARiBv6GFplyoFAloLFi9AAhgG6DkZ446AsLEOwOF0siLD5ZwUK84mLVUCqJ9q2HxWqHRh0NpSL40JPLB4puGUCwtMPUSQxC8CHYCxAMWFchHzOA8JOffA4ej4vZszNQU9MBt9uHhQtz0diox+rVMy4IQAiBhOLiY6gpP44oaQBRChGkYiG8Ph9a2zoZUIjXqlFQOAUepxl6XSW8nmCJ4cCJMnz/7ilnAYTR3NKXG0AI+R6IJQoEIIDD6YTH48Knn6/FdSuXIyk5DW6nmVl6R5L+GGQRCHyfA0AgpEbeGg0NQF0dUF4ebCu+556gTeQFGJECBIPJisYuAxw+H7LiE5AUHzekwVnoo5MJFbU5WgxDrsNG9k27WZxLlkGgh9Pp06eZjXG4OGU6GpTV8OHHH2Ld1+thsZgRq9FAKpOz2GTqYHA5HfB4vaydkXq16UFCJQUhAQM+KUiJReBBKBBg9sxZ+GmYUKKRHfULt3V7uw4tLeETCkmYpdUmIzY2vMVvpJ+SGIS///3vePjhh1ni48mqcjS370OMchy0ihT/nl3bR8wgKHlexMr4sFjsEPB/j1tWlOMP/1iGHSVTdXWVVQ80bvnDV/T5BrNazsmIR5fRBplcweqfw7FLxBQpVIloLN8b6dcOs12AhWvR6jsUKBPySKhsMCOjYBWuIqOkMRx9SwytbXrYHG7Ex8Wio1PP0uFIh0B1dSo3VFXXw2q1Q6GQQSoRQywRQxMTDZlMzK75Hgahq2Egg1BpwFeVyjEDCC+++A1iY+Xs3iIhH6XVTZ2ahsrKNlxzTT5SU88WkY51iaHvKaDJr7GxAUWH9wNeIwRcN1RRUqajCXUdyKLi4LQZoNdVwO1yw2Bxo7iiBvc+PB1ZfRiE0ZzayxIgEJvAdF1cthIm0HC06DiyM5OhiqGOkCBAGJ5BoCMaYhGoU2iEYU0EDE6fBioqgFOngAMHgKKiYP4J3YtjZN191nmni4aMvcghtU/bSqQAYcvuI2jicdBsNyDOz8Pty5ZDpRzezI4BBK+LuX2O2SCAwFxjqYQaDF27rKyWST9ArME//vk+WnWtDLDGxKhZQhYxzqRhIEWz1WKBQkmRmZTqJ2KlMZq8aGIlgof+jViEmTNm4CePPz5mx/987kina0V5+TewWivDvg2XK4ZKNQFZWfMQGzu0IdRQn5Mm2GPHjmHGjODKz2ix4EDJbgQC9fA5M/wNVfVf/ujhh0ZUYig7vAcxchFTyHdaT+CVX27DkdJ4/OKNK3XtOv2wAGF8dhIamjtgc3iYiVZqSiLkMsngZQYOB1ExSagv23OOpyQU5BRkDyxWB9q7bPALtJi/9CaMG9ebEHiOb8Re3hcgkEjx+KkqBmSJLYhSKlBWUcuucxIrxqiUUMilaGxqQ3unnrFlUUo5UpLjEaUIJvER7WvqbBjIIFQa8HVV9JgBhD17KmG1uhgQUCrJnIgDouerqtqRlqZGQcHZ7bLnEyCEzgOVIE+dOoHmhmoEPBb4PRaIhRzEqBRQa5OZsU9V+Uk4PAII5Yk4ceYU5s6TQasdeXJh33NfXe1GXNwitLUZL4o2x0iuy6FKDCFrcx4/vHW7SKyA02EKqu37qlqHeOMeLcJIAQKVE8jenBw59+0LOpdSGzvN8QsXAo8+OibGWwMAgkYD0Hw4CoDw/rqtSF4wE2a+B4f2H8DNSeMxb8aUYbU3PQChqzGSUxjxNsGMhmA66WUHEKqqq/DyKy9j1+49EIrEkEglTHxID3+P1wO7zQ6nw85WflGh1jDqYuByIZcFw2fof1KJBFwOF7NnzcRjP/5/ER/cb2tDvb4L//zn64iJqUdOTvg6m8vlRX09mURlIiensNsKdbhPzMH06bMGrMj7poqRQK1J14JjZZvhtHX4jx2xr33xuefooEWsQdjw0buYObUAQgEfFq8P31n2IcanG3Dfs/N0xWXKBxq3PD8kgzAuKxFtHSaYbU5QK52Az2c1+OSkeIiE4UpRHESpU1B/ZtdwB2CY3wfbg4hWbWzVgy/WQKZKxfiJk8ccHPQHCMzKlsNDTV0zy46XySSMHqe6en1jKwMElOdBwIH+nYR6HV0GREcpmGpfHhUPu7kNRjID6qdBKKoy4uvqmDEDCCM9yBcCIPQFCmSf3tRYy1ob/V4HWw3T6szv5yAmPhMFhdNQVVUGs7kRHA6FokVWJw73vQMBETIzC1BUdPySBwj+ABcNbV1wefzITk9DlEIx4MhQ2iPZLFN0dmQMQpBFCGYEjJBBoJeS1qC0FCguBk6cCDIKTU3A/PnAW29ddCWGT/6zDbz8bHjkAtQ01mNckwM/uHlVBABBFGQQRgkQjBY7zFYHKIzP43JBQGV7Ph9KuRgKqahbMHqJMQhEb4dKDGSW1HdQ+eE/G/+D1998AzpdOyRSiqAVMWqVdSc4HMzdiuhVuVzBHnoEBkhzIJfLmKbB6/ExoxQCDAIeH/PmzcV999w70vntgm+/b99eHDz4KqZOHSj46vthqG/b5eJDKlVFBBAOH27Eww//DgpFry0wPWiOHj2K2RSm0z3sThfKak+irnlzoLambft7Hzf+tHTn2uKhDkRfkWLR9g2447s3QSoRosVoR13d+3hs9WZ8vDGj/Xd/y3u0YfNzn9K+BisxEEBobTOyC57ahBjMI9MacNiDk9T9fZX9dA1Ea1JRO3jSbkTnkG6uplYjAjwFFOpUpGaMY6Yx9HA+H+PN119BbjKfMQYEEIjSDfgBg8mM6tom9n3lcgljCSxmG5pb24M+H5wgQ0YCvIQ4DQMOiqh4xiAYO8g87GwNQlG1Cf+pUf+vAAih80TMGNm4NzU1geLe6XhlZmYiISHhvJzPkcY9j6WT4kivzcEYhKaWDhxvbkOb3Y4Z6emYmpPN7Ob7DorOJgaBHDtHAhBozqZVbKh81+uyGNL6BDUKG3dX4Mln34ZaE6Z0SvbmZWVBDQKVAa65ZuwZhEEOZqQlhrKqeuxtaUSdzwaP0YrV4woxc0pB5AChs7svdZiTarG7UF3XAp3ZB6ePB6uXB5uHw0Cwj+y/OQFmrS0T+CDj+yDheREfxUdyvApyCe/SSHNkqzWHI1gC6E4TpIuurb0NO3ftwlfr16PkRAl8Xh/zOKD2xejoaGavTLHKRCuqVGrI5XJ2AsiLnQAEISdet7CN1gZE28qkUsybNw+rv7t6pPfTBd/+q6/WITX1KCZPHhogjPSDvfrqbtx996tQKHprxATS3nzzTTzer/TSaTTiZOUOmC0HW0qrPK+88nHUWx07n7YO9p59AcLhreuRGq/BlMJ88BUxKK0+he8v+jNEgoDh/udm/H7n3//04lAAITczAU2telA0MekLSGMiIGfBbq+LoBAVrEafnUG+6FxEx6ah5tTWkR4Stj3tq7nNBJdfCnVcBuKSMpGXlz9gchzVzod4UXl5GUqL90MpcUGriT6rhELfuamlnXUzkNaGygspSXFMgKdr64TT6WbXNXU5REfJmUjTZiKAUBsGIJixoUaDwvnBNsdIuxiOHNoHju0IMlIC8PkBj9OOaIV0yG6KcF/XZHLDatXizjsfH3aiHOtjfKH2N6YAYd/Rj+o3P3tvsB+LjZT+WQzn8r0GAwhVNc04YTKhIeBEmo+PFQWFzGr5LIDAorNNwVp5hCWG0OuJRQgFpI0KIPT9IPTeETqCnsuxCr02UoAADhelVXUo72iDnMfHkmlTIekHssJ9HuogIeaPGMChhsniwMkqHZotXJh8chjcQrj8fAgkcgjEMibo5gnFTPBIOSkepw0+lx1irgdRfAeUHAtSo/3ISVZCLuF3lx0u0rjnEMqnBzwhVbPZjKLjRfhmy1acOHUSTU3NsJhNDPFTjzX9SdtRixNZVgr4ArbCIy9tupOIfqZQEebDTjoEDodNovRDcc0LFizAqmtXjcX1cl73cSEBQqiL4ac//elZ34mOd2V9Fcpr1/m5gpbivUeFz7xgka7H00+f7bfb/aq+AEFfX4niQ/swKW889FYXJkyfAXng7/jBVSfdr32Us+H9ddGrqza+5hqMQZg0PhXtXWa0dxhAjn5ikYA9JB1OFzu3ZH5DoMDl8aBgYg6EIiFUsemoObllhOeFg7ZOC0wOLjTx2YhPzsa48RPZtXKhrLmrq6tw4vh+cDx6ZKYOXDXZ7E4GFBwOFyt9EJBOTtQiVh0Nl9vDjgdjEFSJsJnamFugt9sMKHQwjlVbsKFOO2KAUNvYgubmWljsVlidXjSWHcctS6dhQlbaiI4z6SsUCjUmTswf0esupY0vB4DgcHlxrLoep5qbUZiSgpnjx0MqO9skS0wAwW6EaRQAIWTBfHaQ0wgYhG/xgogUIASZQB6LeCYWm7p9IhkUF00lBmPH4AChud2AoloH2r0xcAtVUGpTWOJmRCMAuBw22PWt4DnbkSDowqQkPrTRItaKGtIoBP/s/e/Sqi7MXv5DzJo997zmGq1evfrrqqqqmzmxsbHZL7300snbb79dTOxBUVER0tLSoIpRYdfuXfj0889RXl6OzIwsZoxD/0ZeB0SF02qXmSL5g9oCpUKBqVOmwul2wRcIICcnF3W1NaymSCtOIYW28KnFUcDeY/my5SgsLIzoeH6bGw0FEDo6rNi7twpqtRQpKTGgMgM9IEJmNWSZPNgIxyAQ2Hr//fdx770DSy8NTS3+7fvX2RTRJ53g8vZ8+JXs2S9f+2NJuP33BQht1aexd/sWpCYnQSSLwtSFy9DSvA+P3fRv1LbIK2//df4PGjf995H+AGHXzm1oqDyCvNwkxhbR6lnX0QW93sy+o0wqYdeB0WRlgJGEi1MKx7HzG6PNRNWJzRGfNoPJgQ6jD6q4TCSnjUdm9jiWBzKSBMWI32yYDRsaGnDmVBHamyswaVxS2N5pu8OJjk4Dcwe02RwMLMllUmSmJzFzIKUqgSnLg26BZ5cYCCBsrI8fMUAgP4Quixud5ItgdaN0/2Y89cNrMG/a5fugH+05HVOAsL/ow/pNz9x3oRkEWsWarA50GczQqlVM79Jfn0HJmC67gbXT0hw80sF8EXxBv5GeJFX29whKDCN9szHcfiQAgViEkQ560Hs9blYiDDcorG7nKT0skmzEJOdEDgzC7IyAgr6xDNpAPSan8KCkkkO3iPGiAgh9rZZjtbFY99U6fLluHWhVu/CKBZgxfQb+8rd3cLSoiD0YiHGgUoFEImUMAgkPtdo4pOWMQ8qU2VBzHTi8ezdEwqBAg4W1CATIzMhkEc4TJkyAkmJnL/IxFEAoK9Ph1Ve3Y8KEBKYiJwOXrKxYpirn87lYtGhwpX04gEBlnsbGRgag+g/KYljz1ddFTt6B1ikFktm1Tbx//HOj/M/73n2hpf+2fQFC1fEDzK1Pq4kBxApwFRq0drVgdup7mJ3fbvzNm7mv/ePZt5/qDxA6Otpx7Mh+uG2tSIhVMEaIsjbowdjRaYTBaGYeDdT6R+UGi8WGCeMyGIUXE5eJqpKNw55Zm8OLlk4XJMokZOYWIj0zBxpN7JgFCQ37AQbZgOrl5WdO4szJw0hPlCNGFb41isorZGJD3gikWaBWR9IpKFWJTFkeFiDUWLGpIeH/AMJoT04ErxtbgHD0X/Wbnr3/QgOEYLT60CmiDCDYjDCyWvkoAAJpESiGuNvavBckXB4AgRazoxG9Cqgs4HXB0B4eIBwqqYGOl4PYrCkQiqmj69wGifvrSnYiR9aGSRnRwfbH7nhoYhAaWtrQbjBC12lDStYUJKeksjckx8fZs1cgcYwdicMyCH0BQmJSIrZt24p/f/YZU24vXrQIKcnJeOmVl1FRWcnKCxq1BtGqaAYMujqpDutiHuHLVt0Il98He0cr7BZrUIPA4zIgMWliHhPgZWRkXHSpjoOd4qEAwpkzOrz33n7k5SWgvLyNudiRw5vFQvQzDzffPAXR0eG988MBBPoMfbsY+n4mAgjr12/4+qu9G9fdf0/sfUqpN+HgCfHz73yo/bBu59POvtv2BQibP/0AcrGAgTib04Ob7noAOqMZPtMW/Pz7e3yb9sbueea1jNWCxs/jH3zwwZcee+yxpSFKnx6UJ4qPwNhRg3i1GNLuXAh6INKDkTz3dW1djDEhmr1wUg4rK6njslBZvGHQu4bMfJo7HfBxVRifPxMZWeOZh8RwHgvndhuO7NXEkFVXVeJUySFYDU2YND6FWV4PNqh9LJgyyIEyJhFWkw6GtoEMQnGtHRsa4jF5/ooRaRD+j0GI/PxdHgCBvA+GFuRK5KogQOioHxWDQJgiFA9+OTIIBNpHMxhA8Lhh6Ajve7N22wmoJlyJ5KyJY8Zy7t3xDeIDVZg/Uc3i3EMAoaG5DdEJfKRmqcDhcVgYWlAjSCJI6jYdfU3zAAAgAElEQVSVIi/vhjEFCWEBgsfjYatXtVrN6r66Nh22bd+GHbt2Iikxibksfvr5Z+ByeEhNTWHb0aDXteno4eiBMkqJtIxM5i1PohkqQZBAkcSMxEBQfz8pl4mGvlB15dFcIH1fMxRA6OqyoaioASqVhIEggYDHkuYoaMZud7Me9Li48CxJOIBAx/Drr7/GTTfdFJZBIKvlXz794q+f+O2yq+dNtfzMaufWrN+t+PXbv3mdegp7lhB9AYKjvRHlJ4tRX9+A6bPnID2f4p6taKw9hoeu+SYQq/LUP/hM3s86j6yt7A8Q6EOQFqX0VDHOnDyCxFgx4jTKnnNH1LrJZIHH50N7ux6TJmQyXYomPgcVx78e8B28PqBd74TBIcKE/NnIHZ8PTawWEsm59b+f6zke7PXE6LS1taGhvhonjh2AVODEuOykYd3YlDFJsDGAUMWoyr6jpNaOz07wMO+6O0YNEDpNDrSV7sFPf3AVphVMOF9f/5Ld76UKEBQyEfRGG1JTklmJbThnQok8Bi6boXulO3IGIbQgoRXr5QcQQo6vI1/f9wCEdiqRDxxfbCtBIG0ZZk2bBkWYvJOR3jhGhxtbNm9EGq8WV+T1AgRaiG07dBzxKVLEahUDyp20mOzsdEImS2AL7sGG0+mBWp2DuXNXRgQkwgIEejMqG1Ddlzkh+v3s4XDk6BFs27ENR44WobS0lDktpqSksBAW2sbtckLfZQiunJQKBhxoJcijdkZ+UG8wZ/YcTJo0iQGFUIfESA/it7X9UACBau/kf0/mNEJh8IKk40grZPodRdUSaAg3ButieOONN/BEGIfJvnHPq370U8Hqqzufyk1z3HKmRvzZJ1+r/7Dhr3+qCL1PX4Cw5fMPYehsR1pKEqRRMZi6cAUDCKUnT/mmZxyyPXxrM+/NT5I//PQvh95++N47/6cvgxDaH4HDjo42HD20H2Z9A3LS1T0pk2ySQQB2u5MJFnl8HjQJ41B+dF3P16amSIPZg8ZOH3LzZqNg8nTWOiWTRZ6Q+G2df3pfYhPadK2orirDyeLDzEqY2j8FgvArlCh1Misx6Nt67YRNVj+qW9wYXzAPFW1uHG31YPL02SzNMZIshhCD0G6yofLkMSyelIgbl82FKqo3EvzbPEYX03tfqgAhKUGNFp0eunYjMjNSkZYyMLGy73GWKtTMldLQXjuCNseBZ6o/i0B2zqcrdbAFtHjo0Z8hKqq3FftiOM/9NQgkvD1VVguZTI6c7AyIRLRgG307tEAoYZ0HhvbqsF/3y20n0aScj+zx+ZiVrUaMTDjsoiHcjmjebDe5UFSnx9F9WzE7phXz8zQ9DALpT5qMzVi8PBvRqtGnuFJWS2NjNHJyrkFu7vAGc4MyCGSlTMi1rzaANAjfbN2CV197FbW1daDyA4EAetCTARKVF9rb25l6XalQQhOrYU6J1A0xuaCQlRQIJNAq8VJhDfqezIuhi4E+T1+AgFtuab0jJ2nFnde3PqOUu8fvORr13Kvvpf+1bufTRtq2L0CoLTkMMdfPRIUWl6+HQTh27LRVIzxx8Nf3Ni5p7RQc+fHPXK89fOsVd4cDCLRPh8uPXUUWcJzVqDm9Ax57BwonpkIuO7s3m2g9beI4nDmylh1G0hlUNjmRnDUVc+YtgiY2jgGDS+1aIODndDigN+hRU1WBoqMHEHCbkJ0ei3gttUX2DjKKoqhYQ1slzDYXyuqsSM2aivkLVyBGrYHXH8Cm3Uex5pu9SM+diJkzp0OjlAwZ1tTSaURJ8Ql0tdZj2ZzJWD5/BjSqXjbnfE/cW7duxcyZM9migViVKVOmsL//9a9/ZQsGYh1Xrlw54Ly2trbCaDQyzVFoEFNJYtCcnBwW3EblTRJId3Z2Yvny5WxfkQxa0ND+6fV9nTUvVYAgFfPR2m5ijqW69i5W0po0MRdRUeE1MJQaSgyCvq36nABCXwvmilod9DYRZs5dipxxeez8kP/JxTT6AwQOhw+Hy43yShJrcjApbxyio0avbyOA4Pe62HENN77cdgqNyvmITsqFVMRHcowUk5KikKyWghdBu6fH50ezwY5TTSa0GBywuLxoOLEH8zS6fgDBBKO3C9fdnA+1uncxRey0zeaCXC6GWMwHMQRCYfBPqVQ44B7s6LCgtFSExMRlyM0dP+ypHFSDsH//fmZgkpWVddZO6urr8Pf33sWGDRshk8tQWFCAK5dfiSilEhWVFYxZaGhsZIwCXdzpqWmYO3cu61IgwHGpsQbfFkCgLoZPPvkEd9xxx4CTeBZAAJrm3PK45KrF5seuXdTxRJeBb95bpHxs95r0jTt3Pu3tCxBixIBWJoSAx0G71Q29i8MYhGPHytphPfnGvTd33Dcr38p77CnxpmWF01PDAYQ2PbDtGGCxA1fO8EIltaKluQl79uyErrECE3ISkZ6sDqZ3klg1eQJO7F+DM7UWKLTjsGzFNYiLT2I02LfRmTDsHTGCDYIMkRsOux2dnR04fvwoqivOwOMyIlEbhczUOCSmZsGo12H/weOQRqdj6YprERef2OMRwgCX04kOvRE7DhzHsePFMNpciFWIoFJKmVCTSnRdRhPaOg0w2j2IUcowe1ohphVMRGKchrE1FxJkvfjii6xE2NHRwR5GVAajhcHf/vY33Hffffj4449ZPsbOnTt7DJC6urrYNvQgnzVrFjNKoj+p9//UqVNYtIhskdtYpxTtt7a2lgy7GEigv9PvaJ8bN25kDOTx48fZ4iQvLw/r1q1DbGxQ0ErX1F133dVzPC5VgJCSpGGeI/UNbUhOimPfp7yyFlqtGvkTc1mnUN8hU2iCuRZtVcyd71xGS5sRNc125E2ei0LG8MUyJvhCXmORfv7Buhg83gDIYIpSRCfnT0BcnGZUn78XIFSFBwjbS9EcdQWik8ZBKRFASR4GAcDj9UMh5rNkVpmI/H+CywayiSBXXLvHhy6LB3a3l/2O/ISoZdns8DCAMDdCgPD227tgNjuZpfpjjy3DSy99g4ceWoQdO8pw++2zB7RzjhlA2LVrF0P19NN3sHKDxcxualpBTcrLR3JSEtuE6GeaCOhmNplNkIglSE1NZYFPlypr0B8gGAxrkZNzbkFM/a+0NWtO4Ne//heio3tbIWniJTq7v2MavbY/QKB/m/v9n6T96PbG/56Z13XzvuKYA3uPRf+/vz791+L+cc+U5ijgc6CzuKEzuxlAOH68XNdYWfbUbauMU797Zee9/17HrZH6Znf97Cf/b05oUiBDntJaYEsR0NAGLCwElk0DlDKwSZ8+q8Nhx6GDB3DiRDEcVgO8TgMyxxWio0OPVdd/BxmZQQe4Sx0YhJspWInNTYFSXtht1iBYPnIERqsFEoUCi5csRUZmFqRSWdjvTxMHdYbQPmiyoGG22tHU2s5WQtqYaGhigiwBlbFEQiHrBPo2Ju3f//73mD59Onvg0/emhzQN+nd6iIfKk9OmTcP69evZw5tW9vRAr6qqYqwATexkkEYt1WfOnMH8+fPZnzTf0J81NTW49dZb2YLjyy+/xNKlS9k8UlJSgmuvvZa1ABOAoO1pLiKxM11XZO7WV7dzqQIEsYiH9k4L6wyqrW9m5zlvQhbrHDpdVs0e2NMmT0RifCx7CMiUsQwgdOkqRw0QjGYHyuqMSEidhPlXLEZcfDxL3/02rrHRAgQS65VVNjIjqcSkBFbu3HfwOLsu5s4sZI6vIxkCoZR1Meh14QHC2h2laI5eAFXSOETLKJ6dQELwh/4uEfHg9QWYFk/E58LlDYI3AhEEDkx2DwMFJvqxe2C0eVB/YvcAgHCqvBl+iQ2rfzAZGk0vi/TCC5sYY1Ba2orrr58Ml8vDAAN1zz388MILDxBCB5dFOXfnK/S9gFjOQvcPbUs37cV8gY3kYiFr2KKiwxFniUe6b8onnz595gDlPh3jcA/TcAABCHBWPvLYNb+678zzSVrHpDVbEl//ckvCH1tM6jVLrpw/OzNRjXilEIMBhKrTZY/cc0uXdXKOay3XYwscOrrI9vwvH46lc2dxAHtKgL0nAbMdII+RO1YAU3IGaqfoARm6Nmw2Kzo6OpGRkQ4+P2it/b9hBI1n/PB/9RUClD43cWLP6nYk35/tpxsskLnYxXIfvfzyy1i9ejV0Oh2zZM/OzmbndtOmTfj5z3/OFgq0qicQUFdXx9gGAgL0cCcWUaPRMMBALBJZuRNwqKioYOFkVB6gbYlZuPPOO7FhwwYcPnwY3/nOdxjQoPIGsWqvvPIKK23Qe9PrCChQmYOO0W233XbJMwjpKVrUN3Wgpq6FpTWSr8rJ0kokxGsYUCARc1HxGbg9XixZMAPxielwWvWjAgh2pxfltXrw5UlYtuJapKXR/Tp0W+VIruPzuW04BoGs4I8eL0NyUgLG52aya7OhsQX7D5dgSsEEjM/NiNgoiQAClRgIeIVrH1274wxaohdCldwLEFQMKAgRLSOQIESURMB+CCzYnEFQQGJE9qfdA4PNzf402t0DAAIZ05XVmaFNGg+eoBKrVlFTQK8G4a9/3cOE8DRNaLUKyOUitLQYGUjIy0vE8uUToFb3AooxYRBoBUA3aMhJ8Xye4Ett35H7nEf+zcJN/LQif+edd/AoJaP1G+EBAoBFT/N/cX3Nr++6ofpRg5kv2bQv8f4PN0z46eKrrigcDiBUnyl7YEqO8/TiOY5XF001XHWsdEng7u/cxyUPcQIGGw4BVkfwg6TGAbcuAjISIv+O/yu3XLsWIAaue4Xd7jIhWiCDkEutSZfuaGlpYQ95YjtIl0QPePo7sYckXKZB/07gICkpif2d2mQJDNDfCTwRkKSJm9gE0jnRa+nfaD90P9AcRICAQDnpVEinQEwFaRZonwROaD8EOAgYhJxcaR/0+9A9dSkxCKTPOLBvB+z6auRkJoLD5UNvMOHIsVJIJGJMzs9FQ2Mbik+Ws/+eMzMf8VpNkEGg6GwCCK3lETMIXm8AlQ0GmFwyLL/qeuTnF5yToO/buKIHKzEAXBwqKoXH68PUwomIUsrYwnX3vmMor6rFrGkFKJiUO6wrdBAgeNClI933wO4QAgitKgII43sYhP4AQSUVIEoqgFTIh9XZDQqIMegGBuEAwiRJA1QiICZ+HK6+5jp2r+zb9zYWLow6CyAE1w+hzxVSP/X+d38ZxJgABPaW3SuX0I1GCD9EBZK2oO8I9ev3fU2IXaCbmFoZ/2+M7AgMZrVMexkUIABIuvq3yS/8+Mjry2a2XLPjSHzTnz6YElc4Z4UkEoDgE4u2PnRD1w9mTLC/LRPnczOS7kSSNhoeL7DnBLCVIt/twBX5wIoZgCoy/djIvvjltHU/gPC3+q1YFTcdceKLSwn+/9n7DvC4inPtd3tTX/UuWcWy3Huv4AIYSCG0kEIInRu4CTd/CgmhhIRAyM1NCLkQwiWhBjCxTTXuvcu2qlWs3vtK2r77P+8cHSPLsiVZ1bDzPPtodXbOnHNm5sz3zvu1L1KX936Wywkg8N7Lykqxa/tHiApRSHlAur2hCgrLcDK7EInx0Zg0MQkM9X3oaLZ43OVLZiMyJgn2jiY0Vudf1EhR0oF7Ud3QicomBRYsWStsxC7XNfp8LwYl6hpbxebWHByM4tIKHD2eixnTJiIxPkao5ZhleP+hE8jOKcLE9EQsmi+lfabNFNV3PYtWRxWDQwCvvsq/d+SjOng5QoYRIBQe3YlJAV2467YbBDPGe6Pafu/ev2LZsoBzAMJg391hAQhE8cXFxcJqlbsDovLt27fjk08+EUZHvFn+paUx6xIM0Hr51KlTwtaACJ5GSJMmTRLU4W9+85sRT7Az2I4a7/XJIAzEzbGvdM9r73rgq0/+4NDjE+JaMx55foHCHXgL4sIjL6piIINQseWpjfc89cNZcyd1/n1OZtCU+qYbsHzuTDS1AYfyALcXqG/xIiPejVlpTLYl+xdfWm/KqijZlZatyGoIWY/dm125kNqlN2BlPZa+XJx6g99Lu/sBnOUDCAPopJGtcrkBhO4NAA7u3Qadsg1R4UFQd+cNoLt0dl4xcgvOCNuEqZMmiHTrjGzqFxwFm6UZjdW5fQIEyXXdi1aLC2dqnciYtljYxVwu7sUXmiV9MQhllXUoPlON9LQkYeDJDfbu/cfQ1mrB4gUzERDArMKSCqXgdKmwUeD/mRkpQv3A8PHyuqHVmUSgpKaa/D5vYePOAlSHrBhWgFCZdwg3L0nD19etOMuE0d5nx44/Y9EiPxFr51JLY2MHTp82Ij5+9dC8GHoaKRIE0Lp4y5YtAhxQ70ejj23btgk94tVXXy30jaQBOeHKysoE28AkTDQ+og5yKL6ol9oZl/N51DF+8MEHuP766897jIsxCNKW4lH1j68vePzur5+8y+31BL/48b3wD1yAmBC/C9ogyABhwupHw++6ufmheVOcP3a5lylmZHwNJ4rVwnVv/iSgta0F+Xm5UCm9wpqc4y2zRLL9gUz3csw5dzhXKPCp1+RzSWhdIehjUs80ZCVlzEI3WC5mBJukmAlSWXgN6rZZn2CU7fA6bJcfGm3xmByzgwCX9DV12myP15bDgpPO5n1z7vIe+RkR/f6//w2kpJxVMfgYhNF/I4cCEJq7nKhtt6OmzYb8okrbkX0jG2q5Z+9QIOzbvQ32jmokxAQLMN7ThoeJwk5kFwqf+yULZ5xlEBqqzgUInPs0kuuye1FW60J43BSsXrvubHC70R+R4b3ihVQMHZ12wbBEhIcgKSFGuHa3Wzqwfddh6PU6zJmZCYNBJ8LBkzVg5NuTOYXCIHRyRgrSUxOF+kFDgEAGofpCAOE0aswrRxwgUP30/POPQaFohE536a6mVqsT4eGZWL36JiQkJPU7GP2GWibFwUlGfWJhYaHQ+XGh5jEu1lyE6Q7JxdlisYiFmAKBCzQti8lAUPc4mAXY6aRHBOByAQysxw8Hy24HrFbpu58fd4fnPx/P5e/dWar77YDLsUK/AIGCdvXPk559eOeLq+aWLjucG6c+VPKfiA6bhKgAQ59eDDJAoLHjj5/7j6syJ7j+kZ6UElxYdQNCQ+IwOx0wBwAbN24UQpgMB11XKWxprzJ9+nQBCnl85cqVOHz4sJgr+fn5mDlzpqg3ceJEcZwsEy3S+XLTcI1A8siRI0Jgr1u3TgCHt99+W7BUU6ZMEXOLc43Ak/Pq2muvFa5v/I3Agu3wGjRWI1XKOcj75PWZ64Pn83p0n+N3ushxzhIkBAcHC6BzsehjlzxHfADhkrtuuE4cLECIDNAhRKeAxutAo8WOdpcKLQ50A4SRTdbU+5m5zh4+fBDF+ccRYdYgJNAArYaunOdHBPQLioKtowkNlTndDIIXdPWz2r2ob1dBbYrD6rVXIzY2dlBr8XCNw0i1Q2PXvbu2oLEqGxlpTDGvFnkrJFbSiyPH82Dp6MTE1ESYQ4IEO1DX0IR9B08KcDVnVqYAD1qtpk93YcEguBxorM7rm0HYdRq15itGHCCMVP/1126fAEGamIeRmJgodnRc9GkIJAt/LsIyPcydm0znyheTwQAHibu7wbIHp08D+/cDra0AkzzOmwfodMDhw0BhoQQMrrzyc9DAPE8EFAQGJSUAY6vQ85IRJzs7ufuUziHAYArwyyAvlOhTCjSCq95lIACB56y5+/6vPXbf9menptYm/PPjK+FS3Y+EsGho1crz3ByL8wrvqtjyxEaeN33trXO+dpXmj4vmR83PLV2HVXMXY2KCtChRQGdlZYGGalQhvf/++2J+0PVs9+7doGsbVUx79+4VFu4MjsUANhTGdFujuomg89577xVt0UqdIJLqKrqtrVixQrTPeUUQQBZBdoUj08D5xHZvv/12YcRJcHDLLbeIRY/3QmHP+ck63IXRXob3w8BfnMsENQQyZChoUMd5TIv83u68/b04A/rdBxAG1E0jWWmwAEHn6kRL1RnUVFbA7lZg8pyFcGj9kFdUaT+69+jrZZ/86nsjlazpQv1Ade3+vTth76xHWJAWOo0CRoNWJIGTi39QNKwdTaivzIbL5UGn1Y1Opx6d3hAsXb5GvKuD2aSN5JgMZ9tce44c3IOywiMiUBk3p70TW9U3NONoVj7Cw4IREx2BkCB/AQiYgXXXvmOwdtmFd0hSYrSwUWCMCZ1OK26zf4BQiLrQK79cAIHCiWwAd3oU8lzIDx48KNgChkjmoksjOtLHXGRJ3Ur+2VJoZi7i/I3Cjf7M3N1x4C5WKMTdbkmQHzoE5OUBQUESEzBjhsQicL1dvFgCAwQAW7dKdVevBqqrgbY2CVSkpUnud4sWATt2MEcEXUCAU6eExxnWrpWAwngunPgvvPACfvCDH1wyQEhc/qj+imVFu370nd1zwkPa8Y+P70Vc5C0IMJl6AYT8uuL8orsrPn1ChDxMzZwzff7yCc+uuzp+ZWz4VKQlXosIs2SRSBaJ401mgIVqJe5KCCYPHDiAW2+9FU899RS+8pWvCOG/fv16sfunPzuNoWQhznpsg+0RFNCVjfYqFNScM5xPBA1kCcgosB4D65BqI+Bgu++++64ACAQevCcCFN4LWQK2wfPIFEydOlWoyAhwORdPnjwpQALd5DiX+bucT+Ric0LQtS7XwF3ALgIQZOAsg2uZPpZdJOX3iP/LAJvXZuFvI6YWGc8vxSXc22ABQsHhPSjKOYEFc2YiJDwKfhGxaHUqR13F0PtROV/4vmQdPwJbRyPCgjTQqj1QKrwwGvUIi4hHl6UJRfnH4VL4odlqwow5SwWD9kUEBj37h+vEiWP7YW2rQITZBN0FAofl5BWjvLJWGHoGBfohMNAfRoNebMYYUIm2HcwZlDkxGXGxkecChKrcPmffpt1FqAsjQMgYNi+GvmwQLmHqD8spfTII7DDu2riLo6DigsrFlgsTF14uyqR7uViTBiY9yx0iz6FemIiXuzfuKkkV02+adgsXKxYLQDV0WBhA2UPBL6sRGMyR33NygDlzJOHOz+7dwP/9H7BiBTBlCrB5swQm4uMl8HDttaTEJSZB/n3BAgkgRErjP27LYLwYIlb/yDQvozM2OaYp1Oxv0ZkMLjVUHqXX7dHuPJr6u+9+5VDa2kX5OFMZjD0nfoOEmCVo6HL1CJSUX3emoPC+sk+efJcdsmTNfTMjkuL/cM3VpiVpcV1QqdZj7mQpLCd34tx9c15w8aHg5gvK0LsU3BTotE254oorBCigYCaLwPPITLGQFWA9nkfwQHBBRoKFLAHnGIGoHHyIoXcpKBmch8wA65Dh4jUo6Dk3CTJ27dolrJe5W2IbsrCVXebISJBFYN+yUDXC6wxExUDhzCA//Mu5znuWDSnl68iC/KwRJOMgcPJ2uzm+VLYF6yPnIMpoxqmTJ4XbHu+BNKmc1pvAnECJ6hgCc7ZFoE6ATUaJ/c5r0zbjcrU8H82XbrAAQdnVgsqiPFgtbaisbcC85VdCHRQx5gChZ59xHhw5fBjVlWfgdXch0F8Hc2gonDYrSisbkJw+S6j5Bsvcjua4DPe1RLbZ44dgaS5FWIhBMCx9FZfLjWMn8tHY1IqYqHCEBAcIW4TgoADhLireZbdH5JFh0er94HE5hOqmLzfHzbtLUBe++ssFELiAciEmO0AdLZEr/6fwp15X0DpHjgi1A+sQIMisA3dpXPC4+BMgbN26FbfddptY8C5WmpuBM2eAuDigvh6gmoEMQkeHxB4kJAAnT0rHmpokEJCVJYEKJjuj52VjI7BwoXRObq7EJFRUSCoHrtFUUfDv9OlSm+O5sI//9re/CSq+d+mtYohd+bOYxbOq714wvfLG2IjWcI3abVLAo9ZoXDAZbIg0tyMxphlqlQef7puP2pZfQ2WKPieSomyD8MAfvbrW+vyr48Lczy6YXpXodu9GaPBSzMpYDr3uy+uuSlDM4DxyhlMa3xLU8J2gACf4YWwALsq0iyCQiD1yBG3h4TDOmSPA9R9yNuA7mWsxOTYVjzzyiGBbCKBYV2ZB+F4R6DDEMIEWQ53zfSQYIOgmoGBdgqTxlBJ7vL5LgwUIZdlHUJqfjckT0xAcEYXAyHi0OBTjCiD07GuCYwJKbti4DjNk9YjY04zXAe5xX9ywnjh+BM31xYJh8TPp0Ie5hjiDjHVOfjGqaxpgMhkRERoCtUYFk1EvQIP6LEDwFzYIDZV0KT0/DsLmPWdQH7YGIXFfIgaBAr6nFwP/5+6QixSDmnDnxAWR1BUXR+7WODhcPLkj4zGqGLjL4a6NluSDycFAAU/Bzg0nAQNZBdoX0ECRNgYEA1TN0x6Bgp5ggioFCn+CBZ7L42RkqbJgGAaew00qkwaOd/aAE5hCgztn0ur9AQTgUeV9T+St/8ba3F/MzqyYbtTblICbr0GPSU19pRIulxb//PAmWHEXumA4G2qZAGH+93/9QXglJlqach6cPaH5qpVLw6ILyzYiPCQcEeZ1mBB3vj3EZbBuDMstErAxih9ZMqowKKhlrx0a43LnT/BMlQUFPOtd5/XiRGcnolevFsL8kZ0v4Y+3/RSLp8wREQe5mJMlIKNC2w2+NwxNTDaBbfMcqmoIRFiP7x4FAo/5ysB6YLAAwd1WD2tLHTx2G2xuIHpCBmxq47gFCAPrhS9PLYLpE1nHUF2eB6PWgZAAGiBeODAZGYOGplYUFJYLTwY/PwOSE2JgDgkUMocMggAIFVLMid5l894zaAhf++UGCOwU0lpcpLgAcjfExYzfZb0ordRpc8CFkTQvF1TWI2AYrA6MNgM0LqRNAlULsvkCUR9VEVqtpGKQo0S1tEgggHX7KmyHBopsh+fIEX953OGQQATbHG9FDkDVF0D4+OOPN1ZXVz/9yCOPtAEoDV/xK+XD39l399WL8x5MTaiP0aidcDhVcLrUcLvVsDm08HpV6LLpUNfkj7e33YeI+EWoa7eJXAw0Ulxz9eMH1W7c2FS+beKCxNxJ37jl1mVl1dvQ3FaCsJArMXfytGuphDoAACAASURBVEGP5Xjr00u9HwJe7u7JJJAV4w6ec53vAN0uCY7JBvB/0p0Exlc5nTjS2grllCkCBDx97E38/d7fYFLMBGGs+eCDDwoVCRk6vjsEAExwRDsMemSQkaB3iKzu4/tE1o7MnK8MrAcGCxDaq0pw6vB+LFkwB0qdCbrgcLS5VD6AMLDuHhe1uG7m5uagJOcY1K1VCIoOhj7A2G/URAaQard0ChUDWQQJIPgLFUN9xak+n+2DvaVoiFj35QIIPVUMdA9joQEaKW/qd8kkcNGiLpQ7JwIC/qUagfQq1RJkHLhYkirtz0Cxd8+XlUnsAKN+kT1gtFraERw7JrEKFPazZkkGjBxECniqlQkSWI8qCKoiWI9MQmUlcOKExDpQJcx6bJvXYV3aJ/A8HmNbBA0EEWQbxip9AFkauuNR79671NfXe7Zs2ZKjUqmy169f7zCZTC8qFIq9C7/3w4TvX7vnZ2sWFNwYGWoJOHgqwXEsL06tM8Uo1aoA6NQaKBAIJZQ4URIDk3kuGjrsAiDUltX/cNnyHzkUQMapj+4/8LW1E358/wP/sepUYRZOl36GxJgpSE9cLjIMfhkLAQI9M1gIjim85cRDfEfIHnCnz8WJFC8BQtLJk6jnrj82VgCA/y35BA+vuA1JwdHYs2ePsM0g8CYrQJaNfxlKmIaVHHuCbKruaBxMDw++YzzG774ysB4YLEAI1nrx9t9fEkmQrC4P5i67Ag6Nnw8gDKy7x1WthsJClL//LqoD1HD6KREdHiDYhMFsWGUbhAsBhI8PlKEudA1C4jMRZNKJBE1DDbVcU3AYNy1Ow1fXLh/UvY5E51/QSJEggRSnrBqgF8Nrr70mdjcMlsS4CLQ/4AJHPSyZBC5ypF65gPJ3sgePPvqoABCDKQcOAPv2SQKeuW7opUBBzcB0tHUkw5CcLAl9CvPQUMl7gfWpkqA9AwECmQV6Pbz3HpCdDcTGSm2xLpkIghCqI7ghIzCoq5PaIgihmoOulMHBg7nz4at7oUiK3EHu2bPHe/r0ac/8+fO906ZNsxkMhhc6Ozuf9fPzq73hR99a8J3rjj65aHrF4uP5sZ4nX7xSE550hTIhKhTh/lrEhZigVSvQbPOgscstVAxZWaebXNagv2ZmrFd7vPjnjhfSlXffffezTPdcXFmL8uotcLociIu8EpMmJAzfQ37RW5In7OTJ4kl9gZJGf8AHCxCs9RUozs7CpPQJ8Kr1CIiMGzMGgYa9BKZyZFoCRTJRBI1cjwkUe3rfcFNGGxg5uFhfvc32uIkj40tQKxvHynWpOuYazk3eZW/L0NgI165dyA/wR4XNgvaWKmgUNsRGhUjRKc8PJ3Fel+m6GYS6ipPn/WZzeLD3ZCOKlJMRnjYPYSGBQwYI9Y0t8DaX4NaV07Bk3oyB3OKIvlR9AgQ5WROttSnsWbg74q6Iwp67HAICMgTc1ZAhIKAgIKAtAv/nboiTle5oA2EQKNS5o6cQLy6WXBIpnKlq4M6ftgV0fVy6VFIV0Djx6FHJoJFMAo0Wd+6UhD3tFHgeAcPttwO//a3EJJA9yMiQvB/4P3/ntWTPB4IIsgZ0iST4uO8+qd2xKH15MdAWhMaipLI5RrRP4GLg8XjyQkNDfwlgw+zZdylW3FR/4zfW5v4sNaE17aX35ijL7XcjKjQeUYG68yIpVrd0Ijunyhqkn/aZ2Zz80l8exKa0tPSpMkDosjmQU7QfBWVHkZG8BFNTZ4mobr4ygB7wAYQBdNLIVhksQDh9eDc6muuREBMFhVaP8IRU2NSmMWEQ6LZLtS43XnznqW7ih/YptIehmy5BAzdotAPjh0KfawLXChq4Un3FNZwbO8YXkTdzPM66ZKu4pnM958aPhZs+qs24bvM3ApG+0s6P7MgNQ+v0e9+2TQTS6QgIQH5+Huqrz6ClsQoKTwdSEqOgUl0cJegM/vC4nagtI0CQjBRdbqCB0bO0ZgRFTURWWScqbAZEJqQgNNDvkhmEhuY21FeWYE5SML66ah7CzWOfs6VPgED1AXWg1LNyorCI9LUej6A8OJko/OUY+j0DIlFwyUGUWJfqiIFQOu3tkhEhwQB39RTQJB5oJ8BjBA70WuBOn8co7Kly4BwgW8CASlyPab/FOUGbAqoSoqIkl0mqKngO2QECCzITVClUVUkAgfUJLAhEqNLgOV//unT+WBQi/X/84x/43ve+d/byHBe+xHxZydBwF5GRkUE/fldkZOQ7AB5TKBR5icsfDbrzmwcfunldwT1erzLs1c++Da3fGkQFBZwHEGpbHaiu1FgUzpA/axD9q1ceVdjS0tKmyQCBY3eioBBlNdsR4BeOlLhliI0YI1plLAZiKNf0AYSh9N6wnDtYgNBRW4amqlLknjqFgGAzFl+5Dk5dwJgABHqxEBjwHZftVOiSy+ijsrEs7VbIMHz00UdnBT7PoQuybDPDSKVkg3mebFjODR+BAP+napgbEoINqs74GzeBBAhsm5FLyShcdoW7xI8+AubPlwQIyB63oqioEC2N1airPoPO9gbERIUgMiygz8fTGwOEDUJt6Ql4vEBDqwN2BCAqPhNxiRORPCEV9c1t2HooG8dOVyIwNAppqakwBxjPpnvuL5tjXXM7iotL0NXWiOkp0bhy/lQkxET2azMxGuMxoFDLo3EjPa9BoV9TI+3wzWYJIFDYkzUg00C7A7o9UqBTyFOoc+dPYU+TCQINMgRkFjhHWGjUSMBB1QKPsT4LPSPYPlUKPE5vB9ajbQKx0VgFVBLBO0pLBcLvWeSw1/Qy4UtNi3rGmFi6dGmDyWR6EsDLCoXCcsXt9yTfsr7gd9etKFmXW5pg2JJ1HxKiJyO6d6jlBi0qyuz1Z4qP3H/09e/+i9fqDRAaWztQcGYnSirLMSPjCkxOSR3tKXF5Xs8HEMZ83AYLEDrrynHy4F74mwyIjIlDXNpkWLyaMQMIVAUsWbJEeJVRyJMJoD0YA4JlZ2eLTRzZWoIJRgSVjWnJLjJGCdUOjBFC4U8bGrIJjF3DWDX8cJ0hK8HrsH1+p2qDYILqC9YlQCDbcNmVPgCC/AxUpRAodFpa0VBXifracjht7TAHmxAbFQqNRopSSYDgdjqRd+ow2mw6RCVMRkLyJCQkpZxjgF/f2Izs0yXIOVONmvpmkWY6MjQYCQnxSEuIRnxUKIwaFepa2lBSWY+K2kbU1NaBrAE32/GRZqQlRGFyaiIiwszjpqvHJUAYN70zxjfSV+ZC4ZbT0ID9+/cLv3i+1JxgfLFTUlL26fX6HwPYq1AovLf8+NtLb1x35sWFU+vTNu1dDJv3DiSGh58Ntcx0r+XVfigo3ld7OveIyObYF0DweL04dOoEisr3IS1xKjKS58DfePHImGPcdePj8j6AMObjMFiAUJWfhYITxxAbHQGjfxDi0jLHjEGgoKYtEsEAhTl39GQMuMOnwOY6QIHPdYBxZ6hy4HduGuTgYDyPqmCqHWhUK+cf4U6a9bieUDVMYEF1MRkDeurwuiw897KNuXERgCBPTD4/WdmG+nrYbR1obKhFbU0FrJ3tcNo7RJZHgykIRpM/UtJnIC4hWQCnnomzerZVXdeAqppa2BwucGPV0toGpdsOvcoLlVIBh0cBh1cFpVqLAH8TQgJMMBn0Yr6Fm80iWNN4Kn0CBE4WBt4g3TQW1FJpqaROoGcCjRJp40UXx48/lowSyQ4sWyapFgZaeF53wsCzdgUMzEQGgSwFWQOZVRhomyNZjy8vaUOi996FKh5GKeQOgfW4kNCnfubMmValUvlnAM8pFIrqzBse1UaHtO5+5M4jcxOibXj7s1uQMeEa6LVaVLe6kFsWjA5nPbJzD9V+nqzpfAaB1y+rbkBRxQ60tHswM2M5kmO/vDERBjzuPoAw4K4aqYqDBQgGTxeMXif89Cp0OLxwav3QbPOOCYPADQIFmKzKlbOgyhsHOWInwQCLnC2Val2uC/zbM5Q368nq3t4u1Dwutyv/lcOB9yUMR2q8hrVd6pM//PAcFcPF2pczwZJNcTjscDps4qPVGREWHink4WDi+bR3WAW7Y7N1iZTRYvxUami0Osm+w2QSeR+YNGq8lj4BghxzXrYzGO2bZ8RD5lDgvGfuBIIBqhL+9S+AARlpTEi3RNoH0KOB9gv0Bty+XbrT666Twi5T6NPI8OBBCVRQXUBVBY/RHochnXmMLpNUS8jtsH16QNAGgaqrsRg/Ivg//elP+OEPf3he98uol+GGCRaI/IlqSSUaDIZyhULxEIDNCoXCMeGaX+1fu9w1/6ff3oLK2mAczX8QaUnpOFrkh3a7A53uSmRl5fULEBwuNw6ePIDc4lNYPHMpJiZNhGqsfEBHe0Je6vV8yZouteeG7bzBAoSoAB0i/LUINGjQwnTPFgeqW61jAhCGrRO+rA1xV/nWW1J4Xeqku4vT44JaqYKiHx8BrrMyqPoyha3uOV36BAhEn9RdkT2g7mo0SkOD5HZI40F6M9Bjgd4EtDngLdC2gEKfqjAeZyjl224Dnn4aSE8Hpk5lrAbJjmDNGmle0F08MVECA2QKaKRIJoFgg94LDM1MAELXxvJyqV16SDAyIwEIgQnZi7EIonSxXAwcD7I8VDPs27dPWBkTnfLv5MmTGT6RLMJvFQpF1YT1j+9fvGz6/DmJW3Dr6sPYvHsmOh0/Qk17CIz+1ahta+sOlJR/QRWDPP5ZBaUor9kDgz4K09LmIjxkdObGaMy/EbmGDyCMSLcOplEfQBhMb30B6772mpS1j4Kgu7xRtRvXR86DQTUOo+ONsyG4YLpnCh4ayPU2khup+6eRIAU2AQCFP4W97IlAIU01wGefSbt9AoL/+R/gjjuAJ5+UmARGJKabIw0cySAwiRPrMfwy2QC2L+dvYLtkJwhK6PZIVQVVGmQj2A4NJJkSmgCD1xsLQ0UCACa6+uY3v3lel1ssFm9hYaGnpqZGabFYFNRRUs0QHR3dsmTJkjcBvAggRzAI6x/fv2L14vmhJjuWTfw/zJpYi9+8chsyMlaizdFxTqjlC9kgyDfQaXXgwMkdKCyvxZULVmFCbMxITYcvRrs+gDDm4+gDCGM+BGN7A30AhD8Ub8L3E1bDpPbZUfU3OOPGSJG7ejJCZK1lsMBjFNRkEEjzM8AR/6fAZnRE7vh5TI6VQCBA2xqyDXJ8BDIBFPxsi8CAagT+ZZ4GXo/f6TrJOjxGLwa2wevxOrz2WDDppLfoy9xXkKnq6mpPTk5ObUpKir2zszMpKyvL7e/vvzsjI+OPaWlpu5moUKFQCMUkAcLKNYvnJ0YGw96Wj2+tfhWt7QZsOnAX/EOjBwUQ2N7uYzkoLD+MGRNnYlLyJOguEue8v8n3hf/dBxDGfIh9AGHMh2Bsb8AHEIbU/+MGIPR8CgpzflgoqGUbAB7r67sMLOTzKNDl84fUO93XH2obl3q+bCTU+3xmc9y6deuWadOmFWRkZFzZ0tLyj5aWljc8Hk91Zmamo2d9GSAkR5th7wiFtfXf+MUd7+O1jzJQ57oNzV3OAasY2G5DswVHcreivlmFK+YvRkz4ZegffakDMtjzfABhsD027PV9AGHYu/TyatAHEIY0Xn0CBBq+0ZKT9gdjEW6TBoNUF5AFYORE2hdwl8/YBFu2SDt6hkzmsQ8+AK6//nM1AIEBVQc0cvzGN87tGzIDVEHQYPFiphW8PttlwCTaLcgMxcaNwLe/fX5/006CqaiXLx/SWJxzcn/pnj/++OMN+/fvf/Sll15qAsCPk66Nve9ABghRwXHw2sORGV8FS9uLuHFtEX750mogYPagAAKZjU/3H0L+mTysX74KSTFxYx4OdPh6fZhb8gGEYe7QwTfnAwiD77Mv1Bmvvy4ZKfawQRisioEupLQJo0sp7fNoEC6nX2dkW+YkYkDB4TZkJINMzwraAzLfC11cR7v0CRBG+yZ6X49eB7QDiI6WBLpsg/DSS5LHCo0OqUageoEGhbfeCrzxhvT/PfdIoZTp0shcCkeOADExko0BvV74oW0CmQjaHrAdWcVAYEA1A6Mo3nCDFO6ZERipuqBHRFGRZPfw979Ltgs0YqQtQ06OBChuvFECEwQn06dLoIUumzS8pBEkf+NclcNI89qffgpcdZVUp6cqgxPyz3/+c59eDGQQPvzwww133nnngwAqLzZewgbhiuXz/bXTkB7fhHgzUFldj4yEP8Jk0uDZDdegqqazXy+GntfILa7BidM7ERKQiAXTpiPATz/WU2Z8Xt8HEMZ8XHwAYcyHYGxvgABhwQJpge0ugwUITKxGIc0YEcxTwcBVjGT5wQcfgKneGXWS0Sr5l4GluMFmPQp0Hps5c6aIhEl3UaZ1p4s63SWZV4MAg8KfDgGMWcGYE8wGy5w7R48eFZt02pjxOO3Mpk6dKgLoMZ/GokWLRAyLkSx9AgTuXhkDXM5SN5I3ILfd0waBAGHTJskWgUaCa9dKMREoWOmtwkROjFnwz39Kdgj8nbt72vOx3jPPADNnSjEUWL7zHak9Cu6rr5ZCOe/ZIwl5lrlzJeHNZH1kAegKyTlFw0hek6GZX35ZAhZkFOgBsWSJ1C7BA9kOGkPSy4KAguCDIIUAgMwCzyEw4HlkMfhddtuUbSQef1yyf5DLxdwcBwMQUtc/uX/hwpvnJ8UrER9uR5S/Fhq1AtsPH8Rd12/CO9uj8O6ulNry4tJ+vRg+HysvPty9FYXlLfj6lSsQGxE6GlPk8ruGDyCM+Zj5AMKYD8HY3sAwAIRNmzbhvffeE0GjGPb6xhtvFN5jjGXAjKxkFliHDAKjVTJ43bRp0/Dyyy/jW9/6lghsderUKQEOCB4+/PBDZGZmijp0VWebVCcTTDD7MTO/EnwQlKxdu1YACubfWLNmjciHxDQIjI9D9/Zbb7112JmLngM2bmwQ6OLIHAr0SOEun2GTGfOAu3kKdOZLYNwCCmaGUObOmyzBTTdJgvz55yUm4fhxyV2SYIGMAIUyhfeGDZLgp3AmK0EBTWBAoECVA+0YWPerX5U8KHgdCncKbXpX8DvVCwQSPP/ddwEyGryH//5vqW2qQAgsyASwjRUrJCDD+jLY4LPRU4Jl1y6JqWD7ZEboYikXUlmbN2/GV5hcolcZKEC44W2vqm3Pjr0TUhLmxcdYERmoOpuLoabNiuKSzfjO1Xl44DeRdVm5irsqPnvy37xU71DLfb3he44V4ljeQayavxDpiYlSdjRfObcHfABhzGeEDyCM+RCM7Q0MA0Cg0KewZvZiJsSSA1ERIFDoM0IlmQAyCxT+VMPefPPNePXVV4Ug5/nc8BEU5OXlCSaBobDJEjDYHVUUZBQYOpsRLuk5SMaB7a9bt04wCYyQecMNN2DHjh3i+3e/+11s2LBBMMyDCd402MEYNwCh541TvcDdPIUvBTptEAgKqELYulUCELRBYLyEggLga1+TBDJjGrAOgQHtEFaulL6ThWEQJTIAFNi0GWBcBKp0GAOBOR2oDuA1yCrQo+GTT6SdP5kpXo/3wnq33AJwzjGA0qpVklcE1Qe0V+B9U6VARoHt0E2S3hbM6cBcJ7wnOVMk3TmZA4KsxhVXSC6YA/WWGBBA8HoV9/we85paCl+JTOhMjzKrEBmg/TxZU7sDZfVNiDRsREZiW9MPfh3wi8NvPfUXQOEdCEDotNrx722fwO404boV8xES2J3cYrAz8ItcfxgAAhcburw67Hao1GqRqOtyiWwnJ27jzmogCdtGYir4AMJI9Opl1OYw2CCQ0mdERDIIVC1QrcD3kDkxTp48KZJdMQbNli1bBOVPuz2qAsgOMLkW65CBWLlypRD43PixLYbHJ2vAsNkM90zwwQyctD1gGG1m8eR7w+8EC2T1V61aJc5h+2QWli1bNqLrwQXjIPDh2RH8+MrAeoBAgrYOZD/IhNCG4lILBQMNRRne81IYhDv+6I3VuPHTI8devXXG/MSApKjgcwGCxYGaNhvKqkqxfuZ2d1Wd8tDf3lXftPcfvy0fCEDgPX285xhySwpxw+qVQs0wVkLgUvt4xM8bAkCQgUFTUyNys0/h1KksREfHYtbsuYiKjhG05mgBBQp67oBIj3K3cjGQYrV2AR433C4X2tta0GGxIDouATq9UQActiHC/wo3I69Qx/FZRVjh7oyxHBeVSg2tXg+1WjOkYfIBhCF13+V/Mo3TSOsOwUhxqJ1AVoDswOLFi4fa1Kif3ydA4MtK/QaREOkUXxn9HuCC/Pzzz+Ohhxg1+dzSH4Nw+2+9/jqN5yF4vSXbdz/3kyVXzJ5EN8dzGASLA7XtDtS0WNBedxjfX3em9e1PtC+9vsvwS7+C11N7pnu+0NOX17bgvc8+xZS0SVg0bSL0Ot9cOaevugGCMyMdDq8br5Rvw7rwGQjXBYkgLRcK9Ur1UlNjI0pLS5B98ihiI4MwaWIyausakXu6HKER8cicPBXh4RHiHR0pYEbBzZ0T6U7ugmpqaxEVGYW5c+eIDKJM/NPz2gQSB/dvg9LaCqXDKvLZU8A3dTgREJEIU2CQAL0dlna4HHYovC7oNBp43U50dlpg7exEV2cH4HUj0ByOhInTEBYZC5NfwCWDIR9AGP21a1xdcRwAhHHVH4O8mQvmYiCVQmOLkdRvDPJev1TVLxZq+WIA4dFHvdr6IHwFHiS5lHh969Yn3mKgpAsBhKrmDuRm5zjnJBXVLp3ptb/0rvrh7I/eK7vjjjt+9+CDD67qT/i8s2UXKmot+Nb6ZTAH+Y3IGBGwyolqRuQCI9VoN0AoTAjG/pbT+KTuODID4hCpC8ZNsYthVJ0byY0ClnRifV0Nso4fRoBRhelT06FRq87eITNrnimrxpmyOsQlpop89AQKZBT6G6vBPiYtpf/xz9fwwqtv4Ux9G7y8X5cNqRH++NED9+CmG79xjuuV2+PGgeOfIirQDzqrHSqPB6ruwCU2uwPtHZ1wuT3gd6bDdbpcMOh18DPoQT7B4XDC1Z14SKlQostuh9YvFMkZ0+EXFAKT3+BDe/sAwmBH/QtW3wcQhjSgfQIECicaXdCtgxaVvjL6PUAG4cUXX8T9998/YAbh0Ue9yoYgzPF6PNd7Pcp3nv8hjqVc+8S+/gDCsWP5Tcquwv/7znVY43Qpq//6/LEXbr5q1b0DAQjH8svxwc69+MaaZUiNj4JSOXyZyUhHU2C2tjSJDGgUhHT7GW5BOGKj2w0QDkRrcFfWX3CyvVRcakXoFLwz578QopUAlZzCu6GhDjmnsuB2WDB35mQYjBd2H3W53DhdWIraRguSJqQjNi4BERGRgv4fjsI14K9//SueefF1VJpnA6nLAZMZ6GgAsjcjsGIPXnvxT8KyWt5EuN0u7D32CcIjQ+CxOmByuaF1uaHyUpWgEM/pcDrR3tEFq40gwQWH0yWO+5sM0Go0cHu8INDwuL3wej0iIVh7lx3+EYlImJAOU2CI0Mda2lrhdtmhM/hdFDj4AMJwzIbLuA0fQBjS4I1LI8UhPdEX5GQKR9qB9KW3uhCDcPdT3kSlHt+G132sATWf/es/46w9Iyn2pWIgg3D8eEFteeHpH920VhE0a5Lq/s+2NxQmmtPMDz/0Hwv7E8Zc4F94+yOEBofi+pWzYNQPPQEKGYOGhnrU1dag6HQe2lrqAIUaicnpiIqOQ3xCwpgE8Br01OoGCF0TU/DNo8/hg7qjcHhceHbyd3FP4lqRLIb+0jU1VSgpPo3WplrMnDYRwUEDD4hitzuQm1+MDpsHiUmpiIiMEdbWQ1UN0tr6xz/5GTbV+AEzvg4YevjgumzAJ0/h+qnhePXvfzub0I0A4dNdG9DW2gaNRof0iYnQezzQOZxQu71Qd2NHAgKbg2oFKzqsNtgdTng8XqjVKgT4GUXgLbfHA4Ig8ekGDF0uICY5A+bQUDRWlcLW0QL/sFiERSfA4B8Eg8F43hD5AMKgZ+0X6wQCBLqIDSEOwherQwb3ND6AMLj+GtXavXO2yxfvCyA8+Jw3yObBzQolnF4XNr7wsKKe9QcKEIrz8u9aNEN7JCNZ+dMwk/UmR1ey6/47vhcxkJTO2w/lYufRHNx74xqEhwxcuPXuTNkws6a6ChXlJehoa0B6ShxCgiXhlJtfguY2K+ISU2AOjRQWv1SDjdvSw0jx2aJ/4+miDQIgfLbwV0hVhaG8rBz1tVWoqjyDSWkJiIm+dLaOwjY7rwhehQ4x8UmIipKAwqUaMm7duhU/e+JpHDTMB9JXnt/Fx9/FhPqdOLx3hwjywkKA8Nnu91FRUYPSomqkTUzGxMwkBPkZoXe7oXY4oXS5zqodCATpDdNm6USn1SaYBN6vVqOGUa8TDIPb7RFqBwEgVErBKNDYMSosWLASdocLLV0u+IXFIjAsGn4BwefMCR9AGLdvx+jcmA8gDKmfL6hioNUl1QvcidBfk4VGSYz+RF0pw0/SToGFCwRdNeieQSMkGlmxMNASKWFGhuJxFi4AVF1wYWcbNIJioQ41PDxcLBI83kWXADAOQaAIbclrsQ26fLGwLiNV8XweF5bRoPthrKBZ2QatR1lISfJeuKDweAcjMIHhlv2FlwDb5HHS+iw8RncVPjfb5vOy8L7ZB6S9ufNjYf8wehZdudgGjTtZmGSJ7chhq+W+Yj+xv9hXrM/fWdgGz5H7Sk7WxChcvUtvgPDo215tXTXWwo0MhRIbn39IkSefMxiAULFIt/lBI6ZHmRVPJ8ckrZw3bZ0iLrL/IEjN7Z343SsbcfWS2Zg/dcIlxUTgOFZWlKOmugKtLXWIjwlFVHgolL3iK3AsTmSfht2pRHRsIsyhEcJgbrjDnJ7X6ZdyoAdAONpajNuO/QERygA8EnAV1BYbaqsrEBEWgIlpyZfSep/ntLS0I7egBHpjIELDo5CQkHRJasKdO3fip489hX2qaUDGakCpPvd6R95AWutBHNi17RyAsOPgZpQUlaO8uAZ+fv4IMYcgZWI8zKH+EZSnlAAAIABJREFU0KsUMNCexOaAyu2BulsdRQaBAKGjwwpb9/vN8VSrFBBXVSig0elgMuhhNOjOUzHx3e+yO2GDDiZzNALNkfAPDBZrjQ8gDNvUujwb8gGEIY3bBb0YqIOkkKIPKINEsFBQ0zeTApU+mbKQZKAHOUQkj8vCkD6gFORlZWWiPgv1lTNmzBAUMQNMMHwkCwWyHFGKdWVAQYFPV0sKEB6nYGWh7ymFKs/ncVmIM3AFgQOPMfqULKx5LwQIvCYFvCyUZb9THpeFe2pqqgADNNJiOzLg4X2zD1iX/cJCYDNlyhQBFFiX57AQSNE3lv3I4zJY4bOwrwgOeJy/s9CvleewXR5n3/O6VzEOc69yLkDwVt37B8z2ejxrvArlnqYY7P7XN6RMjiyDAghbntoYu+Ahw9evNX41JSH42YwJcyPmZM6Bv6l/vfbrH+5HdUM77r1xxaDUDBzPivJyVFeXw9LaAHOwH2JjwoU++mKF1DqBglJjhDk0CpGR0UieMGF82Sf0AAgdji5ct/tJpFpMWO6ORajRgEkZKVAzzvcIlJraBpSUVcPkH4yAQL63E88K8oFcjtHafvKTn+LTBn9g9s2S/YFcOpkU5bf4/ppZeO7Z3wnQzEIGYefBzSg7U4mKM3XQ6w3Q640ICPCHUuVFkNmE0PAghPgZYWASNpsD3i47lN1ujzayCW3tsFu7oFUpxTugNRkREmaGVqeHqoexZl/PQMahw+qCQ2WEOWYCouISfQBhIIP9Ra7jAwhDGt2L5mIgMqcAk3fWFIIU7HxxCQJkwUkhyV06d8M8Lgtr7oh5Ds+XGQEKae7cie7Ztiwge7bNYzJTQDaAn95tc1GSI1qxbd4TC8EB2+Y1ZaBCUCIvYjwmt817Ztt8Th6Xd/N8RjIcfD4el9kJ3jfb4v3JbXOnI6dk7tlXPJ/9IvdhX33F+5bb7t1X7Ce5Xy8GEO57xqtyK/FVADVKHTY/f59CokcuESDwtJkrrp41a1byf69ctXDRpORZmJyS0q/xYXFFI37/6kf4r+9ejfiokLNZNy80OzkGlZUVKCstQZelBSaDGnGxETAa+gcjPdu0dHYhL78EWr0//APNiE+QANiYFkbnYuQuhvskixQVhez4GLylLcMUZQgWJmXAOEzGhP09Z2lZJWrrW2A0BcI/IASZkyf3mUK8ZzuMCf/mm2/ixX/+C2WIgzZ9NVxB0XBptFA7HVBUnoBt9//glutW45FHfg4Cas5XoWLY+z4qSmtQVVYHo9EEg94Ik58JzU3NaGltgd6oQWxCJGLiIhDqb4K6qR3aLruU8Mvjha2tGS5bJ/wC/KEPDoI2KBiqAfYV1RE2qw31tY0wRSZj0oLlePvttw8+/vjjP8nJydl+ob6KW/vzh6bPnvbrmVNS9FEBOkT4axFo0KCly4laiwPVrVbkF1Xajuw78s+yjx+7k8HEutuKe+GFFx676qqrvh0XFzd81rn9Darv94H3gA8gDLyv+qg5LpM1DemJLtOTHU7A2b3v50bJ5YZYNPmdx8nGMswAoy3KDMLTf9nyizXfenuW2+MJhkL57gv/qZDomCECBAZKWnfd9c8uX7tyFS3K50yei/h+VA3UET/54geYmBSFr66aAdUFQi8TPJJlKcjPhd1qgU4LREeEIjho8C5s8mPy2s0tbSgtr4FKa4JfQAjS0tIFezUmhWzZz38uJQChnjw+FifvuR3epTMRGxwGDSMLjmIOTILnwqJStHfYoFIbEBQSJlivvjweyK698sor+Ms/N6BclwJN0gLodUFQebzwKhRQeL2wOyzoqj4GU80RfG3ZdDzx+GOCcSNA2LLnPZQUVqCmsgkmg1GoGQgQmhqb0dAoqebsNiui4yKwdMUcxCnU0LR8jmmVXge0Bh20gYFQ+Z0bZ+FCY8nns9vssFo64eyyo7O9EyEpmZgwb6kPIIzJCzCOLuoDCEMaDB9AGFL3Dd/JW48Bwf4SEODfUyUAoxfHhAFH8oGESClfxIJMCSB88OEnm/99OHJD4qS1MYDyg+cfUmT1dTeDVTGwDQKE791x57PX3/D1VYdzTiI8JAzzpk5HQD+qhkPZpXj5vX34/X99/Tw1Axdx2lecPJEFm9UCvQYINQcgPMw8bKKSxmwNDc2obWiFFxoEBodhUmamsGMZzdJcXQ37T36CkDfegM7phO0r18D6/34AT1zsaN7GOdfiltfldKGopAxWO9GnBnHxSUJV9znQ8uCjjz7Cz379exRaw+GdfDVsITFQeLzQOaxQul1wq9Sw64wiHoK3Mgu6w/+Hh77zVfz6ySfh8bix/cBGFOSVoKaiCTqtHoEBZC780NTYhMamJrS2tgh1ocmkxxXrFmNyULAACAq1ClqjHhqDBhrGdOhHnSDfM5/J0maBs9MGOFygwqbLZkfAhEk+gDBms20cXdgHEIY0GD6AMKTuG76T//tdINoMUAbPmwR8egSIDQPiwoDXtwJLpwJFVcB31koA4f2PjuftK037JDA07TO3EZ/9710KyTK0V7lUgMBIinfefe+q4/mncbr0DGZlZmJKajKU3YFv+rqW1e7E/b9+C/fdtAwzM+LOVqEq5fDhQ7C0NcHPqEFggBHRkeFQDGPMhJ73w4A7dXWNaGnrhN0JRETGImPSpLNqpuEbtXNboj0Fow7W1VQi8cghJL/6GvRlFeh88hHYv3E9YDrfDW+k7uWCu20w46kTJ7Ky0NLuxC3f/PZZuw2yB88++yz+8u5eeKfcAGv0RLg05wZzktvVOGzQ2rvQVbgVoQXv4cC+PUhIiMeOQ5tQlF8qGASNWtcdm95wFiAQJHZ0WBAQaMLKKxcgIyAQepsLukB/qHVqKFUKKJXM3XDxnhHRXts74OywwmN3QuGWYiaw0ODRBxBGe2aN0+v5AMKQBsYHEIbUfcN3MgHCunmASQdEhwJkFOLCAXMA8KcNwNq5kophRipQWdPu3birsfhIUeB/+wWYX/2f/1BIbibDDBAYKKnV0ondx06gvdOKZbNnIC6ih7FaH9d7+9NjKCyrx8++v1bYVxw8eBA11eUICTLB36RDdFS48HcfjWK12lHf0ISWdiu6rC4kJaeKHfNwu0bSnoJZ2YqLTsNoUCM0JBARVivMTzwNVX4hup57Cq6FcyV6aMyKAkqVBtaOZjTVFqKi7AyKa5W494EfngUIDKf8yGO/xrbTTihm3QRL0IVVNGQTQhur0GgywfPaHXj1r3/ELbfcLADC6bxSNNS0QKPWCu8m2vo0NjShsbFBCrXc0YGgEH+sWr0A6SZ/GKGEMTkaKqUK7rYOeF1OYUd0IRdbD22d2jpgbe+Cx+mCuleWMx9AGLNJNv4u7AMIQxoTH0AYUvcN38l/+xD45pUSCKC95e5TQEwoEOIP/Gsn8NUlgJ9BqLRxNK/Lu2FL2dYDh3f9aM9bd5+42F0MhUEgQGDb5TUN2H7oBMLNIVgyM/OiXg1NbZ245/E38Z83zsSZwhxEhAUi0N+AyMgw6LSjn6uBfdnZ2YXG5lY0NVtgtXuQOXkKkpMnDNk1Us7hfuLEcei1SkSEhcAcEgQ/6s7dbuif/gMUTc2w3/t9eCYkDt9kGWRLSpUWLpcDTdX5aKkvQWdbPZpaLKi1RuG+/3j4LEBgYK6fPf40DjYGwTv9K+gyXjymRURNCRrD4+F++3787I6v4Ve/ehTbDvwbOVmFaG5oF14M9PohQGhoaERLM0FCE9ra2xAcEoAr1ixEmskPRq8S2uQoGM3BgM0BV0s7XJ1W8SIwJoIcrIvJnBwdXXBYrHA5nPC6Jdfm3sUHEAY5Qb7I1QkQ5s2TAiV101J/KN6E7yesFvlQfOXiPeADCONkhlQ3AZEhn28yWzsksKBRA01tQESIMPJGWS2wZV+dp+L09vef+OntPwCslSMJELg4M27+8bwzOJJbggXT0jEtPf6Cqga6lj78u9cxIz0Ga+bFItQcPGjPhJEYEgIFS0cHmlvbUVHVKNQOU6dOuyS1gxwa+cCB/YDXifjYSAQHByIwwP8cewr1p9sArRauOTOkPOOjXBRKNbzwoqWuGC11Jehsr4fD1gGP24lWJuvqBRD279+Pnz/+OxxsCYV72nWwGS6eW8PcWIUO/2DYP/wFHvzKYjzz7O+w+/AHyM4qQnVFPfQ6AyIiw6HVaVFf1yDsD+jN0G5pR4g5EFddsxSpBhOUVie80WYYos3QanVQMEBShxXetk44Oq0isBIZC3tbJ1x2Jzy04L1I8QGEUZ5o4/lyPoAwpNHxAYQhdd/ontzUDhwtABxdVZ6KvA833HvPnQ8CGHGAwKdk7PxP9p1Ec1sXVi+cgtgIKXqeXKhb3rr1MyjhREh4DP7y72y88OM1o9tB/VxNqVLD6bDj5PFDaO9SYv7iVSKWxmAK6fHdu3eJVMZpKQkCGAQFXiDbIAOMqdQAXTd70eCDuebg6yqgUmvR2lCKppoiWDsahceIx+OEx+26IEA4dOgQfvrYb3Gwzl8wCJ1+QRe9dFBLPRxaHbq2PIkfXLcAzz77DPYe+wiBfiE4tO8k6mobEBUTKdQF9bUNaG5pRmMDg6B1whwehGvXr0CqwQh3hw3uyGAg2A9avQ46nUaAAhpHejpsaD5ZCI3LA6oWRFanfooPIPTXQ1+i3998E5g718cgXOKQ+wDCJXbcaJ/WZQeyimihDSSbqzxbt3y44c47Rw8g8HkbWy1486NDiI8KxRXz6cuvFfEtGJa3raUBkzNTERjgB38/P/z8r7vx/eunIzl6dD0I+hoXhVKyeWhrLEd9RbYIruXQxGHhsmtE5M2BFMaxOHjgAAoLC5A5KQ2R4WYRz+Pi9hSyNBs92wMCg672RjTUFKCrvQF2mwUelwMeEa744gChpKQEjz/5a7z5yTFg1k2wxU8HLkLDBrY2wKXWoPMzAoSF+P3vf4+80yfh8LbDYDChprIRNVV1cNidaKhvEF4M/EuAEBkdimvXL0eSVi8Agjc6BPoos3ClZDwSBkVSK/lRouazwzAMwtfFBxAGMqO/JHV8AGFIA+0DCEPqvtE5mZGei6olgLBuLmBprfJ8+OHoAwRS63kltdi44wRWzklHZ1MpzhSfxpTJ6QgLCxbAQI5/cDC7GscK6nDP12aMTif1cRUpRbQKne0NqC/PRntzJRx2qhms8JhSsWj5tf0CBBFDoLAQn332KTLSU5CakgiTkUG6eoUeHrOnlC5MA0SyBC11hehorRfAwE1g4JEYg4EABArmTz75BI898RSOljXDnbkeSFkC6PuOUUEVg8UvCI73f4gHb1qL5557TgQoa2ltxJmqfETGmOGyA4V5ZcjNzkdTswQQLB0WRMWE4br1y5GokQCCJyoE2ohgEQOBhS6rCo8HHqcHzbuzYOwGeQPpZh9AGEgvfUnqjCFAoJE23YYLC3IQHZOAa9avvzySzPWYGj6AMM7fE+5BG1qATw8Dy2dIcRGqq8YGIIiF2+XGi299ioNHTuBrV0zBtIx4YZTXOxeC0+XBw3/cimd+sOqScjMMbVjoKqeGw96JurITgjngd6YHJsXe0m4fMEDgS/673z2N737rJgEK+gsBPbT7HvzZVJu4nDa0NpTB0lItbAxokCiBAtegAAKvTgF/+vRp/O+LL+GNd95Hk8cAxE4HojKB4DhAHwioNEBrFUx5W9HlaIe6dA+2ffoxkpISUZp7BMbAMCSmZaCypgRuZQdCw0JRWdqI/XsOIzcnDx0WiwiUdM1VS84CBESHQBtphkKhEWkf1BoV3FQpuD2o2nIIAeqBG7j6AELf84jRX48dPYp9+3aLIGJLl60UYey/0GWMAMLevXuxf99OzJqaisjwYLS1d+HQ8XxMSM08J0X6eO97H0AY5yPE+C/bjgHhwcDciZIh7oXSPff1KEP1YuiZ7pk5Inbt2iHUCEfPODB7cjwWTY+HXtv3bvqdbfmIDDFh8fTPYyKMdHfTh55CvbEqH021p+GwdcLtpsCUd9KDBwhPPP5L3PLVpYhJmgla0o+HolAohTre0lotAJCsSmA0Q+rqz6oTBsEgyM/F/iNQKCgowKbNH2DDvzciN79ApGWWLMEVgNeD6PAwBAcH4ReP/AzpyfFQ2moRolHDq1KhvMECt9YPSkcTUqekwhtgQleXCznHi7Bj2x4oVG6su3KRUDF4HC4YEiLhVqtgVyigVvtDqfVCrfOCMSeLN+1GiF4/YCWDDyCcO0PJDHEsP/v0I8RHB2FKZgpaWttxMqcEfoERWLFy1dhFHR3pl2mUAQL7+cPNm5CcEIrM9ERodRphg+NhtE+7AxWVDcg6VYzZ8xZiyZIl4yt3TB9j4QMIIz1Bh9A+jbVPFAHF1cANy8966Yw6QKirq8P27duEsF0wbxbCw0PR3G7Dqx+exDWLU5EW33dshLZOO/741iE8cvuSIfTCAE9VKMWLyJ10fUWOUCW4XdxFO7t30ZcOEB5//Be4dnkKgsISEJU4fWxBAtUmUKCroxmtjWWwW9vg4XN6mBqZzzh0gCD3ONUrBAt052Rm0zNnzogoiDzOHSizaDIGRO6x3UgK00Ph8kBFgKBUwGN3oKmtA9mFZ5A+IR6xsVHCCNFr0sNu86Cxvg06rxOGplZ4nG4YMxKgC/CHs6UDVocd2kB/qPQquJ0ulHywF6GMrjjAqeADCFJHcZxqa2vwzjtvw0/nxdJFs6DVSm6j/I2fsopaHD9ZhJS0yVi8ZInIZfOFKAUFQHY28NlnTK3LdLlou/nraA8y4sXSLbgldgkMKh1iDWaoFFKAraEUho9/f8MG6FR2LFowHQaDvk9PL/a5zeZAbsEZlJQ3YOWq1SLsec+N2FDuY7jP9QGE4e7RYWqPbnlVDcCm/cC31wLGHi67o8UgPPDAA6to2X4i6ygWzp+NCcnn+vKfKKxFfmkTrpibBHPg+VECqWb463tHcNPqyQgNGrkogiqVFpa2WtRX5sDe1fq5oJRZA7GLHhpAuGZpEtQaHfyDoxGVMA3cwY9uUUChVAoVQltTOaydrd1qhM9VCcMNEC72fFzoKspK0Fx2CtFh/kLICwnuZSojL6CSmBwGMmrp6BTgzRzoDyVtDIL94TFo4e60wV5Y8TlACA6A1+UVsRDsbR2wqxUwBvqhaPNumAcNEDIwYd4yvPmvdw898eTTP809eXibdHfnly9asiY5Vfzrr78mDFXXrV4MP5PhgsPJ+jl5RcgpqMCceYsxe/ZskadjvAqtAb1327YBDz8MHDsmVV+5Eu8/eRfubPkADQ4prlys3oziK1+Atncq8wFdQAJgBM4ffrAZjfUVWL54FkKCg/qNAio3327pxOFjubDaFbhi9RowKzLfk/FUfABhPI1Gj3vpsAFvbAWunAUkRp57k6MFEO64445VRw8fhErpxqyZM+H1nk+vv7M1F0kxwZgygSmaz42QSDlRUtWMQ7nVuHn15GHvaerf7fZONFTmoqu9/qzO/aygHGaAQCBCLwFjQBjCYydBy5wE3VlEh/3hejYoMiU60dFaiy5L01lbis8NECVbg9EECCUlRWipzEFEoBFqJUTQIi5u8s5USZ5D4YWXxpxON5zMmWC1CjsOP70BCibj0Khhr28BZ5V+Qgy0Qf5wtHoBjQsqnQKwOeG0O1Gy7dCAGQQigLZOKwKTMzBx4XL87z/eLX/m5Q/ecuoSX54TOKnwX//6xnlBFL4oAIFMD9UJmzZtRFH+KVy1ZglCzRd3Ve05zWhfdOR4Dqpq27B0+UqRrl6n0487oTWgd40uxrffDrz/PvOQA088gda7bseCE79GQUeViA/yg+T1eG7ydwcNhNjPzNy7Z89uFOSdxNyZGYgT7rwD5bjOfYL6hmYcPpYDv6AILFmyDBEREcKmazwANB9AGNBsG91KThfw8SEpWdPSaedfezQBwr7dW2C11GLxklUw+lOVcO4mzOl04/VPT+GKOcmIDgs4Dz0zP8PfNx7HnV+ZDTUlybAUKbVwS10RLK0157AD5wjKEQAISrUGKrUGOr0/QiKSBVhQjiCbwARI1o4WdFkazwIDgoVzDRBHHyBwkczNP4m2+lJEBRqh16uhEmlHlfByQaZnRTeVraDagfoytwftXV2obmiGXqdFhDlEqEvqLBaEpMTCHB0Gd4cbHp0Xyh7ZQE+/twPmfmwQCExIPnR5lFCGx2DC1FkIDgnBW2+9dfCXz7zyoiJiLiVltldl21ew8bcdPVI243IHCAQFFFjHjh7Bvr07sXThDCQlxFzym2az2bH/0Al02oHlK1aJTJ2Mijnedrf9PuCzzwLPPAMQLGzeDCxdinuyX8Lfy7fC5XVj56Inscj8ebKy/trjnKehZ3b2KRw/ehApSVGYmJo0bB5NZeXVyMouREJSGmbOmiPymGg0mjEFCn0CBJE+1W4XPu6jWYiaDAaD6BROeA4Gi1qtFu4h/J2BauiTzsKY+iaTSexaZN0oURdDu7I+61ksFmmxUipF2zyn57OxbR7nXybboU5VbpttsJBGIl3KwrZ5Tb6UPC63TUqOv/F8tsPS83nYl7wuC5+PbfNeeX+ceHLbBqMJJwq92H28Fd9bb4DJqD9vCEYbILTU5mL69OkIi06H0S/kvPupabDgVFEtFs9IhJE7wx7F5fLgYE4F/I16TE2NuPTpROM4LwSt3t5aA0tztSQwe6kPRgsgqFQaqDV6YeQVEBIDlUY3TC+yxNOLsML2TlgtzcJL4fMYBmQKxh4gyAPJdyA79wi0rg6EBRmh44LGMMh8X8SYecVH7IYo9L1eOG0OFJZXo6HDgZDQKARHRSAsIQB+/lphAMkU4z3LxQAC3323F3BAiS6dPxKnzUF0XNzZsSBAePzxx3/SFXldrket+p5GhXqtUvlppiGzSmYTLleAwHWD62FZ6Rns2rkNSfERmDEt46IJ1QbzAra3d2DPweMwmIKxaPFSmM2hZ9etwbQzZnUPHAAeeADgOv7ii0xTi811R/Cto3+AWeuP7JV/hE7Zv3eMDAxKz5Tg6NFDCPLXYsqkVJguora51Gdm6vr8gmIUnqnGpMzpmDgxA4HdQOFS2xzKeX0CBAoyumkw0Q6F2WgVCs05c+Zg2rRpOHr0KLKypAzGpFwWLlwo0vZ++umnqK6uFsfporN8+XIhrN944w3xl0Bg0qRJWLRokai3adMmUZdCfcaMGSJZz6lTp8SzsYSFhWHevHni744dO4QhFkt8fDyWLl0q2nvnnXfOgiWez2s2NjaK4ywEBxSgNDZhNr/du3eL40xUM3fuXERHR4v+pIUrCxE5LVgJKDZu3IiWlhZxPDU1FROnrcQ7291wVr6MqZmJwiWmdxkLgDAxNQF6QyBColLhFxB+3m6iuKIZ8VFB0PTBEnR0ObD/VAWunDdh0FNJNqjyeD2wdbSgraUKLof1c9ZgtAGCSg2lWgu1WgOqOKh20OhM8A+OgsEvGCrqMwWjMICQf+f0RjcwoMBz2mHraoPT3vU5ADob5Gh8AQT5Eaqrq3DmTA5C9AoYNF5ooYRSQUTXox9koECwwGyMnVZYnCoo/AMQFBuAgCCj6DWOdc9yIYDg9njgVKhgVRsQljoZiekTz3O3lQFCTk7O9szlj/qpQ5UPKuA1BgWo3rNbmnL2/+s56+UGELhZITCrq6vFgf17odd4sGDuNOh0BFjDX+rqm3Dg8ElExSRixsw5CA4OvqQQ5cN/Z/20aLMB3/sekJ4O3HcfYDaj3WXF3J0P49rIufjNpG9elP1jP3NjV1NdjVMns+CwWzB1cipCQwautrnUZ3Y4XTiZXYD6xnZMnTYTcfGJot+5kR3N0idA4G78zTffhJ+fX7+BZIbzZmktT2F77bXXDmezl01bli4pMRNTO8eabfjTn/6EH/3oR+MGIFAgUhgGhyXBPygCakbZk3eJw93L3e3S7oGGeR1tdXDaO+Hqttg/a3Q4igDB61WisqYJGq0OcXGkXfUCIDBIkVA7GPxh9A+DVmeCUugQlQPoH5kxoP7YASfjGDhtYgcubArk5xvnAIHDzwW1sCgPrY0VCNKroFN5ofVSXaAi9QMaGxAAMM23DPyoompot8AQFoTQuEg0t3th8FNBb/g85XNvgECXMYdXAZdGD11UApInT79gAJqeAIH3OGvWXzXaiY23hQQpVxr1yvdLqq076lvc35o+e+qTM6ek6KMCdIjw1yLQoEFLlxO1FgeqW63IL6q0Hdl35J9lHz92Zw/1RNwLL7zw2FVXXfXtuLi4S1NAD+K9kY3impoacSLrGLoszZgzazKCAvsOZDWIpgdU9UxpFbJOFSBt4mSkpKYjNDRUsK/jurzyCjB1qvTpFq4PZb+MG6MXY35IWp+3zn62dnWhtq5WZGitq6lARloi4uIGF5Z9OPqly2rDseO5Im39lKkzEBEZJTaevePODMe1+mrjggDhtddeEzv2gYaiHY4b/DIChDZJGyESM+3IAmjnt2oWhKpiw4YNuPHGG8cVQKAwJDDwC4pEYHAMtHoT5FDGwzEHZEt46t5dTqtgDaSogBKtLuj1nqBgFAFCR6cdz7+8AVU1TfjWzesxc8ZkBAcFC4AgsQkEClphvKgzBoq//I3eB5KJ//lFPJPLDofVAqeDKjVpxy1cDEV45G4PjMsAIMhPZ7V2obgkH472BvipPCIFtoqREenhQHsEqh1cHtEjjR02tFrtMGrUCA4NwI5DHUibGY7k1ECoutmongDB5nJDYfCD29+MuElTERp+cbVVb4Ag3aNXcfUDT30lMkT9HXjd+w+cskYkT5pyz8ypKdrxChCoimS67MLT+aivrcTkSRMQFRE2JnYBp3IKUFJWKwRWVHSsYHjJho7LQnaWKoYe95fVdgaT/OP69F4ge15TU42qygqUlpxGfFwE0lOTh0l9eOk91NrWjqPHs6E3BCB9YibCIyIFUBhpQ8YLAoTXX39d+MT6AMKlD+pAzmSERIKE8CCgsgFTC1MrAAAgAElEQVS4YQUgxx2iDUVfKp6xUjFQCIrdshCIGugN/vALioLBFAS11tC9KxzIU1+kjtcjQgTbre1wdIcL7umVMJYAgQzCiZwSvPLGZrS0duC6q1dh1fKFiIuPgVZLNkHqF7IJso2CRmeEuvs3qh5IjJBZELYSTocAPw5rB/ff53YK2Xm6CV6GAIEPwntvbm5EZWUxVM4OGBQuGNRK0M+FDAI7QgAFjxddNgeqGtuhsDvg1BgRPCEOAWY9tHqVCDRTuGEnTEoVVEY/OPT+CEudhLjEgS3afQMEqauvuPOJxQunaf5fUYU91a1PTElLz1TGBBnGFYNAiruhvh5lZWdQXVWGhLgIJMRHj6rqt6+3lQzX4aMn0WaxC4EVFh6BqKixv69LXX2onmaOlvr6WhE+PijAgKlTJo46pd/f/dfWNQjVgzk0SqgdUlJShV3dSJU+AQL1W9SvExX2BAi8ER6jAaFsKDicNzYaDAJ35l2dHfB6pMxwOr0BBpNfv0iMz8xzXU6HOIc2DUMtDEz3wiagsFKy37pqHrBoMkDbFy6wNTU1wl6hdxkLgJCeEg+7wy3odaORFLokBCkMDX4hMPqHih2zSi0Z6w3G+487SY/XLQL+kDUQYZGdnxsgjheAQHUCFCqUV9Xj7Q1bkHXqtMjNcM26VZg+LRPh4XRP+hwgCI+HbnaBoZ8FwKKgU+tg62qBrbMV3l4GeT3HWgpU5O72WJATLY1PG4QLvQsOpwO1NVVoba6Gxt0FLZwwaDUiQqJgSFxu2DqtsFpdsHvViEyfCq1/INo6m+FV2aDWelG+/Sj+P3vvAR5neWYNn+m9aGbURr1XW65ywaYYQseBEBL4EhNIARaSkABbUjZLIJtsdjfZa5NsNskf9lv2IywhBAKBUAzuuFu2XNR7n957+6/7eTVqVhlZsi0ZnuvSJZd3Zt73mbec59znPkel0UOZW4yS6tp50auzAQTa5+JPPFv2f7bzfhGB9HpFWqlAIS9AcYbqspcYaCVrNpsxMNCH4cE+6LQKlBTnMwOepTSo44FWtvGEEMUl5SgoLGLq++Uy6BpjwMA0jL7ebtbSTdeyfInN88T5JF1cZ2cv9u4/iLs/s4P5J1ysMS1AIBU+hUzQSZoECHTTpy9er9czgR49MKkGSw9NLhSH/O+5NrakKp/qJMnt6N/ofQlkkBiR/p7sMEge3MUECLSfDrsZQbcDYb+bJdzxEnEIZSqodJlMeEbHQP7v0VgEETquRJzVgoUCPlMLh0MhhIJ+yBQqpKVnQ5+RDfECqLWeEeD/vg1YXdwMZOuBB2/m8hZof3//+99jx44dSwIgFOZl49Cxs/AHI9i8YTWys7IgFIm5ByBr/RNDptBAIqfWHCn7OwUlUb/xbIPV2qMhJjwkip2AG+kOxtv4JvT3X+YSA9MbMHGiiHmrv/vBQRw+3oTyigrceceNMOjTIBGLRsVE3LZsfvice12yyiASy1luQjzGdczMNLgGAJqLiUmMywsgJI/NH/BjeLAXPo8FwpgfUj5niBQORBEXSCHVZSGruBxy5Xg93e1xw+4wwWuxo6iiBgpyxJvnmAsg0Nvl3fTdJz91o+4fC7KCEoksDxJxBYqyMuAMRC+5BoFWsgQM+vt7YbWMQCRIMGBAkeJLcXDO2wJYzCYcOnwMlTX12Lhp01Lc1fP2yWKxoK+3FxbzEIIBD2MMluo8084nzdmIXfU6RvDB7n1YfdWdqK/fcNHme1qAQA/u119/nd3UkgCBqG5SUZIugR6WdCJTDYQe+knBBCksk4CBwAKxDAQyktsRUqPXU82KAAJ5+08cFxMguNxOtLc3QsbzQysQQMQsawFfIIQIhIgmBMxrnii9SDSMoN8PXjwGEbm5SaXsQScSCNnvaCyOKF+CzHyy3zVCn555QbXAd48CHzQAFOWcnwGsKQc2VgNKGRiwWhoixffgGGlGfk4mXntrH3buPoLVddXYfuv1qCgvgUwmHwUIXA2eLxBDLFUybQK1AfL59G+c6cdEVoEefLFIkIECEh8Se5AcNMe0sk7S60uJQQjH+LA7PcjPzUI0zoPHn4AuIw9arRp9fQNoaW6CUMDDitoaRrmKJVKm0ZioQCChp8cxyEDqrACB/nPU7niptjnO587E2pHdTpiG+xD12RHz+SGRaZBdUglVGgU1Lb7OLyWAcPN3v1mzsuaH9VVxabGhCyLKguDXIiHKhSMYvyQiRa4kY0dnZwdcThvi0RAK8rORmZE+nym+pNtyuSdReF1m2M296OzqgyK9Djffcssl3Y/5fhgx5G1trXA57XA7bagoL0J2VsZ83+aSbc8W4HwBK7t6nSY4TJ1wWHrQ2GLC1lsfvvQAgboYqG2Q8u6TAIHYAvo7gQGW1y4QsIc9gQkCA/TAp98EGJL+AYySHwUS9KXYbDZGzZO2gcBEf3//JQMITpcDfcNt0OpFiDg8kIRjENJxjLpfkYuY1x+Ex+dnQCESpQdUDDKphCX40a2L9tkfDI4yJhRJC0hUeqgMRugyc6DTG9jx0DETOCK2ZCa1KZUXnvsLQCxCRR4HDCryuVIDjaUAEL70pS9dT0ZJTlMzqM3RbHXh/b3HsHvfcRj0Otx4/RZs3bKBqZmFoiSdTqr+UcGeSAKRSMaxCfSQZDV4HpvXCNXeR0sJ07UEcvQ6J9BbKgBBKJTCGxLgg31HUVFiZADJkG6ESpfFfBAikQRefPEPrDyXn2fEyhU1KK8oR0VZGQwGPYRCzmlSLFGy6GkKkZpzJFmEMTHm8mQQJh4nXRtulwPRSARqre6iKuFTBQir1tX9cFVNsVQSHUJNzgkAfth9q2EJFMMTFV60LgY6z2nB1dzcDI+b87zIytAjL9d4UQDTnOdbChtwolvA5zLBbR+CnRmWmeHwiZGWv2XJAgTy1aF5JgDm97mRlalHSVFBCkd8mTZhrLyALaJ8bjOclh44zT0Ih/1sQXWm3Yqttz5yeQDC1C4GetBNBAcEFuhBTz38SXOh5MORtiNETA9IWpEnTYuITaD/S7pDJY2QktN/MRkEh9OOrv5m8EQhmIdsKMrLgiweBz8YAjk9MNc3ELUfgT8QgjcQZOlb1FJF/dZKmQRSCVdfJ9tYAgqctSzgD8egMRihyciBXKVB2OtELOSDUKqENiMHas35NbleE7DzOGDUA+srAYNmPIwpOY+HDx/Gli1bzjs7L60GgWMQCCDQg98fiODEqRb86c3dsNic2Fi/BrfctA21NRWMTSAwkAQISZ0C3VBYxNAoSKAHY8Bjm9a6eeLBki4hsYQAAoGdGF+JP/55F9paW7B18zqsXFGN0rJKSBVqVlrp6u7FK6+8ivfe3w2LxYaMjHRUVpajtqYKd26/DenpBtYO6bYNsNJKSm4JLFhnVIuQLLNMinK+9E6Kl+mWOe+PnQ9AoDZHanHkBYeQZzgEPr8fg45ynB2sRb8pFDxx6MSitjnS/fDs2bNw2C1IJKJI0yhRVJgHIbWFLsnB4+4BHhtc9n64KGLcOcLMy2hRtFQBAgFSAgZWi4kBMJVSysA9szNekvNMzwIBW0D43Fa47YNwsWA297hJWix6eQHCXF0M9JCnnyRLsBjzfFEBgsOGjr4mWB3DOHH4HGpWlKOoyIg0uRg8fwiiSBTCUYqTOUkSUAiG4HB5QKYVBAYkYiEUchlb8IYjEfj8QQYg6IKOxSmeVga9IR38eAg8asfjCcGTaSDVZEKXYYRs1JmR5qrfPF5aoPya6QaxMtMxEJcWIOwEOSkygEDlAtZLLEBrRx9ONHZAn56N+vrVEAsFcDpsqKwoh1yhGFf0CyYbbXEMQpSlEc456ME4MWPgMmsQCCBIlAY0tfXirb+8i8EhM2qry1C3sgY11VXIyiI/diHsDida27vQ2taFc02taG5pZYr9n/7rD7GiphpSuQquJEBICSFwWgSai7FWz48BwpynD20wX4BAbY4ZChHCQTME/APQq09iwJ6Jd47kBT885FoUgMDCkc6dYwJEamtWyCUoKS64aEZHKU3UrBvRSlaIoN8Nj3OQgVt6aFG3ESeiXZoAgea5vb0d/X29QCIKiUSAspKiJSf0nDj1tIii8iqBMI9jmM0zCZqpHDnJF+VyAgQqG/zpT39iD8Urpc2RSgxdfU0YMvXhw90NUGs0yCswoqw8Hwa9CiK64Xr8kNCDPll2IGGlPwiKj3V7/QwMiIVCiEVCJkYjLQITkSUAqUQEhVQCqVQCwYRErmAoglBCAJ5UA6UhB7r0LA5YRQFinGfK9yBwQKsLcpWcOi4XQPD44zBbncjO1DGxKk+kZsCHyk8WiwNvvvk2mpvPYdOGddi0aSMMBJb4rLFt7BDGAILHltJ9a+LK+XL7IJD/g1SZBr5Yw27wu/Z8iObWTohEYqxfW4dVK2tRXVUBbVoaA0hkAWwyWdDb1w+n04WNG9ZDr0+DVK6Gy9rHMQgpAoSk/fLHACGl02ZsowsBCMQiqKUC9JktQHwvSo174HAnojsP6t8/3mT42qEX/q1j9APmbZTU29uL06cbIZeSfbwUhQW5UCouXtLp/Gbr/K3pgRUJBZio1uschtsxzDmZjrXfLk2A0NfXh/Y2AuZRyKQiFOTnQqVUXnCg0kLncc7XU/mVSssBN7OR9ziHWAZL0k5+jEmdUGq8bCWG6boY5jzARdjgYjIILrcDnX1NGDb14/D+RohFUqiUKmRkGaBQSaBLVyE7QwtxPIG4JwBRLAYRUeM8IBKNwk/6BG8ANpcLwngCCrEAvHgcUrUKSo2aof+ZqEEqtwQjcYQTQkCmRUZeCdSatFlrjEQ/Pv/883jooYeWDEDwRyTYc+A4cza8atNaFBeXQK3LYj4IIrEMTc3t+OKDX2KOgMXFRYxNWLtmNVatWoHMDE4ExABCLAa/15raGUMALNnqd5kZBOpiIE8D6tSIJYTo7RvEwcNHcPZcO4ZHLDBmZ2FFbSUqKytQt3IF0jPSWWll6iCA4LT2IhrhsjlSHswXIbakshhS3vfLtOGFAgRyUrT5whiwWsFLfIjavPeQoR2xne3Qvvnq7uLnXjlWeAh7ns5O1UmRFPOHDx2CWMRjzofG7AxotZqUo4Ev9fTx+ELGEJAojgLRSG8QJuvvSTkgVNpaWgCB7rXHjx9nHSBajRLGrEykpWkhmBD+danncvbP4zoAI2E/PI4ReF0jCPgc43byBAiosytZal0KAIEYBLJaJlUt0aaXapBYJy8v76JYLZMGoaPnLMy2IRw50AipRM5El2Qn7fF4EYmGoNRIkV+YjdLiXEh4PLi6BhH3+CATCiHk8xH2++Fz2ljevUytgjgtDWKFAhJZatnpBDQcLj/iUj2Ka9dAoZq5dWkpiBQp7plEiskSg0yVhff3HsW7732AXGMm1q6qxcZNG6DXpzORXgI8HDhwELv2HMDBg8fQNzDIavDlZSX44gM7cPXWzWMiRcqpT21Q/Z1cBSfQ65fJSTHZ5igk8aVYgThPDKvdjdNnzuL0mSa0tXfD7nChsCAftbUUAZuDysoylBQXMWYpOaRyLZyW7vkDBJBwk9oel05YU2rf4eXbaiEAgayWh90hDNntiAQOJ+oLX0f9il5fS5emYeeRwv/+1Y/7jv3r9x99ci6rZRJov/rqH1FTWQq9TsOuiYvQsLE4k8wTsM4Zn8fKWAO6TmlBMDkgbKIF+NICCLSwevONV6FLU2P1qlWLlrS4OJM78V1Ik8UfBWHDzEqefFFIkDixxZsxNUsRIJDNL4kIKWjoUg0yYSotLUVxcfGifyQBhLau0xg2D+DI/kbI5UrodGmQK+RwOVywWm3weN10C4Y+XYub77gG8QEz5N4gxHwBJ2IM+cGLBiDLyIBIo4GAImgnlBNm2+lAIASf041EMIyARIvS+q3Q6Cg+efqxFAGCRp8Hk9WJDz88hJ27DkIuk6G8rBhbrlqP6qpKpkbn8UWwOVwwm20YHBrBgQ8Po39gEF/+4v249potrJOBamykyk15TDAMupxOikmAwDklihko4gtk8AVj6OkdQHtHG4aGTOjq7kNf/yALACsvLUZurhGlpcVYu2ol6+IhxsVh6Zo/QCBNBp2ho2CJo3nHwcJYt0eUbipTQcREL4UInJ4wRgLZeOzrf71k1fIpnx+zbLgYAKHf5kFre2vcIHg3+ti9h0TFOeZYe19Gz8t/zt6fIf9c4WfuvOPa2bIYKDTuf//nV3jwi1+eBBQX4/gW7z243JCg38lq31QDTzqZjlubTwQGSQvwpQUQ6Jn15z/9LzRyoH7jtZDIVfPPTVu8ST3/nZiJKNfyTeDL4xoZBQbEzozO6aQMliUIEKjE8MEHHzAXv5KS+SfwXej8Uhsh1bMvRmKVy+NkDEJPbyeOfngaUqkCer0OSpUCbpcHVN4gpE9dGZFIGF969LNQe4LQhGJMvEhfqlghgVgphZAehCkqjUnM6HF6EPMFwYvGQP4wAYUOJfVboZ4FINBKkeqVlFg5dUzVICQSCXKXyaMQylHP3pM8Ho8t0UvuePbQtpu2bCw26pGlFiNLKWHeDhRCM+IOY9DuxcmTrSOdzS0P9+/80Rv0mvLy8rpHHnnkJ1MZBIlUBYlSD4vVhpMnT2Pv/qNo6+hhAqvqynJs3bIRVVWVzG2R1eBjcVhtdtb6Sup9qgEyQBWPMcQ8n5E0DFo6AIHLXyBdAl8oRQxCBENxmMwmDA4MYMRkxtCwCW1tnUyHUFdXi8e/+hVkZ2VCptDBYelENEwlhpRFCGPTNe6u+DFAmOscuiCAoBRDxIvhbFcv3P4OZOkaUZrbkijM7EoY0+18jSqMYEie6B3Uec+0bkNh7sOqVdVrZiwxDgwM4OUXfo5bbtiK/PL6WRME5zqei/H/pDMIB32s7u33EjDwcbXvSUA0CQim/l56AOGNV1+AOOFA7YqVSM+pgkQ6f4OtizHPpMUi5oiSWqn7YyyxlYF8ypgZ71Qa13gsUYBA8cTl5eUX1cbx4nwJ07+r2+NCRx8HEI4fOguJWMaEdmRdSgCBkrt8XgpEsSEai+LLj90HjdsPTTgOiUIGsUoOsYweBqm1IFGut8/jhc/hAZ+AAbVSjtaj/fK0OQECHQVR69OZx7hcrsTg4GC7wWA4rtfrdXw+P4PH45HSiXxYKVP673k83rHFBggsX0Asg1imhdMdQFNzM5qa2rB7/xFEI1EUF+WjrLQUa9eswjXXnN+eSfvDAYQ4q7XNa4yyCJOVvFOCm0aR90TfBO7CSyJzblXtcIcQV5Thqmu3zynCJaD27LPfw+1XF3HJjcw1ctxCeTzNkf6PrJjFiCX4cDkdMFtG2DkQDAVx+kwLPv2pO5BjzIJcqYPd1Mlari4AHzCWazzI6WMGYbbzaL4AwSAXoKPlCDbUHEZVcTf0aSbIxA4oZW5IJcFRwS1530sQi0nR2W/E7mM3o658BzasLJv2eiWA8Pv/+Xdcs7Eaal02sgvqGIhOXaA6rysl5Y3pWqR+egLrPiolkC9JEhhMqHUvNwaBAIIwZkVpcR5kSj0DCVK55rK2NFIXSIhSaZ3DCAa4KHe6T5G2YIwJXC4AgW6KRNWQj8F0YUEpn4FLaEMSKbb3nEH/YC9OHDoHqVTGRGRkgkQKc7PJzEyfzBYL6+n96pP3Q27zQB2KQbu6AoJgGNFAkBkrzRW1GQlH4LE5EfYFIOQcACadnKkABNqHvXv34vrrr2ezSCUHMpoiVoeYhYaGhmhFRUUkEAiIIpGIMCMjg7X0aLXagczMzC8XFRW9u9gAIRnWRA6JIokS0YQYbW0daG1rQ1tbF46daGQtoStXViMvxwjap/p1a1BTXTF2JnBtPHF2ocx3MPfFifTbNA9/FoI0kaq7RABhYpojl+AoBPhCkAEXibtee+0NXHfNVcjOzhwFCB2IhumBM38GgeZtPMjpY4CwmACBOhg8tkGkK/8Ln71pH+QyPwBiesjpk4dYXIIRqw4NTTm+hnO6HkFilfLq+tsLVlXXQU0WqNOMJEC4ekMVs2anElNm/kpIZZo5vUDme42ktD2juOMIeO2s1BcJUoz6KGMw1p0wDd09lfpmf1+aDAIBhOLCnNEYdjUM2eVQqDMuOUigLi6y7mfAgDQGkSBrWeTuU5zPy7IDCCmdZMtsIwIILZ2n0Nvfg5NHmqBQKJGRmQGRUARyjqR8CafTCbOZAEIEX33qAcitbgYQ0jbXQqRUgOf0IWSxsy+WWh2T2RPJqaAHX8QXQNDpRTQc4RiAaU7JVAACiW1+9atf4fHHH2dvTzbVe/bswec+9zk0NTXhrbfeYgwI1TepFZXAHD2QvV5vpKOj4/NPPfXUKzweL76YJYaJaY5kiCQQSCCQqOD0BNDe2gqn04H+QdIdHEFLWyfWr10FozGTCUEfe/iL7DetWujm5HVcAEBg9fcJEchLECBw0c+ctXSyvZPCmQ4dPoqy0gLm9S5X6mE3tS8IIIwHOX0MEBYTIGSpJTDIBBAkrBix/BHbr3kBORl2ONwy7G8ocX54svBg+4DhXYMicOjIzobYl3d8/ak7brv13sKC/Bk9dyYCBJGYjMREzCxLn1UKVVo2EwVemsHlgYT8rlHx4QRgkHxQXWEAgQF3IXn2yKAx5EGrL0hZN7aQ74QxpaQz8FjZDzEzlPMzURu0bAECsQcNDQ2svDBdmuBCJu5yvdbjc6G95yxaWppw4nATlEoVjDlZEAqEcLs9sFmtcLldsNnsoDz7rz31ANROP+T+MESleZAY9VCpFYi4fYDNjaDby2JrpRS1mUggGgojaPcgEgwhQcYIs4xUAMJUkSLZUj/33HMsD4NapkjstnXrVmZXTd8RAZyCggKMjIxQ98njO3bseI7H4/kuFkAYT3OkG56Ytf65vQEMDvQyLYfX58fZc804euwkzGYrXvyfXyErM4O5KSIRZ1kEFzKodDOpZDClfHC5GQTGHkyVqPN4nD05a5vlseRL+0gba2W60EFnGKfL+BggLCZAIKMkzgdBiBECvMO7sGXFc1hVPoSjZwo7/vPltc+cbJK/3LFBH8HTT+ek0uZ4PkDgrMipNVipzWJAgXugXESgwOMzQMpKCUHPtMY7ScX8JBX9JMZueYgUkyUGYhDGFzWcXkiq0LL5JrtzKtUt/uD0aqQvILdYDhgky5wThMLLmUEgURnR22VlZeznShg+vweD5k70D/Rh3wdHWekkKysTAr4ATpeLiRSpxGC32RGOhPDYkw+gIAJEbS4k8rMgytZBppSN3eR5vhBiNhd8Vid4/iCi/uCcwCA5jxcCEKi8QNbL1dXVjOkg61AKwSKAQMLOU6dOIT8/n31fRUVF/1xVVfVTHo9nuugAYSzNkUs5lMl1CIYjsNnM8LodAC+BDw8exw3brmYCvSRAIIewCx3jYp6lo0EYt5cmp8nZh0KdDttwG+t9XsggFiHprjgJGH3cxTA2rfPVICQBAvkg2P0RDDp8GDS1oCLzJdx1TUPiXGdmx69fXvHPzTsFz5848ZushQAEBrKFxCaokZZRCJkijbGOizmoa4ge+AGvjZnwkObgvDa6iWLEK5BB4BYzQgiYEyw35yptNrTplMNAxM9izDmXZkzlRJpr0hcRYzDx+pyUyvoxQJj5NKfVMQEQosopz2HTpk2oqqq6qO1W1MLYP9wBuVoAu8WLM6daWC2crkeHw4mRETO8XjcsZivC4RCe/O5DyAslELE4kSjIgrIoE6EwhVTxWZcF/eZT0EpzL9wdAyzUKdWRCkCg96IyA7V+0iBWp62tjdWeqQ2Uui0IGNANhUoL1HVCc1lfX0+bvxiJRP5BKpV2XDqAMJrmyBexa44SC4UiGSiy980338LG9XUsMY1qcrTPFFZ0oWPcF2FpAASegMpNHJVJxzddWWnisVIt1DrUsmCAwNwVJ0Rjz9XmSN7uSWW60xuGyZ+Fxx7/m4t63V3od7xYr1sIQCAfBOr2GXL60dXTFc8Q/Dn2xI5zAqtTYf/jB0U/+/nT+/7wLz/69t/eevPNX5itzXEmBmFsdSsUQSgUM2ZJo8vlPEUSC1vdslY68BDyO1nrIve9k8nWRGHcBEbgii0xCNjChcABF00v5P5OgmuRBGod5eckEzMvDCjQXEcjYTbXkQhpOcYZgysSIFDAEq1WyZOAVqWLNejhdubMGTz21a/hyNETEErkrCdeo5TiwQe+gCeffIL1jl+sQSChp78dPHEESoUKI4MWdLb3wmKywmQ2w+VywjRiZvkS33r2MRh9UYTNDsTzM6Epy4FQJGQBThT+QeUFBGOI95vh7rw4AIFo6VlaPuOJRCJGOgPSrNGfAZh4PF4bgPfIhp7H4w0TQLjuE1dtLM41IHuBbY4TNQhjJYYxBoEDCEycN2HQdz48YoNBT26TknGAYJuc5Dnf7zwpjpraoXCpSwyhcAyHGlvwzvGTKMvPxV1Xb0GeMXvWw1FoCCA0MyXzQgfHInC6jJkAAjk2NjZ14WxrzygojoP2OxBT49OfuQ933HEX5HLFQndlSb5+cQBCgEtz/PD4+3dv6z/5mVsGH5NJ+bz/+r303XztjepPf/KOW/Lz8lLWINicHui0WkgpKn2URUgyUJQYKlfpIVcbWNfM/Fe3nM4gHHAjFPBMApAfRYDw9vuH4XL7cdP1JBDOYqmzyXtX8n4mEkmg0GRCKlNzDGeqg4L8YmGWURGNBDj2J+nZwpiY2JXJIKQ6P/Pdjmj8a6/bBmdchxW3PQlNdhmiIT8Gz7yP4RMv43N334RnnnmGCe4Wc9AXR3RPIOBjD3iX1wFPyIyMLB2ctgBONzSjrbWDlRmoxEAllr/7/mMw+gkg2IHCbCiLjSyLgUsAoxMjxrwNon1muLsGF51BIBDyxhtv4O677z5vKoLBYMJms7WLRKI/ZWRknALQOfrjYIDh6af5hT0QX1vYIz3VnLMzr6h43eraGhRmapGtunAfhLkAAoU5EY6UP2EAACAASURBVKU52+CyGRJwLRAgcCzC5WcQunuHcXLAhLT1tThxqgGlkOCuTZtnDYShm5F1kACCb1FOc8YizAAQItEwjjc2o6Zeg82bJxuQ0Rz29HjR2qrBtm2fgVg8OwtG/0+5E9O13i7KgVyEN1lUgHDw+Av+oOCbd19n++Tt1zq+k60PlbR1r+GtKL9bVFlaMimDZeKhTGQQSMB6x31Poaq8GN9+6svsoSWWSMcTUNlKV8hWtxK5BuS6SYwCQx+zRQ+OPpyoVTHgczLQmBzJ8+OjCBB+/9r7ePEP7yEjXY8nv/YAlzorlzPGJnk/Y+wfATWRmIEEsUzN2MCZ5jz5PKF0RdJzEBM9cUyc7yuSQWBphqEQW70upmnRj370T/jhT36Jax75b8i0mWNzGouE0N/4NoT97+FH//h9XHvttYt2q6Bj8XndGO7tgGu4A4QWlZlFCEZj8HiHUVRuRFwgQUfrAA4eOIbO9i5YLFb89d8/jCxPCBGrC7LqYvA0cvCEEoSZLwKPWXjGAyH42wcuCkCYt5PiPfcIrlKp5FUlAbkgEc7z+RRXF+V6b6ktdW1qaClXqLM/D6NOvyCjpOkAAqFx0mTSTU4opOTG2QNUOYAAFl+60MFYhMssUuwbNONI9wAkNcXoMw1CZfPh9po65ObMbFGu1GTBPNiEaIoAgeLGw2GuLYqJNEfr1ERikbiNap8iARU2OKAQn6BB6OodwjsH92HNmumZQLo+/H56nQKqWay/Xa4ANm++E5s3X8cEsstlLDZAuCk/99FPfaqsXKgUfFOmaPp0InFCGY6sERQYb0VeVg5ELO108phaYnjxlffw/37/F6RpNfjGY/djw/pVbO65EhUHELhumFEFvlgOsVQJai9OOreOgzQCynFWrgr6KNwnPM1XQ8Jeakf86JUYqMxCLMLvXn4bHq8fDz34Wdxw3VXM7pq8KNg8M4AwOufM44TmXQqxRMbi67mYeu6+RqUaYgxCARf78/RjfL6vSICQLDGQiyIp4xdrfPKTd6JxMIH19/7wvLe0952G7cT/4NEv3DVtQNGF7ANR9B6nDcPdTRAEHdCqleyLptCl7hE7aLFbkGOAKtsAvkqBcJSHpjOd2LP7Q3zqvhuRZnIjYndDs2UlBBAg5PcjEBNCoVYgLoyCH4ki2Dl4+QDC1//mqVX3PuDcWOjUqtTBvFgsfm2GznVjRdFw3bpqsyrbEIMvqMYzz/8VtOnXIlenTBkgPPzwwz/5wgNfvP7QgZ3wWlu5uOfRi4jV8kbreG5fEJ0Dw0jX65FvzIZkDvaHLkYeLwGnZeEAgWv1m2yCdKlLDJFoAsfbu7DfNICgIIFaqRa3rVoLjYbMLacfBBAsA+cQCc/MIBAQCITC8PjDsHvC6Oi3wWJzIRgMwRemmhIgF8Yhl0mhVitRkpsGg1oMuRhQSKlThHNlO3mmHZXrJbjuunEvigu5ls6dG4LFUoXVq2+CRqO9kLe4LK9ZTIBw6nDDS1+5WvbT7u7uJ+rr63dcc/1N7tNtuxJy+Tkdj1eI/OxtKM4tYt4qE8dUgACeACdONuNnv34JFpsTn/nUzfjk7Z9AdnY2a79OXl9jwlcCDvTQYtcftReT5oWrp1NnAoniyMN/tnIErXK5oK+PmgaBe/C3dfThl//fH9BwuhlrVtXgsYd2oLKiDCq1mmMPpgIE1o00DgyI+aEHBscaeOc8l5POr1ckQLhYXQyfvPNOnOqLov6+f2K+3xOHvbcR5uPP45HPb8djjz025xcw2wb04Aj4fXDaRmDtbUKGRsbsfekzk/2p8WgMwxYbgpEIstP1kKkVEGiVgFyKKIQQiHjwHmseBQgrIFIrIYgkELC6EBHEIVLKASpbdA5dFIBAOojf//732LFjx6RDpYjpzu6e+Lvvv7X7aMu7/11QnF6q1/puys10rCzLH5EaM6y8NLWDR6lxgBw7D1Xg3aYnoEsrh1EjmRkgtLT8VRoiO0UZaWq5+8yaq9au+u7Wa27c2HHuMDKktmkBAj3sX35nL+wqGQaGBvDZtRuwtqZqRstZOhDGIPAAp6VnQd9x8sWTOhouk5OixxfEsTNNsDic2FS3AsUF5Ho98yAFtXng7IwlBjJXGrR6cbbHiZNdDrh5OqizCqBMy4RYrmA3MxpEJIT9HvjddrhGesHzmVFm4GF9uQY5BhnEgsS0AIHe32TyMKGtWCyARCJEMBiBTCZmxk5q9fmGPx91gNDWNRDqO3PyUG70TI9MJtvx4IMPCkhY7QuEMWQbRjh2Av6AEPnGzSgvKINMQgFu3DkwnUiRrp3BYQv+87lX0NDYjIryUjz8pc9h5YoqiBnVLRuvlY8CBA5cj983qQxBkcCclmV2gR1L8YhzRmPj5jxXvkhxIhvj9gTw/Itv4EhDE6qrqnH3nbegvLSACb8Nej0r67AuhyQAOy9nh8eu2fAswH7sqmeLl/iVqUEggLBv3z7WMkdCxcUYNFlPPPEEnvvdn3Ddo/8PEpVu7G1j4QD6T70NweAHePbp7+ATn/jEgj6SjI5OnzwMWdwFnYxSBkcvHq55nAsMoussHkc0FmMrNSF1JwiEECmk4KtV4MnF8J3tQtTlg3JjNUQqBXiBKMJxHgS8KCLeEGKIITJkgbszdQ0CfV5Yk4nS9VdBlTY+B9MdMOkQqB0zGo3D5fXDH/QiELKhvac50dx1LKJWDkSqSx1hvcbjHLbw3Gc6FD6NylPyiY3NmTkZPsTjcnzvlzfAI/0KsvVZk7MY3CH02/zos7jQ1dFml0X7fqZWi0ZsDl4lLx4r1SgVG42ZOQZNwoQSnW9agAAI8D/v7oNhbTWs8MP03lH89Y7PQSEnx+fpB618aDgtXQv6jpMvpofkjKFFTLl9KayWJ9+45zowVVoOzP1nOIAwpa2NAGDbgBN7W/yIakqQVVTBgaoUh8s2AnPbMawzRrC2RIWmls7zGASLxYOf/WwXtFo59HoFSkrSMTTkQmGhDk5nADfeWH2ezuCjDBBM7iDcTkcs0HEsHHW0i3NzcwV0P9NoNMyOftu269EzYsGw5SjMdhtK8tahqqgKKoWczeNUgBCJgV3XEokUPn8I+w+dRoyvQG1tNZRyCctCoK6ozKxMqNUaRnMTg8CtaMdPBCo5kBsip2WZW4HPaueT3PuufIBAjIvL44dSoWBCXIFQiAg/DTm5RlbSOdlwFkcOH0RhvpFF1GdnG5lGYSoY42adj0jIi3BobgYhCeCvSAaB6t/UZ08GPNRCt9BBJyZ1RfzLv/4Euw+fxcobn4CuYAV4IjEX3GPpRcue36JAE8A//dOPWKveQiyeKWzp+JE90Mp4EEeDkNNqPxZnMc2cuyGLzQD4PCSIVYjHEQyHGVDgVKhxyFRK8ENhuF0+aFeXQaZRgR9JIBRMQKCi9n4eEoEQvB0DKbU50ntGwENUJIO6qAK5ZVVslTDTiERj6O7pg1AqgT/oQFtvHwZNPZBJTcjP9Cd8AYepcyB4rLNfeeZ4i+aM1SJo0WrC2h8/8d73N67oulqtDGPYYoh/+Zm7eTmVn+IVZeugFfOgEsUgFgbhDTthczswZHLC67ZH1dLwkFgk6HN5BU2nTw3ablhXfevXH/p83bFDu8binqcrMbz4zm4ECjIQUYsw8M4RfO/BL0Aln/m4iO5jDIJpcQACzV98JsOgSwQQJtYoU7lW1GlGmPoIIHjHwSu7o5AHVxAv7RtE8YbtUKg1qbzdedvQOX5y75u4Ot+LoMuMqnrppBLDyIgbP/7xO8jL4wBBXp6WgYVAIMzwyp13roJaPTnC/KMMEHzhGKqNCpRpoizIjcTMr7zyCrs3Ugl27dq1WLFiBUasbrT3NaJ7sA/52aWoLamCXqvG0NAgy2Igq2VyUvQEBRgY6ENhfg4LjCMhYlpmIXPZo+6SffsP460330J5aRHLNcnLy4PBkM61PE8ACGS05PeMAoQU2iIJQrBV7XSWyVdomyMECry76wjSdUqUlxYiI8MAXWYxRBIpRGJayPDx+hvv4Vvf+hY21K/B9dddgyIGFLKRkW6YLDbm8ZktdTjkSfm6ZKWdsfm+QoySUj76FDckE5+HHn4EfTagaPO90CjzWKIZTyhialtqybEMnISj7zA2rizCE9/4GtatW7cggSSJLHt72+F1miDjRyETAlKRkAGARDTGrZDobjhmicsBB5PVjmGLnZ1AWk0aXP4YjCuN0GfoIODxmViMz+h7IBGJwtvSB3d7/4xdDMReRGIJxERS8LUGZJRUwpCdM+2xMerX7obL68Ow2cIy5MtW1kIsciPLIIBcqkA8ng6Xkx8/03j6zZ/+/BdPhMwd1MFAe8N76Pv3P/roZ498q66iNweI47UPVvr/7YVrJJV16wQlRkAt9kDGtzEmIhz2MN+EaEKJhqaEq+GM/5cmp/CFPvNQe7lnT/V0aY7TAYS2rn4cGO6DLRFCaUSCO7ddM6sOgVsJ8eAwje52iufQbJtN0iJc8iwGrlY5H5N36r029Z4eXYmMr/xIDN0x4sfOs2Fcd9v53SvzmSqb2YSOPf+FskweajfKJwEEh8OPV19tQFaWBgQWJBIBVCop6N9pbNpUwlgFoXC8I+WjDBAC0RhWF6ZhbaEO8WgIu3fvYtbnZKx27tw5bNmyhbGeBBaiMaCxrR2tPa3QKtOxuqoSiYgfr7zw8zGAkJZViaf+5juoX1uDNXW1KCwqhFpvhFgiZ0JEk9mG3/zmOfzudy/CYNBj44b1qFu5AiXFRcgvyINBr2MLKApOI7c+riaeAoMwGgCXmGhXPjWU6QozSiKPg/d2H8eBg4dQWVaIdatrUVZeDn1GLiRSYhTE8HoD+O7ffw+HDh+DyWRmrfbr1q3G2tV1WL26DlWV5ayzjphnmmvqXEh1MNL6SgMIJO4j616VSrVgxTLZ7t5///04eKoftdc/Bl1lPbuXRv1eRL0eVvMRqtSM8icdQv+xl7F1pRHf+fbfLdjFkdCy2+3C4EAXYiEXJIIoFCI+hHGqx3E9q5ypTYLLCGDL0Tho9T5sdSPMl8JgLIJQF4ZWp2K19cgE5epcACESiyFKoiKNHqrcImTmF0Imo9DF8UGAY8TmRt+IAyMWFyxOF/yBAGMNOhr24fMPPAiJWIf8LD2MGRqWATE17pneLfemp3VPP/zhj2/Y0PFAgXFECETxxp4ab2NroSwnWySQiYKQiCVI1+ng8uagazgHPdZMeKIytHcMjHS1tM4Z9zxTm2NP/xCGh82oW1EFBaNVZ758OCtiwD7Skeo1ltJ20xoGLTqDQOyHADzy0h9tTZvWWnmOPSYznJHexvNu7AQkj3e6cXJYjk9+cjtEEx7QKU3ChI06+s049ca/oy5fgtpNkwECE0AGKDAmAalUxHCyQMBDMBhlGgTSJdC/T6x3f5QBwrArAI/bE9tSpHHftqUi4fV6dbt27WJGb3SPPHToELZv385akilvhOazpXsAJ1taEYnyUGBQ4+iul3DdpmrGIOiN1fje08/C4XQj15iF667ZiIL8fOTmF0EsUTDtQXt7B1770+s43nAaPT39LFAuJycbW7dsxhfuv4+BBQIU5POfKkBgywi67bHun9Fo4SscICg1GRg0OfGHP/4ZvX1DMOi1uHpLPYoKC9gcEovA4wkRCAZx5NhJHDpyAh0d3eju7WMGejdsuwb/8Pd/y4AaBxB8CAfd87ocOYEo54twRWQxUBfDwYMHQV0MRUVF85qMqRu//fbb+D87HkTl1V9HRvUWiLX6ad8vHgkj6vfA0nMCzubX8dUvfhYPPfSVBbEIyQ+KRCOwWEywW4eAsBviRBhyEfUlTPC8S/ay8nngkWI1noDd4YY3KoA6Rw1tTgaiMQF4/DhEYm5lNRNAoDpyGHwINDrIMnKQWVgCtTZt7LhJhzBgcsFkdcPtC8Dm8sNs87AyR0muDlnpOmSlyfHaH17AU089dd58TQcQrnvwa9d895FjP9y4snezXOpiYqSuwYyYxWHgO/1FPJurGA5PKRKxEmToshAXSTDiiWDQ7sXJk60jnc0tFwgQhEzdOxsomHgAyQeqfaR93ueV0+WFw+lnWRkE5uRyCdRKBXRpagbyzjMMWmSAQPvuD4QZkMvLNUKr1YzWKud3KGp9Hoa7T7ESw8SVH3VEHO1w4d02EbZvvwNF6QqkKSQpzy3thT8cxZAjgMPNA3Af/i1WF0jPAwjz21tu648yQBhyBtDaORj0Dw8c+vPPH25OJBKfOXr0qIFM30ivRT8UnEasJ5UayOGUhsnmwcFTTejuGUSgbz9uvHoFAwgUP9zV1YZXXnsb3T0DjPbfvHEtVq2sQTGxCWoNAwmxeAKDQyacPtOMpuZWtLS1s4XNE998DOvWrmZgggMInpRzHNgiKGnmM13OwhXGIFBypliexhifN956H23tPXA4XYy52bhhDcrLSpGVlTXWxUBLxhGTBY2nz6K1tR2GdAPu2n4b1BoVYwo5BmF+AGF8vq8QgLCYXQzf/OY38eJru7H6pm9BVVY7472JAELE5UDQa0VXw6u4YaUWP/jBD2AwGC7kfjbta4KhIEymQXgdJsSDLsgEcSiIOhotO/CFApLZgyg4+u33B+Hwh5lWITMvHTafCI4gULOSqw1PBQjUnx6KxZGQqyHPzIEhvwRp6WQvPNk8yB8Mo7lrhN1AqMc9S69GXlYaMvV0EnLLb2JxSCi6bdu2uQHCPfcIvnO14Jt3buv422yDXTdiFbidXn6H2aZpen3PqpvEuusy87ILUGrULbpR0nhyYWpfE+s75vFhGyHDx7kHxUf3DdhhdQF9PBt6hSPwx6PQD9UiLndAKoohh69CrkKM8mI9qHvj4sU9ixAIRtHePcQMg8g6mlZ1qYKj5NFqGEBoOK9dKhKL41iHB39uFqJ243UoSlciSyuFVi6CRi6CWiaCWMgFPo2D3zh8wShcgQgcvjDsvjC6LT4Mmu3gNT6PNYVSKDL9WF9fyL1klIkmAo3Oy1T3vaPDDLF4EzZvvp0ixef+4pbIFovZ5njiUMOLLa99658lEslXY7HYvQQSurq6mPCvpaWFsQm33XYbs41PaqjInv29fcdw7uAfcP1VtQwgKDWZSPBFsFht+GDXPhw9fgYer4+FmW3euI51NNDqVq3RjrqTCph7a1//IAMjtPpVq1WjAMHCHBNTKTEkvxLOU4nzRRhvEx4VLF5hAIEMkWQqPWIJIewOJ/btP4QjxxphtTmYEu26azajoqIMJUVFKC4uHPVFGF0AjmrWkvfvZImBWh3nO5Jtj1cEg0An4f79+5lCl3z/FzLuueceHDltQd2dfw9p+szmMfQZEZcdYY8TAx17USHvwz/+4AdsHxZzMOMknxdm0wADCvyoD0oRHxKRAHySJPB5jHol1BeOxWD3BBGKxCHlAcMmFwLafKzeoINCKR8DCK72fmbhGeKLIM/MRVpeEfTZOTM6QlIJgx58Ugl5hM/sPDiT1fJUBqHgpm9nb7+2/+9qS+0b5DLf2Z5BRfOu43lne7szm3lSwavbbt66ttion9zF4AljxB1eMIOQNG5J9Ttiimw+D9ahuQGCyeLEwAgflqASJ5TNGMo1wZPlBk8mh6F/NWyRPvg8dgj7+ag7dQvKcqyoq/ajMF87ljmwuF0MIlZjpvPBanfD7fFDpVIyBbR8FmHm1LnRGgow3H2cc2GbUDqOshKDB2+1ilG7aRvkYiHkEiHSVRIopQIoJUJWduBekwCfPODjCfhDMXhDUdg8IQYUQpEYLHYXEqf+Gzety4TZMQKdTs46dgZG3NCl56K4pGxspZvKd+fxBJCbuwpVVXXzel0q730xt1lMgHD84PEX6lUrHnn55XtKAHzNYrHcu3PnTsObb76Jq666ikWvr1+/HjfddBNkEwTI08U9y5U6xHki2OwuNDaexuFjp9DTM4BgKILK8hKsXr0SZWWlKCsthV43fbcTmSf53WaE2Hk0twZh8jxPjU6/MgFCsixKQtA4RHC6fSzThgLk2jq6YbE5mO31VZvqWRdJTo4RxUUFkMsnl4Jp7qibiBgESmqc/+DaTK8IgEBolSgZSgskIdtCxl133YUTZ2xY8/kfQ6Sc/b2IQaAyw1DPQeTFzuHZZ57GypUrF/LxM76WVplOp4OVHXwuCyT8CFRCPsQC0iLwOPtMouKiMVjNdljsfsj0GchbWYdoIoBg1AOhMAbeoA2DLf3Q5xdDm1sIbVYOlKqZTXJSPRhalVCNkyjLqWMqQDDe8bShxmivCwaF6DKrWrPMw6YTJ34TodctZliTj6KvaQWk5FzfWD/+HNbKU/educXx+CysaLbRO2DHwUgvelUC1EjvxKC+D52qU1DaCuES2GDWdCDA8yMW40FkzULJv/0zvPYWFOU149pNvVhRpeVKDovY5kjsh9cfQk+fiSVTknCpf9DEVpAGfRoK8rJTKolRihwDCOSVP2ESOIDgxV/aJFixaRv0SgnSlBKoZULGHEiEfEhFAvZDIxyj7psYgpEYwtE4/OEYHN4QbL4wTFYnAwhfuLUSoWAAPf02hHlKGPOqUFBShcLConl3CtFDj1bGH2Wr5d53nnlo9Flc7nA4vrp///77urq69DQ3VJolxq+2tpZZsifH9GFNYogkMvCEclB/fm9fP8unaWvrhsVKibIRlJeXYvWqlcg1ZrMHV0FBHuQTgIdEqoLPYxrNXJg/QEiaJyUDvK70uGexWA4IZfD4QhgeMaOh4SRa27rYfDtdHgZ8169djbLSIuh0acjMyEBRUf4YICawQdfshQEEwvRJLQIHxia3nFI79qguZGqXSZzzrmDM6ATNyJl2K7be+gjq6zek+liZ93b33nvvnzs6Ou7mpaenl/7kJz85s2PHjpmb2Of99sC9996Lgw1DqPvU05Aaxu2Vp3urJEAY7jmE3NhZPPP9f0BdXd0FfGrqL6FuB6fTBpfDBK9jBEoxoJKIwIvGEAmEYbe7wJNqoMnKhy63ECqNht0IXB4bQmEv3MMjUMp10GXnQqufXl+R+t6Mb0n79fzzz0/rKjmdBmGmz1hMgEA3sv5BC3R6HfJzcyCWkEf87NbK0wIEPh+WWQBC97AJTV7geG0vLPl2rBi5DcFYGA6eHVWNn4UvGMeJ2ucxYjiLeJQPRXsd8v/v0/B5E/BFepFV/iruWmvHinLd5GhbAguxKOyuEBKKMlx13Xbk5ubO+vVQffjZZ7+H268uYuE5tGLvH7TC4wtAo1Yhx5iJEZOV3WDC4QiyMw3Izc2a1nI3+UEU7TvUSQyC+3wGoduHt9ukYwBBp5RApxRDrxSz3zoF90MsDLEFdm8Ydm+I/SZgYPdMBgg31+fC6Ykjt6gG2fnlqKggIenysUq+kGtn4msWm0EggEBNzolEgvfSSy/VFxcXP5Odnf0Jh8PBowcMdTIkE1hnBwicO6JQKIFQooQvEIHZ6kBPdw86OrswNGxmtXASMlKOQHVVBQoL8lBaWozyshIo5HJIZCr4iEHw03k0X4BAe5e0BB51I6WHzxVWYhgXVo/HPYulKgRCMThdPpgsZnR3daN/YJgJrW0OB5wOFwNjVOpZvWoFtm7ZyMoRVE4NB4hBcF7YaclKFuPi0GULEMjFj2pr1OdLLMJCBukIfvrz51C09l4UXv1Z1rUw07gcACG5L35yXnTa4LANIeSxIGKzQ0b9ycZCKA3Z0BrSz1s5hYJBeL0epOn05+kMFjJn9Np5ZzHM8IGLCRDiCR6j1kfMDtaNUVZSwG5U8xmc6QsflsHmaV9G1PhfPOfQUy6EuzAAv8CP2p7bIXEb0Jy5F+n9a1By9F4cXvcfGMg5DMlwMYI8P3R77oLg+CbYig/DW/saVjs8uD83E/lG7dhNLxaLMGGo1S1EzdobUL9xK6sbzzYmAgQyeaIVeyAYYYrmIZMVkUgUhQU5kIhFMFtscLl98PkDyMrUs9KDdDSue+JnpGUUYajz2IwA4Z12+aIABNu+3+D+u25AYUkNKymkpY0LZefznS3nbS8WQKA5kUql+b/97W+fuf766+/PyspKOc1xzEJ51N6XMkzI+z/BE4P0SVS6GjGNoLevD0NDJi6O3mSGzeZA/fo1uP9zn0Febs4oQDAtACBM0CJcoT4I5wMEznqZc02UIRiKIhCKwuV0YmBwAINDw7DbHXC7vex3TXUFvvLFHezeT+9Feo+g7wIBAruQxn0Rli1AIA3CgQMHmIsidTIsZHR0dOCvHn0Mx0+1IX/Dp5G/+nZI1dMLDwkghN12DHbtR6GgEz949vvTUuwL2Z/ZXksonB74wYAHsUAAYqkcGn0Gc9+61IMYhP/4j/9g7pNTx+ViEOxO71iIjNXqZD7yxYW5yDVmTqJUZ5srLkVNAPNA03mb0fzv7DiL9/J64K8TAiI+SC+6vvl+5PVsxc5V/wKZOR9VBx6CWdIPh8CChFUPU+YZxKxpEJ5ah5Etr8C5+Q0o2vnY3q/Fjk1l4POpI8WLYVsYhuxylFTUobC4nIntpgpIp+7UZAZBxFZ6Le190KVpYczOwCCtOuxOKOQylJXkIxKNwuFwM0aBVn+0sMvLzURBvnHMH0KXUYSBziOMrpw4qMRwotuPdzoUiwIQhB3v4XtPPorcnJxLffoumc+7mAABQN6vfvWrZ2699dYv5M0j7nkqQGBlN5a1IOaAAgSIxoFAMASHwwaLxczaHC0WG3y+AG6+cRurk0tlGnhdwyw46MIYhGRHwwQznyueQeAAApd3QamZMvAEYsRi5FcTBy0UvR4XHE5ic/pY2+89d28fAwh0zVJa5oWPid1WsQkeCcuoxLCYXQx04lI70GuvvYb/fvFV+ONy6PJXQJtTBYU+D1IV9ZcKEAl64eg9DUfPafidXbj39i349re/vWAG48K/yMv7SnowdXZ2TusFcbkAArX4kYJfJpWxtEK6gfUPjLAAodV1VSygaK6CA1GqJPYxD547FXHUswAAIABJREFUb4IHhqw44gCa1nhgKe5HmBdiACHNWQSVMxf9utPgBWUoO/AA1M0b4ffxEPADroQbHoET9rzTcBecgW/FYcTtPFQ3SfGAWA+FUgWJyojKmnXILyxlLWmpppROLTEkwIfN6cHwiI21p1VVFMEfCLIyg8liR7o+DaUl+UzD4nKTIVWEtcvK5VIUF+Yw+pmc3AbaD3PtUlNEiid6Ani3U7UoACHDdhzP/O3XFj0+/fJeGfP79OUFEEbTHBmjQK6JfDKAZT+RSAhulwPHjjVgRW01igrzIZVr4HMOs5o4qeQvdHDR6Ve2SJElNI4GXE0ECGNpjkw8LWCtpeSuSLNJ99+OtjbcctM25pND70EMQsBHHRAXOjgB/LLWICQZBOogWKgPQnIabTYbWltbsXv3bhw6dgpnWzqZopSyzpkNXSIGMT+ODJ0K1159FR76ypdYu9BcK7wL/ZqWw+uYLfQ0fWiXCyCQpbDXH0b/gBleXwBVFcUs8If8Cdo7ethquX7dCmg1yhmnlwEEgZBlEUwdx08PwRLaiHhtHo6UvoRhVTv5ViERo9ZTPqKJGLuAa/7y19CcvQoBHx+BAOALxOFM60Lfjh8iIggiIvEiFuZB2RrGnYO5eOjuz6G4tAI6nX7eD8upAIFKZFRe8PmCDBwNmSwoyDMiNzsdLo8PZosdQyMWqFUKVJUXMdDk9wdYRDOxDNS1ossqwUD7IZYMN3HlR6vGhu4g3utWfwwQFukCXZYAgdxGWWAQtaFSlxNn4saMtI6dYIxUjjGLWTRzAMF54QwCm2cuMvpKFynOBhCSeSd0v6X7HD2TbDY7LFYrykoK2X2YmB66Zin/YqGDtAjLtsRAN0WyESXRzVTBzUImhm6GTqcTDhKCOJ3M05wUvvR5VAsuLCxktC/pHsjucqISeCGfuxxfOy8fhFkOcDE1CMMmB1vVUI491dqbW7uRmaFjiWjBYBhenx9NLV0IhkJYU1eF/Nzz21pZ7Y8AQt/5AGHvUQ/s/m3IKqzHnpU/Q2f2AQYIuEAmMDZBPVCF8jefBMwZ8PvBAII/GIfDeA4Dj3yHrbaiUW579Phxb3g1fv2Vf2AOdxcy6Jx96aXfQRYfRmFeFheaM9qaSuyA1e5iQCEUCqO6qgRKhYzRwFR26OkbhtfrhzE7HdUVxQw0kPGAPqsUA+0H2c1mokqRWihP9Iaws1vzMUC4kC9rmtcsW4DAH48aZoc1agnv8/khFglYN4lUoYXXMcQxCEmjtwucN9anzxwWJwgWmdHYNIFOk1T2XKcQ3a8cPjHS8rfg5ltuucC9WPjLAoEA3nj1BQhjVsbYzaRBSJYYkgzCdAsxei7FYnGIyKIfYLbMHECwLXxHMTU4axmVGBbh6FN6CzqpSBBJN2ECA9Q2thQZg8bGkzh8+AVEo8HzjovKIwZDJW677X6W5b5YgzQIv/71r/H1r3/9vLe8XAxCNJpAc0cfiwYmX3O6cLp6BtDbN4w1q6qYgp/odnpYElCglbRUKsaKmnKUFnHdAkmAYOo7Pem46ELcfTgOq/cGGI3rcbLyf9Fc8iaCIs4rgO5/uvZ6FOzbAcFwHoJ+jj1gAIFo/JV7YL735wxEJH8wEsTdkTr85t5vLahURYD2wL73EfX2o6SQjJHGCynEDFCJZcRkQ3tXP7PjXlFTijStCoFAiHkPEKtAx0c3LErp02eVoZ8AAqOGx2sMjEHoDeH9nrSPAcIiXUjLFyDM7I+SnBqpIg1exyATzV2wBmGUQaBfHECYwYJ5KlgYAxJXAkBILS11cQHC1OCsZQQQCIU1NjYiPz8fRqNxkS7V5fk2jY0NcDrfQ22thPnVnz94sNujOHdOjW3b7ls0kLAUuxgIjRNIGBiyoLO7H7XVZOKiZQ/I4yebYLE6WAANpdQR8COFfygcQf/gCFZUl0EoFDCAQLW8kb7GSVMZCIax96gUFvdNMBhWwie2o7XiDfSUfoCgxMUAgshpQP6uB6A4vRkhnxDBILEHCbgy2mB68EcIq+xjTANbUFlC2B6qwS+3P8mSSRcyXC4XDh7Yw8SVq2oLztNaEAAIhcNsDppae9hxr6wpRX5uJtMZUOKkSMgFVemzytHX9iEDCBNFCMQgnOwL4/1e3ccAYSFf1oTXLkeAkKo7qVShmwAQLlyDkJyuMRZhJtZguhTIUa+RZc0gpOjlkgQIZG+9GIOC/MaDs5YRQCANAtn8UhdDWVnZYszFsnwPKoN873uPQKfzQ6Gg9szpJXjkvOj3x8HnU+b43G1/ZrMX99zzKNas2TijWG4pdjEwum5UyOPx+HD42Bn20N+wbgVr8yMF/9ET59DXP8yEevVratjxUa2NtksyCETvjfSemnRO0By+uz+BnpEbkZGxnqmKQwjDL3LBIzNhqHQ/Rsr3QXN2MzLfeBgRj4QBBKZBkFkw8u3HEZV6xwACe/PhAO6JrcJv7vvOgu2BaYVG/henGxvQcHQXNq4uhlBw/iqPxXpHY3B7vDjX0o3BQTPkMgljWHKNGUyzQZ0Ufa37EfSTZesEBiGWwKm+CN7vM3wMEBbpjrFcAILXF8TBo43MZ2Pb1s1IS5s76lum1MFjH0DQ51iQSHEcIMxiwXyFMQivv7sXR3p7UJOVgwfvuTMl5nqxAQLN+3iQ0zIDCHv37mXg4KMMEIaHh7Fnz09xyy25kMvFi3TLAvbs6UB6+u2ort48o8aDHkjE5EwHOC5VieHxxx+/vvFUA5oaD6A4V8U8DyZaK9ODf2DQhEPHzqCyvAg1lcXsQqOVSFtHH46dbGLUeklxLrZuWs2sgRmDIBRhpGcyQKDJ3XnAj+bum6DRXj32oI9EScHN2V6PVO1GwqmGZdX7iIWEUL30FURMOgSiEbjX7EHgE2+wbItEziDAj0M46McD/I349ZefSekGkMoXTCuljo42vPPmH1FeoIYxa3pvAa4sEmfUr9vjYz/kjSCViGHIruAAgm8qg5DAqf4oPujP+BggpPJlpLDNcgAI4UgMp9q60RqNICCMQWH14nPbtrFk1NmGTKnnAILXvigAgT2wkkFOU1MeryCAMDBswa7WPhjWluNsVwuKh4L4/Ke3z2n6xgEEFwvIWrQxFpy1zADChx9+iIqKCuYMNp9BJ5jZYoYujcssX86DvNUPHPh33HZbHhSKxQMIH3zQBp3utlkBwmzzdqkAwje+8Y3riRI/ebIBrWcOIj9LDqVSNu2uHTl+DmeaOlBWkoctm1aNZUwQQKB8+8wMPVs9U969UCDGcE/Dee9z9OQgTrTcggR/OxIJCl3iBIeRCPdjrdmLwZv+C2GFk+VlCJtXQPHDHyAQoKhiIBhKICbzAre9Cdz3v8izSvF3slvwV/c+sOj2wBSH/s7bf4bb1o21tYVMOJbqSDdWord173mGK+SDcKo/hl0DmR8DhFQnc47tlgNAoC6gnUcbkbdtCwa8Vgy3dmCDKA3XbiUHv5mHXMUBBFLVL6TNceIn0P2bAwmjAsUrUKTY3NaDYzYX8utr0WkZRNvru/DTx78GAetemHlQBxYBBJ/bskhnJ/c2XJBTagDhxNl22ALkw0BMZZxFfpN2jzw0brzxUaxfv2FR73WLZrVMq6WW1ma88tqf0NbewXrNN65fh/r165Gbk8sOYjl5uNMXNxtAoAeU1epBNBqHVitnFDqJ9yQSIcLhKFSqmR2rUwEIlIfx+uuv49Of/vR5J+OlBgi0A6dPn8aZhv3I0glg0I2nTk7dObr4Dh49zWKYr9pYhwxDGhNgJztSCCCQBmE6gGCxufH2vgL0jdwJsbhgTGyYBAl9/+ef4Kk8hhifLiYgYTZA9tXnEApxAIEABXgJoPYMeE98D1uDWfjF1sewoub8PIvFuMLpOzp37hx2vf8XZGgSKCui2FgeY0pmGxT329uy53yAEAf6HXz87oQA6264C3qlFBdqtdzd3ob16WF8/cHPjqmwF+OYl9t7LAeAQPeND8+2oFchgiRLC3tXHyrDEmy/4ZpZV7VylQFuez8CHtuiAQTugZVAPGkJfAUCBIpV//H/vgrjjevhC/ox+O5R/OtXH2ULmFkBgkjCdEOpAgRaHJGImawVqLOpo9/KslwicR4kQkCnViA/Ow1ymWi07SrG5TVMk8UQj0bx4fGzqFiVhuoVWRBNWZBQSXb//gHk5W1HScnssgCVSs1avlPxgpkWINAJQlQq3dRT7So4eeokfv7LX2JgYJBNCoGBJCWt1ajwzD88jbzcvGV1f5kNILjdQXz726+hoECHSCSGTZtKcPBgJ265pRatrSbcd9/6GY81FYCwFESKSQYheSDd3d04fOADqKRBZKer2cNwJtBHq6IPjzSCHBd1Og1uvmETREykKGUlhuGuE9POz/6jVhxouAPByCcQj5MokmMR6MddeQT2W19AOKsf8RgPgj98FomX7kU4PAoOku9Y1ImM+/8dXy8qxbfv/9pFB6akTThy5DCOH96LnAwpCnJ0EAp47IYz3fwwgNA8DhCIOYjG+Wju8QOKAliiSrhlOcjNy0e6VsFCm1LNYrC4/LDY3ehp2I1//ZuHUGAki/Blddkt6s4uB4DASm5WB3639wAcGVLoQgncXlSNmqryWY3HOIAwgIDHurgAYWxVe+W2Oba29+I/d72PsCCBuyrqcMu2LXOWGKg8Si2llH8x06DSIgVt+QIx7D7SjDNdNgwGpBBKVZDrsyGUyNl3StqDsN+DgNMEQdSLfE0M6yoyUFuaDYWEFhlxLmxuNB/D4XDhQGMjSit1UCpni0sikDPzBe/xBMHnF+Lqq+9DeXnFnNfatACBbniHDh1iNsvkTTDXCIWC+NGPf4y9Bw6w3HICGFKJlHnuExoi8doTj38Dt996W0qoZa7Pu1T/PxdAePrpN1Bbm4PeXhvy8nTIylLD6w0hFIrhM59ZC6mUU61PHakABBIp/uIXv8CTTz65JBiE5E6QcPP9ne8g4h2GMUMOpZy6EmZG3nQukKKfau80WIlBJMZQ1/Fpv0Z/IITX3pPgZNNdiMXrEIuRyDFZakjAe92f4b3zd0icqgPvX/4akYCI8zwYG3HI0ztxx4N78dNv3Apj9qXrwiFx79GjR3Hi6AFoFUB+ThokYh5rfSTEn2QWMnKr0NO0Gz63A5EY0GeJIy7JxSfv/DQr6ZltDvz2pTfQawuism4tdCo5AwoZWgXS1TIGFiisyekLw+IOwOzyw+r0sdCmro5WeE09ePyL96GyKJdt91EeywUg8PlCWKxOnGxsQn6+EdWVpXM+sBRqA1w2YhAWFyCMsQiztTxeAW2O5AQbCAaZbXoqVwkDCL6ZAQItjO3uAN452IbTw3xk126GLjN/tuf12KUZCQdh6WlDaPgs6oslWFOuh1LCBxKcD4Xd7oQtbMb2T9VCrx8PWyOWglhsoZCcHsmansTyfKZ/mu6+bLF4cO6cBEbjDSgvr5zz1jAtQJiv1XJPTzee+cE/ovH0aSYS02rTIJGIEY6GQdQIPSQqKyvx4P1fQFXV/9/eeYDXVV35/q9yVW9RL5ZkS7ZcZcu9AS50MNgQZkJCeg9h5iWEmTeZ980kIZl5pHwvfQglkIQyEDDOUIwLBmPjAsYFGzvuRS7qvV3pXrX3/fbxMUKWbEmW7Cv7bn/6LN17zj77rLPPXv+91n+tNUEet3vQd3XnvfNeHHAugOD1+vWnP202rgR7EXa7o1RcXGtAwuzZOZo1K1sREWfXcegNQCBM8LnnntOXvvSlgAII9mC2bt2qnds3KS0hXHFOh2KiLaV1vhYeEWUq2BUd3XrWofjU/K0h2n+sVpt3jNeRY7eosTFbra0Oi4vQ0aL6Hz2gNrWp4//8RG1VXZnebYqNLdVNNx3UQw+la9y48yPk8423P99jfdu/f7+2bXtf5cUFSvBEKiPVrQhHiAHMqZnjdOLgZpVVNau62aMbb1lyVs0RQNWO3fu0Ys1a1TW3KX1YpnJzspWdkaQEl8UDqan36lhhuQqoRFd4Sn6fV1fNmKrbrr9GLueVU7HxXM9oKAEEO5tfb+dcrDtZtZUn+g0QTMRNS6vJ1YHLlCyfJhT5dDjuGYZ9d3yEIQ8Q+l5fh82NBRBKu31EJ0vr9NrWMrlHz5MnKa1fOq61tUXFh3crqeWo5o6OVpwzTB3nAAj79xerqKhOyclOjRmTqgMHSjRyZLIKC2s0ZkzKWWMYMIBAmCMRDIQ6nq99uPtD/eJXv9SePX8zueejY2IUFRVprAmGVd7eLkdEhOLiEnTj9dfpjsWLNTwrK+CtCZeapIii6c5PdCk4CN3NAYDk2rfeUmnRQWUmRyvSIbmcAKaeLQoABEd4pAqPbPkIPbd2yNci1XhD5QtJ0sy518rjidMTTxzU6tWZKipKV1NTnFraJd+v/kEda65Xx7K/k9psUhEIukZJSdVasGCffvjDUSZNdyA0K+rhsHbt2qnKijLDgOY98DY1afK0qzRv3rzzuvFq6xu0e99BHT92VE0Ntapp8Km5pU3x7ljFJyQoMTlV+ePHKjUpvlcgLRDkcrHGMHQAApkTz58cqbPcYt0pqq0AIJT32sVgJfbyq76xRTXNzTpZV6bq+ga110cpJiJacQkRSvO45YkOl9sVKUd4yEfJky6jPAjWGnX+DU1neQMQfN4aNdSeDRDgGfzx1Z3KmHmXPEmpfe676/uwd+t6jYo6pWmjXAoL6dmC8POfrzLz5tSpan3zm/P15JMb9alPzdSWLcd0330LzrIiDAhAwP+9d+9ek1wmNZWb7blhHVi/4R098uijOnT4sFr8LVZCGMwcHYR5yVTvS0xMMqmb/T6fsrNH6L57v6n8iZP6hbIu1uJyKQECcqV+RVLS2ZUvAwUg2M+hpKRE76xfp7rqUxqWFK2QDr+csVHGqtC1OU5bEAAIEGua/B1q9IWrOSRRY/Jma9q06WfSIpPu+9VXN+qll/zat2+0iotjVP+Fh9Xx109LxcOkDp9IO5Gc3KJRow7qjju8uueehSZNdyA3MjO63XA4eh/5EMj3E8hjGxIAgcqCMOj7SBYxAKHyuJrqzg8QWE8gT5dVNul4mVc7Ssp03NWgquHVkjtKSWXT1VYVqtLm/YqsaNKYljjNyclQ7nCHkuMhmHcq6DTkUy3brt++AQQHFgQDEErOmvKNvg49veaoZlz/SbnjLrys+v4Pdyi09qCmZ4fKE9Xeo4vht79dq+Rklz788JTGjk01Fu3S0jrDi/vUp2YoMdH5MULjgACE3r7w7I6oWf78C3/RypUrTUlSmln4qJ8dGqrIqChFREYoKjLa4DXAB2EdV111lb7xta9qVM7I3l7uoh93KQECLoYXX3xRn/vc586670ADCPYAATTvrF+vitLj8jjD5YyC7NpsgILLSaGiEIVHxJiQnMN/e1dev0Ot4clKGz5BM2bOMZEv3TUAyKZN2/TOO7U6WleuxhMj1NEequjoelFl9+qrI7Vw4SyT+TPYghLoLIGhARA+qu/Rl6fn9KSqtvy4vFgQ2gnh6b6Riqu+qVl7S8q0r1SKTJikhkkN+jDpHZNfxNfhF/8od9xK/YHWEKUt/4wc62KUm3pE113t0+iR0QoP7RT+OERcDNSOUQhp/CNNeHVouJXsra9gDMk6HNEmKVV3AKGioVXPrD2l6xbdrWGpF0YMpp7M1m1b5S/fq9k5oYqP6egRIGzceFglJVSLdcjjiVFcXLSKimpVW9tk3A5Tp2bJ7f4oNH1AAAIJcFjsKXDTU2bARm+jPty9Wy8sfVEbNm2Sr6nZhK9BjOjA3hIaas61SXotLX6FKFSOCCsjITvjubNn6V+6IeH15SUZzGNRTMuW/Vhz5iQomlCUAWpbthxXXt5nNHnyvB4TJQViFENvb5/5Q4nv/fv2qamxUpGOdsVStFNtCg0JVXikUxXl5XInjdK0GXOUldW36BbmJjui7qwrvR1j8LgrQwKBCBAam3yGp5SZNUzh4cSwd09mPt8TcnrSVFN+zITdUR2w20aIXVOLdpwo00ZPkRxT0pVan6cwr1P73FsUXzJe3vZmFSbsVpWrQP6OVnX4wzV82QOK+mCu6qprFOdaoSU3ntSUvGiFhXUNwwvsWgyt5GEpr5XL6VJycpJxdXdO9nY+GXf+3gAELAg1xWedVtnQqt8tL9C0az+h/NxMpcfhSg3tkxMDa7vX36ai6iat3fCuXE2HdN24SMWdAyD0ZfwcOyAAAd/y5s2bDf+ga7lniC1FxUXauHmzXnt9uQ4ePGj4Bo7wCBPvCcnCZJA7bUlobWk9w0HA1UB0A6zucEe4xo8dq5899FBf7/GiHd/Q0KBly55UbCwhn33zD55rkBUVjbrmmiUaPXrCOVMtB2IUQ1+Fz1w4fvy4Ie15GxvU1upTrNOj3NFjRDnxoZYbo6/3Hzz+0kogEAEC+T4OHytUxrBUDc/KVGxsbH82tHLGpaumDIBQ1j1A6JCaWlq0+WSBdsdK1fMaVRFequFlM5ReMUkH3ds0av8iuU9M0sGsN7VnwotqctQrpN6l9OVfV+SOq9RU51BN/D65057Slyc7lJ8bpxByJHSxIFBLpbgqTGOnLdKChQsv2UPvWs0RMHDg0Ck1+1qUnJSk7Owsk8Cvj94ccz+OiGg1YUGo7g4gtOmRVSfkmXCDsjPTNDbNbaKNYqPCFR8ToaiI7t2JcEKa/G2q9baovrlFJTXNOlRSr327d2qk40TgAoSeUi0XlxTrhRdf1F9f/h9TthmzMIkXICOSg97vazaFegAD1BgntCssPNw8lPBwh5VNLzzM8BQmTsjTj374w0s2mQL5whA8161bpxtvvPGsYQaqiyGQ5Rkc25UpgUAECNQ0aW5u1e59R0yZ+9SUJKWn9d0s7YpLV7UNELpxMeAu2HmyQM/F7JYWeNQc2qzQlkhlF89VRvEM7cxYLkdNisZsv0dlscd0OGeNWpsc8oU0K6QiSc63F6ulPF4ltz2hhqS/acLmdv3L3BylJcSeAQi4mUsq6tUe6pErcZRmXnWdMjOtyq2Xop0FEEJCFRLmUFl5jYpKKo1Ve3hWuuI9RNL1bYSOyBjjYqivLjrbglDfpkfeOKXk/JuVlJho9F6SK1IJToeSXFGKdoQZawLXNNVXTpdgaaPGi69V5fV+VTT4VOdtkb+1XccOfKgRocfPAISamjrtO3FY+TPS5XJFd8pS3LebqK31qr4+Tfn550+oxDB7DHPcuHGjiWIYOfIjjgBm7xWrVurxP/zBZBkE/cTFJxgEzN03NTUbgNDQUC+n02VMZ2RQpCGwqOhowz+IjooyaS0njB+vB3/wgx6fEqFtJMGBcEo3ncnxFOmJjPz4Z107wmTT10nQtykzuEdjqu+OyBYECIMr92Dvl48EAhEg1NR5VVffpOwRmaZEeKO3WU5njDLTUxTncfeaXG9ZEI6qsbb0rCgG1r7aRq9+v3+9Tt7doZCYcEMYD/PHaNTJBcouWKDdmatVG1ql0e9/RiFViaoOL1dbRbxqI8tVmXRAYbunqLUmVkVf+KmaUk6obY9DXyhw6vPXjVWI2lVcWqvm9ijFxmVp2PDxmjJ1Wq+K1Q3m7OoKENraO3TiVLkSEyw9deBwgZEDZddH5444k5+lN2NyRMSo2dszQHj0jUIlT75FqclJSoiJkCfWoajwMIMFiADHigBQgIsFCCASiR/SuJDLpdnfphqv3/wc3vdxgFBX16h17+9XXEqqxowdL5fL2eeoF+6xtbVNcXEZGj9+uuLjz0+m7BYgsHs9efKkEhISPlYF78SJE/rtw7/TipUrFRUVYxR+dDRhbWFqodCI12t+8A+7PR6TECdEHeZ7pzPWcBMACDGY1MiIm5en7//bv/X4bP72N6m42MqSl5MjgVUACZs2WYlzEOrVV1sgwAYPHMsE+OADiUg3WO5wJk1qXosaYb0oYdZPoDbAAe6b7sL1ggAhUJ9acFyBJoFABAhVNfVGaUVHRyt31Ag1NDbpxMkikxjJ5Y7ViKxhio42pJ1zNlf8MNWUHjWkua61GMhr8MG+U3ovLEVVN5aqyHXQuIAJDY6tT5O7ZrgqY06qKaRRWTuXKPWDW9RaGyuvlxLq7Wpoa1JNygHVewpVNf9l+d0Vam0NUeLzfv1szgS1dUTIk5St5GGjlZ8/pVfK5nz3MxDfdwUIHQrRseMlJsVxQny8ckZkmPLzFZXV5nLO2BiNHjWiV+nIz1gQqgrPtiA0tOmxNcUfAwhxzgglxEYoPsahOP6PjVBcjEPREWGqb25VdaP/ox9vi6obrL87A4T5ox3yeRvUqli5EkYoK2ecJkzI65G7NhAy7NxHr2sxkNnvrbfX6le//pVOnjqlmBinIiIjzSTHXtLU3KTGhkbTd2ys07IcgJoiIw1yi4gg2U2bIhwOk5CDCIfpU6fqO9/+To/39Mor0u7d5LGWrr9emj/fAgzr10ujRkk+nzRtmrR/v3TggDRxonTihFRZKR09Ki1ZIpWVWUCBz8vLpfR06dQpifQOM2YELkhA3s8884y+9rWvnSWfIEAY6Ncg2N/lKoFABAi4GLxNfh0tKDIJioalJyspMU6nispUVV1r1klnbLQxhbtdzh4fjTshQ9UAhJpiE1LeuZFdb+nyIxo99cc6mblHa8c/LF9os9kodf7paA1TxvYlytr0abXURZvy6YCEBjWo+IanVTNui/zRtWrraDcbtfZ9Pt1fPEJ33H63xo2fqLS0tICaOl0BApvT0PAIFZdWqqKi1iSFovIsFoSDhwvU1OQzrvGoqAiNGTVCMTHdF6PjJiOiYk3lzLpuAEJVY5sef7N0QAGCu36/ZmTjEslRemauxo6bYAIHLiZvq1uAAIegoKDAsMQxQ1RUlGvtunV67fXXtXPXztPplCVHuEOeuDi1t7Wp0dsgUjR73HFyulwmzXJMdLRFYDSgIMxij3Z0KNLhMDkRZkyfrq98+StnJhgTsLDQUuRX1TLjAAAgAElEQVRYC955R6qpkZxOS5F7PFJtrWUxWLBAqjhddfPll6XXX5fuvVcKD5fWrpWioqS77rI+x40P0AAkAAyOH5euukq66SbLTRGIbShHMQSiPINjujIlEIgAobK63rgYRuZk6djxItXW1RtX4uiRw83Gqai4TI3eJpEKGEJ3ZkaqUpOtaqidmzsxU9WlRyyA8PF84yb97qPPVWjuvIdUG12qldP/U9XOk2csqcai2homZ3GuMjd/Ss4D09XcFGIAggEJLX4VfupXqhu/RW0hrWcKp3X42/WZDRl65hePnDfB16WYcV0BAnVODh0tVGYGBY4iVFhUqtq6BmOhyc8bI5/Pr4LjRfK1tMjrbTaugLS0JGVlpBnZd24ABEiKdZWnzrq1qsZ2/eEtAMKtZ1wMF2pByHTU6ra5EzV9Sr7Rw72tizSQcu+Rg7BhwwaDDmvqarVixQrt2btXxcXFqqmpNgO1/PshRtG3trSo2ddsGPmkUga1gWgBBhY5McyQMuAhYEHgB7LI3Llz9cm//+SZ+2HSVlVJdXVSSoq0caN08qSlxMkXlJEhYbDYuhUrhVUCmGrUgABcCvfcI9XXS6WllkuCc95+W8rLs1Az3xEqv22bBRBuuIHY1oEU58D1hQXh4Ycf1gMPPBCQFgQiXerq6owLyrIi9b/xUrPAWfOqw8wpwCZWKFwt/PA7x0Hq4jgiTDjOzjTJeYAqQiDtfAocwzkpKSnm2MFuyOPAgQMqLS01qcXh7/T3pWbc8Hxw8+HygxBM+XXaoUOHjJzov2umTVJg45Zip0EGxwsZw2DL62L0H4gAob6xWcdPlKqlrU35eaNV3+A1JdHr6xvlcbs0One4mfNl5VXmOwMWmprNujkyO1MpyQlmXnkSM1VVerhbgEA9mN88jQv2e2oMr9W2CU8bEiLrtm1BcBaNUdZ7n1TskUlqqYuxSqY3WwChIaJKJZ/9hRpz9gg/PueYaqmSFr4VpTd/+fx5yyNfjOfb9RpnuRg6QlRUUqWS8iqlJCUqKytNJSXlqq1vVFVljdLTUzQ2d4Qh1hcWlxs5N/LT6FVkRISyR2QoPdVKVmcAgrEgdAcQ2vTE2ooBBQgzhrv0xSULNCw54VKI0lyzR4CwavUqlZSWaOv27Tp44KDS04dpxIjhen3F6wYYELXAggzKsmuIu5xO5U+aLIIcW9vbTJjkqZMn1dbaZhayyPBwE9EAYKCy44033Kjp06f3ePMoegADExPAQB4dQF1BgTWJ8WLExUklJVJDg+V+wEgxerR1LJOd8+EhADKY5ACLoiKy70nDhgUuiZEFgtDAPNBNl3apXQwo3jfffNOAP5DtpEmTVFtbayxOzAkUGjsiXEu8sPzNsZGRVvpte7fDvEHhkzOB4wCN3Df3/MEHH5j+4MKg9AmJ5DxAK8qec9LT083f9EHWxZdfftkUOwJcTZw40YAMXnzGSOZCxs0YWFw5BiU6kMCBktiUfwaQMPdR6qdOnTLy4VkCqmbOnCm4PIAq8myQAwLgfe211wpQjpwYK59DFObekBn3d9ddd5kqqxRS45wZM2YYMML9AE54x7Zs2WIAAmPg2tz7DTfcYCJiABvIE/IxoafIH5nTP+NBZlzvcmqBCBBwMTR6faddCnXKHZmlhDi3SsurVFlVKyr3JcR7NHpUlgHG1bV1BjxYZeRjlJKUYHzmnsQsCyBUQxj/uIuhvsGv3z3j0cyZ/0stHa2qiD+kfeOXqSRtl1rDfGYtjK7IVNrWxXJ9eLXaatxnAIK31a+KBctUe/UKy72Aa+E0h4u5MeWNFm379fKAzAR6loshjMRI4Sotr1ZxSYWafX5NzR9rNqu4dLAmIPOkRI8mTcg17xKfVdfUmXw9cXEu82wsgOA0LgYKZHVtVd52PbG2UilTBs6CMCvboy8snq/0pPOTCQfrne2xmuOaNWt04NABvbtli1lMp+RP0eLbb9djf3jcpFZmoWIxx40QExNrFmLgKSmVc8aO14jpcxUf5tPOzZsVFhJqwhpZwAAUOdk5uvrqqzVhwgSzGA5Ug2/ARnEAuxyoofWrH3tXHWgAgZfw+eefV0VFhbECoXT4DOCIUp49e7b27Nljdq8Ah507dxoFtGDBApWXlxtFjXJmPqAYX3/9de3YscMcQwXRxYsX6+jRo6JypK1YUVwo/+3btxtFS5VRrsXc/Pa3v21+/9Of/mQUPinCUYZcl1044AJFifJG8XI+CpYQUgAqoGEgGkCGXTtWBKwY+/btMyCBegtUeUSho5T5ns8BQFwbZf2DH/xAP/3pT43C/uIXv2hkwzsIYOBdQxaLFi1SWVmZuSd+sFIAAgAJvEukmH7llVeM/DZt2mRkjzynTJkiLAuAhvfee8+EoQEoAC7kO6mqqtK0adM0a9ass4pGDYRcLmUfgQoQDLG7pVWFxWUqKq4w787kiaMN472yqka1tQ0qq6hSTHSUckcONwoMvgIbM9ZQy4IAQDhkAYQuLoZmX5t++liEpkz5Z7W3h6hVraqNKVat65TqY8pUlbpX1Rl75Dw0VSlrPquQkvQzAAE2ffldj6th1tozYKJz9/PfitDbv3yx39axwZwPbFBefulpOdoqNJJqpqcBAvUK6uobjFXm2IkipSYlaFLeaDU0eo28IYoWFZUpKjpKY3OHKzUl0VhbOiDZn66RYTgIjVWqregeIDz5dpVSpiwaMBdDwAIEFD8L+fYd2/TcX/5iJjKEQha4h372U7NoM8ETkxLNQowAqyorjZJg4V946+1qDw1RQ0WpfA2NZkLjP4uMiDS7w6uvutooDxTCuQgXe/dKBw9a1gIMDfAHsBBs2GC5EQACEBd7az3G0oArAvfDuNOVLnFTwEmA6wDxsReRH4M5v8/0jVJg8Z7PDQaYBQEFW1hYaEAhY2TnjPJn3vD3v//7v+vJJ580yg6lxI4ZZThs2DCj2AAWJOBCoXHe6tWrzefMHfqk/gfnYUWwXQwAART/sWPHTL8oUI5hx/yv//qvBhgASlgo2YmjBAEdfI5pHkWLAqc/rk8fXJtd84W6SOzHQ9QJyp97wXoCWKBxHcb06U9/2oAh7puxkW4coAIYuvPOO/XEE08Y4PPjH//YKG0KpgGKeK+4t2uuucb0iSzsXT/3wvdYUrh3+v3Od76jp556yoCQb33rW6a/733ve3r22WfNc+BzniHv865duwxYwMoA4OjOYnVRJvwgXSQQAAJK64nHfqu8kS7Fx8HPInOixSfgmdXU1qu8otrsaFFM48dkmzWXIl0AheLSCtXVNyre49K4MdlKTIgz66YnKUtVJd0DhJaWDv3sMa9G5v6H2tspA2xZAUin3KxmNcSUqiptr/yUdG4NlS/Mq/APp6nj6Ej5vKGqy9mlhsXPqyXzmNpbQ9QR1SyFWlaKL2warj//5HcXlSzX2+mBPN/bvFFFBTtNOfrY2BgrtfLpnIasqxVVNQYoFJwo1ozJ4w1JtNnvV1V1nXEx4GpA7nEelyaMzVFiYpy5fGSU02SG7Qkg/HFdzZUBEBAGOx0WqfXvrNfKN1bJ4/aY/AV/fvppgxxZgFmgOY7FCkDha/bJ5XYpM2u4FV/a0WHMUBAU3S6X2aHMnjXbmIatbFbnTvKwYoXlDgAUoNABCRAT4Sbk51tkRizwr75qERhR/Fu2WEqeGlOACLL48nLgdnjtNWnXLik7W7ruOiv6AVIj1yAiAk4CbgqMIbglcE/AUbj9dov7cDEbSuAPf/iD/vEf/zEgAcLbb79tdrUoauYASgbFh7JjR79t2zajLNk9L1261Cj3yZMnGzcAvIX8/HxzPAqa3S1KznZJAB6xLAEcUJjssiHNouhRsFwTgMEOnTnE9ZDXa6+9ZgAA8xFlx/cAGa5B33byLwSKEr/lllvMOLqrmNmfZ41lhOvxP+8GigEZoeRxJzBmrAXcN/fLO4Nix/phHwtIYjfP/WAZQFYsaryLvHOcwyIIwMHtYIjBHo9R+pij+QwlD1ihD/rCmoDFDosK/TMm27rBsQAy+mOcAwWW+iO/wTgnEAAC91VaWqJVr/9VOekOxXmcJqSxcwMQoKCKSsp1qrhcmcNSDFBgY9XY2GSq5AISeMapKQmKjHDIkzRCVcUHTOKe9i6JkiApPvlCgUKiHldIiOMMyZDwcJNfpq1dtcP+ppLZr6gx/YhaQ1vk2J+nyFc/qbaDuWpq96sptlz+sCa1x9ZJX3pKGnFcKqnXo87P6Juf/epgPK4B6dPb2KhdO7ep5OQepSfFKLabyAQIoMjzwKHjRu5jcocbeWOhaWhoUrPPZyIeINQnnzbxR0S51NQAQDh+1jirvdIf36m9MgACixU7CxYkT5zH1FxY/vpy7fhgh3bu3GUWFBaTcIfDpFGmQiMLFCYZEjhgXmVRJ5yRSAfMulgNMGmy4PVUxQ6ES4giJEUU/FtvWX/bEQwodpQ5uIL8Bxz//vuW8oaMCAERrsLmzZa1gaiFSZMsIDFvnvTYY9bLMXWqFeL40kuWFYLzjx2TEhIksoTu2GFZFK691gIcX//6xXdbBHIUAwoKQIDiYsECMDJe2xyOVQlLgG1RQrnxHUqIecLvNsGQecJxgIzOJEUUP8rO7h9lxzkoNxq/swtGuTPfzE6spsb0Y/gukZFGQTIu5hs7b/zw7JpxKzA+QAj9nA+o9mXVsl1v3CPNLtnN+BhH5+RXjI9xMmaOozEWzuUzzrHHxt/2+RyHrOjL/pzzbflx//zNd8jP5oDwP/1xXYAc/cNH4BiOtcfcl/sN9GMDBSAgp6qqSr3yPy8oLqpZo7LPDg9k/fT5/YaYiL+cCAcsDnnjRykx3m3CH635TWnoEMUlj1Bl8UHVVxWeBRBwR7y7o0Rrt3xNbs+MMwCBzRJWU39osyqnvaHSG/5brY4mUSBINXGKfOob0qarTUQDGyUzLcPapM8+Ky1erqiNJ7T/fy/ViIzALozGmrL7ww90aO9WZQ9zmTL03TVcC83NPhWcKNHxk8VKT0tSfl6uCTNFhtb7ZVl7IqNdaqqvVE0PAOFPG+qUMuW2y9/FwMKLeZPFA7IVC8vmdzfr5//v59q//6BS0ywTMAuRMybWLMzskKiv4Ha5jeshwhEhZ2ysJudP1pw5c8xO8HwuBRQ+bgB0ANk6UfoABCwIuBEAAHCoCGtEwaPIp0yRjhyRcEdcc40VHvn889KcOZZ1YPt2K0wSwECCJcDAhAmWheCNN6TJk61pgzUBAMJ19+yxQMinP21ZHf7hHywy5MVsLOKPPPKI7r///oCzIFxMOQzEtaxStxZgQSFfbrvkvsrIBiQomYGynvR1DBfr+EACCNxzXV2tNrzztkpO7NH0SdndZnqFh4BFAcVVVlGtg4dPqLa2UcPSkzQpL9eABuwPccnZqizCgnA2QOBatXUteviZUCkcN0OI2VCdsSCENqt65huqvPm/1RZJFJEUsm+Cwp79gtr2TDAW1c7ERC18W/rc7/XNilH67Xd/fCZD7sV6jv25Du/80aOHtXHdKo3MdCrBQ/HA7nvy+a0wR8iM+w8VyO9rUWZGiiEuUonWAghuNdVXqKai4KxOsCD8eUOjUqZeIQChay0GAMDTzz6tpS8tM+WbJ+fn65abblFqSooOHT6sPXt261hBgQETuBlyhmcbAhsEKXZ4vV2I7BAcrAaQDsmLwEPFVYAbgd+rq61kR3Zkw6FDFgggqgEAAMjgOywIKHyiGZjw/MBH4xiSL4GkUfz8Ds+BMEr6ZvMHmidMkr5wXVzscEgWcXbQ3ZE4L3UUQ39e1uA5QQlcCgkEGkBABli19uz+UGvXvKxrZuQq5hyVYtvaqHEDIbxdJaWVRoQZ6ckmsU98crYqivd3a0HgOM7ZsadBL664VY6Imw1IwIIASGhp7VBLWLPqp69T/a1L1RbZoJC//r06lt+mlhpqLXR5WrmHNeLa7+ut7/9EIzNHDKjVbTDnBVa2mupqvfLyUsWENSg3O9kKu++hGXm3tMjf0qrqmnqFhoYoKyP1NECwXAw15T0AhI1epV4JAAG/JqFUWA9wJdBQWOzA9kPCKi7ShPETNPx0mV4+x3QMwxprArs03BO4Is5nNTjX5DAs0tNFLQAGNvqzP7c/M+i3EzK0azDwOUCjaz/W/VhXNsUzuvzeta/ONSAGczL3tu8gQOitpILHXekSCESAYClviOBlWrb0eXkivcobm3XeGgyYvGkoLVp8co4BCCTu6eimWBPHeJtatfqddq3Z9BWFh4//GBfBH+KTd/5KeRctk9YtUMeyu9RakaAuEZPmWu7E5Xr+hWTdtGB6rzd7gTL3bJ7cxg3v6IP339bsadmKjbZqBJ1b/+Bi+EjeZywI5cfOOq26SXpqU7NSp95++bsYbEDQk28WgXf3HZ/bbSD8ulgPMPfTLbwBeAnwE957z3JDzJ5tWRb6osCxGmAtwCJgEw/pi36xQMBDOF1f6nzzZ1C/xzwGoe/uu+8+6zpBgDCoog92fhlJIFABgi1iNlebNm7Q+5vf1NS8DKUm9z7sOyFlpMqLAAgnuwUI8Ao+2F8lX2i6qqqztWzZNIWETFJbW4hlRUguUtMdf1FLQqn0zOfUvnui1HG2Dd7tXqXHH4/WnXfOGbCQ4EsxxdBPlZUVeubpp9ThL9OCOeO7UEXPPaqoGLe8cBC6AQj+tlA9sqZaKTP/TmkpyaZY04VkUjzw4TZdlzdMn7t9vhI8PafbHmw59liLwSZIDYSi7+9NUIsBhc4PiY3mzrVcCxAH4R7AD4BIiLIncoF0yrfcYhEXcUfAOyBrIkofzgFERFwIEB2JgoDXgJWB2g4cQ0pmwANgAXcDLgq+57oDFCrfa1EEMkmx1zcRPDAogUssgUAHCLZ4CMFd/urLKis6qCkTshTvIQTcIq321OJTRqqicK9qqz6yINjW0qNFPlU1u/X3d3/W5AEhsua5597RQw+1qK7uBvn90WqNr1TrJ15Su88hPX+P1GArIjaAkGrLNHbsSv361/maP3+yqadzuTSifJ579iklu9s1c8ooI2fbMtPTPQIQmurLTYltuxliaWuo9hyt14HKKIWOnK/UYcOV5IruN0CorGtU6cEP9LnrJ+vG+bNMUqdL1XpMlISLgSQrkAtpsKIBDb1hOiPs/loT7CqNEAztsESyJBKWSOQCSnvZMotjQF0GQs2pGA2RcOZMi5hIKOOsWZZ1gRBIgAB1F8iBgMLHGsF3dlEnQhsBIGPGWIDCTrYEUOB6P/qRdb2L2SAp/td//Zf+6Z/+KWhBuJiCD17rspLAUAEICJ01k8RXb6xeqeryExo9Il4piU5jIYVJ3xUsxKeMsgBC5UlTD4e6AzXeMB081aabb7vLcMA6n4NvfffuA/rtb9dr5coUNTTNUOukk2oPaVPHe3MMIAkLI0riqFJS3teXvyx99au3mLD0S7lRHMwJSQ6XlSteVVRoo6bkDVdEeKgpx9y17gVjiIrxyFtfoeqyo1b66Y5wHS5slsOVrdsWf0KJySn6+e//rHLFKzNnjJLjYpXsie1VNceqBp8qa5tUUlGpoiN7dOO0XC2+YZ5ie1HVczDl02Oq5c4kRXazdnpXEqoAFCAd2jHnhpjochmOAp8TbgWg4IfQNpKz9GaCAQ4o8UwqZaIUdu60OASkRKZaI7UU2MljUWBXT2KjX/7SAgfo0W9+0wIN5D9Ys8YCBfSJdYGXDCCABQHMY1sSiIrgHIqScR3cGnyG24Hz+PvOOz8qNT2YD6Nz37gYnn766WA1x4sl8OB1LksJDCWA0PkBwOfatGmjDuzbpbiYEGVnJSomKkwhssIcw8NClZiWq/LCvSovKVBTS7gOnWrVpGnzdfvixedcb1m3STj25pvvasfOMhUWdqjZG2rWvZycUF1zzUjNmzfH5Ovozbo91CcO+oyw3zVvrFJtZZGy0l3KSPUYnQHdw+GwMldGx7jVUFuuspIClVS1yReSomtvvF3jxo3/WE2Ypa+u0vJ1W5SaNVJTpk2XOzpCcbGRSnBa/0c7wlTf5BegoKrRr1qvXyVlFdq3Z7fC27y669ZrNWd6vhxdikVdCjn3CBA6hzkSx758+XKTBAY0SWY8iIiYxezYc0IZSbnLzhf2PeeQnAYf+nXXXdevvN379lnWAHbyFFeibDOKnbwGKHk4BOvWWd+RXZHjCU0kwRIuBXIfrFpllXgmUZJd1wGkjGWA/+kDEAHwIIwScEL/uDB4PiRmIhkTLoiLbenpHDPfeXIEOQiX4lUJXnMoSmCoAgRb1qwBR44cMcnEigsLFK5mpSS5lBQfo+S0EaooOa69h4qUmjVRS+6402zIgq3/EmCTu2P7dn344S411lUoKqJVmemJcsWEKybWo9Kyap0qrdfUWQs0deq0HuVNwqW1G9/Xe+++q8KqRrljIhTvcZrQf0doiLxNzaqpq1N1o9/olZzMdM2/eq7yx4+W4xxRFv2/s/6d2S1AwGJAMRwiEQAEgAAsCKBOLAREJpAiluQzoEwy3JEXASQGaCAVM5nq+Oz73/++yd42mA23AdwBCjF1boT0kOxjILMg9nStgb4/zI3InRoCXVsQIAy0tIP9Xa4SGOoAoetzIbU21Tz58TY2yOlym5oirLVXwm7/Ys5TLOPoMWq4FBcXqcXvV+7oMSbZGgn/+tKIQCmprDZFoHytHUqMcyk9OcG4NAK59UhS7DxoFD95EMieR1pXwiBxH2AGJxMdP2Rjo5miTYTXeL1nMrX1NgdCV0Gx48f8DxGEHTxZD0Fb5EcgtwE7f7gE/A4B0U56RD926Wh4Bqer5J7pniFyDlyDniIWuKaddhleAxYGm9RI7QZIjp0bx+MCYbynoz8v6LkjxxdeeEGf//zngwDhgiQZPPlKlsDlBhCu5GcZvPeLL4FuAQJmLSrBYSnAlQAwwDKAHwaSInwDO5Urx+BWsNPb2mRGjqXRF8f3B90SxUDdBRQ69RAWLLAUO8RDkh7hesClQCZFrAQAATIi2u4C3BOUfYZgiGsCkMH/cBT4n7BJoh0Ag/RHNARggO/5fe1a62+sdvxP0iX4D5xjp33mumRvZFxkaoQrQWSi12uNj7HwgzUDEGEXTcHawTVxY9i11hkf46UFoxgu/ssQvOLlJ4EgQLj8nmnwji6eBHqMYqDAC4mScCFQVY9iOexqAQCkYIaPgL+GREqABywLRD1QTAazjJ3SFpMYPITeRD+gQLEasBMnquDNNyWyJGI1gH9ARkN29ShfIhHgEQAeXnjByqR4zz3Sz39uKfJFi6TnnrNCHSdOtNIykzdh9WrrfPrDusD1CJWEjIhyhqgDhwEAQFQDoY+MB6ACaACcQGa87Tbp2WetMf3zP1vnv/66BTZwdwAkCMnkWvTLvQEEAAYQIPmfzwEFdt+M4/rrLUIloOvhhx/WAw88ELQgXLz3IXily0wCQYBwmT3Q4O1cVAmcN4qBwjtU5kPhw6xF4ZM6mTK7gAEiFKjdQEEmQiLhJlByFosCHAYq+j333HO9yn/P7vroUUvZUi/h3Xctkz1KG3cCCprdOJ9h7qcoE1YAwhdR2p/8pLRypWVJIH0ytRwgGEI4hHxIUkjqNOCqIGxy61aLkHjzzRbYYDcPoZHoCSo74soAAKDwASaMDxAA6FiyxAIm5EugXAJlqbF4oPBxdzB+AAG5GRirnUcBKwhkypMnLRIl7ghADYAIgMBYAAj4v958803deuutQYBwUV+J4MUuJwkMBYDARssmgEPuJgMthblw67LG4u+2s9L259mwqSPTLVZdNnn8sKHjunDM+B4rMW7iweaL9Wf8wXMunQR6BAi2BWHYsGGmdCzEQxrlaZmw/E3yDYADsaRYFagbgCvBnoxMaoiN9957b7+Ke+AiIM8Bu2928yh+OAMABxQ71gO4ACRGQqnOn29FPaDkcQlgNUBhcy41FXAV8D0hjUQsAEZQ/nyPJYEfrA9ELhAZwbEADc6jH4AKoIS/ybnAdVH+gAXcEpyHO4NcClgPAAqUqQYE0A8AhL8BQIwXCwZ9kueBe2Ec3I8dLQH3w3bVdJ4iQZLipXthglceWhIYCgCBqLCnnnpKCxYsMMTvT3ziEwYgUFKd8DtIcVhyUeysvbh/2YDZPxxrr7kofiIZ6JPNHWs0ll3Waz4DFOD2HT9+vLkWmzpcwFiIcWvOnDnTgIaeKu4OracfHO2FSqBbgMBEZDJhKYBFj6KyS8VyQZRW51K0lIZmYgImmFi2UmMCcx4g4kpqgAFcI4AYrA1YIfrakC8vMFnQurYgQOirNIPHX6kSGAoAgTDGX/ziFwYgsKG64447zDqKtRbFz9pKVBkWhfz8fHMMCp4oJ1yRNL6jEVGG23fZsmVG2RMNtWTJEvP9Sy+9ZNZi+oM7xhpPYqZp06YZCwLWilmzZpmf7qKnLvc5hCwBSsOHDzdyLS0tNfKkHT9+3AAoNsJdN21ElLAZZoOMnLGq95eYH2gy7lUUQ+dBo/ARFpMTAMHEwq1gJ0XiWBBvd1UIA+3mA3k8TFASJX39618PAoRAflDBsQW0BIYCQGA9feaZZ7R48WJt3rzZKHYssawBbBLIK4OrFqXDdyh2lP7evXvNWoxbAN4XCuyqq64yOWjeeOMNY4mARzZ16lQDNv76178aCwQWA/rjd/IrkMOG9RzLxOTJkzV79mwTNnmlNcAYkWMTJ040lhbA05e+9CUjV8L84dqh25ATm2jAF9y6DRs2KCcnRyNHjjRyxco+ffp0sXEGaOE+GjdunAmXxI0DgOBa5AliAxjIuSvOaUHgRrrGe8I3IIkSpi9ujsnIRGUC2qDgvvvuM5yEYOu/BIJRDP2XXfDMoARsCQwFgIByxk2bl5dnrAO4BHADoKBYXwEArLsABnhdKBd2tnyHssKVAFCwXQf0hTUAJcUmLiMjw4Sd79u3z/RFWDpKi/PY/bJWs9Fj94ty5PpXmtWX+QIA+G334G4AAAalSURBVPOf/2ysM6y/truHz3kuyBB5Ag6wNAAIkB2uIJ4H8sPqACgAqAHkeGaQ/AFhuHmwsvMscdtjDSKHhV0xORDf2h45CKAizClMls4N4YBO161bp3nz5plJCeplgiE8TGNwDpjIwdZ/CTCxfv/73+u73/1u0ILQfzEGz7zCJTAUAAI7USywrJ24FvkfCwK/25/b6ett967NEeBcfmdd5n9+UG6cb/fD/xzHWm2bx21+E5/ZIej8jpXiSuUfAAT+8pe/aNGiRQaErVmzRrfddpsBA2yAAVasy7hoAG/oOywt27dvN9YaXDgAM4jlq1ev1re//W395je/MfLEbUGmYfQpQAPQQK2Mm266yQCNQG3njWIAJHRuTDRuFAsCN83kQlh8jl+LCYg5BfNJsPVfArysmKRAmV1bkIPQf7kGz7yyJNAbgDD85u/fP2naxJ/MmDImKt0dqVRXhDzRDlV7W1RS71dhtVf7Dp9o2v7uzqdPrPrRt6QQu6591qOPPvrjRYsWfTErK+vSldy7sh7poN0tbgVcBOg8QBZWGXQZwIG/0W9Ye2zghesHlwEKn+M4lz6mTJli3A4ABTbTWOE5h6g0AAaf0x8WHFxAgRw50mMeBKwCDN6u5jhoTyXYcY8SAHR1l2AqCBCCkyYogd5JoDcAYcRNP7g1MSX+hTmzJ7km5Q5TWieAUFjTpL1HS7Rrz+FThScL//PEqv98rNOVgwChd49hSBxlW1lsi4tdlJD/+Y7NLxs3Gsdg3eGzzt/ZvATbGmOT+7Hw4LIAGOBKwhrBsYFOZuwxkyImFm4O8wlICYFgHoHxiskFAgZoCZIGxBn8KByLr4bzQFY333yzQUcgJ0w0NP7GbAPqwk2BawIhY43AT4NvjH74HuGBxgAqsHjxlyFo+r722msNAqPqJL4fHiJ+M0w9dg4B/HP0TdgO7hDyOJC/AR8QfU+YMMH8gPzgUYDuuB+OhZUKSMI6wsOmb4hByGHVqlUGSaK84Wlcf/31xiRFaChhRRwDPwPCD5YWfIJMDPqGAITfCnIQcmSScT+gSsgqIE4QK30T2kTfF2JByLntR5tvuGX+3JEZiUpzRyjNGSlHeIjZGZXU+XWqsl5b3ttVUlhw/Osn3vjJcq41ZsyYyffee+8v7r///uv7kwFzSKwGwUFeERLoDUDIXvhgXGhsyD1JiZ774t2xecOS3CEU16nz+lVcVe+vqmncW11X98cWf9vSghUPWuECVgsChCtiFg3MTdpgIdBBQee7PWcUA8oY5WvfGCREFKJdrdFGUCgyFD8ggO9sPxrkGJQiSt8Ox0E4gAHOJfqBa6CEOB9/Dsqbfuy+8fNwXQg5gAm7wiFKH6VNHwAV2xcHUOF3rmn3jeKFWcpx+Ii4H4ADph8IJSh7fmwfHcdiToJwwnjsvhk35wEauB/GDRKEeGKHxdiywk9lR3kAHuz74R5xvzAOwIQtKzgbyIZx2z5Eu+8LAQjZN//wV9mjsr46LT/XlTcyVcPcURZAqPPrcHGNduw+0rZ/75GtPp/3ruOrHyoOAoSBWQyCvQSGBHoDEBhp3sIHnfURbWMjo8IT3DFR48NCQxPa2jpK6xt9x30tbSUhPh0tWPdgTZe7CgKEwHjMwVEMkgT6HOY4SOMIdtsHCfTFxZBx6w8zY6Mcd7tjor/iio0aG++MDo+ICFNlbXNHbYO3rKHJ93Jjfd3jx1f/3w9s32rQgtCHhxE8NKAl0FuA0Pkmxi75F1ejL8bR0tHgK73K2aQHH2zv4SaDACGgn35wcBcqgSBAuFAJXoLz+wIQGN7IG77nUYgjJTwyIibCEZYSEhYa197afqje1+IP8/srj70VUS59tAgGAcIleKjBSw6KBPoDEPowkCBA6IOwgocOPQkEAcLQe2a4IdpXrFjxP9/4xjful3SqT7ew8MHw3OjKsMMrf2elYOumBQFCnyQaPDiAJRAECAH8cIJDC3gJBAFCwD+iswd4QQChF/cbBAi9EFLwkCEhgSBAGBKPKTjIAJXAGYDgdDpTpk6d+sLo0aPDA3SswWGdlgDkxqKionUbN278paTqgRaMx+MZNXbs2PsmTpw4a6D7DvYXlMDFlMDRo0f37Ny587Gampqdg3DdxHnz5n01PT19cSDHsg/CfQe7vEIksH79+vVHjhx50CT5WLhwYRAcDJEHv3DhwvYHeyZPXehdMB9CFy5cGEz+cqGSDJ5/SSWQnJzcsXTpUkiGdnKjgR4P70noQHca7C8ogUCQwLp163hv2v4/7CxA+O/cjcoAAAAASUVORK5CYII=" vertex="1" parent="1">
          <mxGeometry x="30" y="-340" width="337.45" height="220" as="geometry" />
        </mxCell>
        <mxCell id="_AYRFwqcf-ICDJ94vdFZ-2" value="" style="whiteSpace=wrap;html=1;aspect=fixed;labelBackgroundColor=none;strokeColor=#000000;" vertex="1" parent="1">
          <mxGeometry x="620.56" y="-400" width="130" height="130" as="geometry" />
        </mxCell>
        <mxCell id="_AYRFwqcf-ICDJ94vdFZ-3" value="" style="points=[];aspect=fixed;html=1;align=center;shadow=0;dashed=0;image;image=img/lib/allied_telesis/computer_and_terminals/Personal_Computer_Wireless.svg;" vertex="1" parent="1">
          <mxGeometry x="420.55999999999995" y="-607.6" width="29.44" height="30" as="geometry" />
        </mxCell>
        <mxCell id="_AYRFwqcf-ICDJ94vdFZ-5" value="" style="points=[];aspect=fixed;html=1;align=center;shadow=0;dashed=0;image;image=img/lib/allied_telesis/computer_and_terminals/Server_Desktop.svg;" vertex="1" parent="1">
          <mxGeometry x="656.84" y="-350" width="42.599999999999994" height="54" as="geometry" />
        </mxCell>
        <mxCell id="_AYRFwqcf-ICDJ94vdFZ-6" value="FCUB SERVER" style="text;html=1;strokeColor=none;fillColor=none;align=center;verticalAlign=middle;whiteSpace=wrap;rounded=0;labelBackgroundColor=none;" vertex="1" parent="1">
          <mxGeometry x="750.56" y="-380" width="60" height="30" as="geometry" />
        </mxCell>
        <mxCell id="_AYRFwqcf-ICDJ94vdFZ-7" value="FCUB USERS" style="text;html=1;strokeColor=none;fillColor=none;align=center;verticalAlign=middle;whiteSpace=wrap;rounded=0;labelBackgroundColor=none;" vertex="1" parent="1">
          <mxGeometry x="540" y="-650" width="60" height="40" as="geometry" />
        </mxCell>
        <mxCell id="_AYRFwqcf-ICDJ94vdFZ-8" value="" style="points=[];aspect=fixed;html=1;align=center;shadow=0;dashed=0;image;image=img/lib/allied_telesis/computer_and_terminals/Personal_Computer_Wireless.svg;" vertex="1" parent="1">
          <mxGeometry x="470" y="-627.6" width="29.44" height="30" as="geometry" />
        </mxCell>
        <mxCell id="_AYRFwqcf-ICDJ94vdFZ-9" value="" style="points=[];aspect=fixed;html=1;align=center;shadow=0;dashed=0;image;image=img/lib/allied_telesis/computer_and_terminals/Personal_Computer_Wireless.svg;" vertex="1" parent="1">
          <mxGeometry x="470" y="-577.6" width="29.44" height="30" as="geometry" />
        </mxCell>
        <mxCell id="_AYRFwqcf-ICDJ94vdFZ-12" value="" style="endArrow=classic;html=1;rounded=0;exitX=1;exitY=0.5;exitDx=0;exitDy=0;" edge="1" parent="1" source="_AYRFwqcf-ICDJ94vdFZ-10">
          <mxGeometry width="50" height="50" relative="1" as="geometry">
            <mxPoint x="550" y="-580" as="sourcePoint" />
            <mxPoint x="670" y="-400" as="targetPoint" />
            <Array as="points">
              <mxPoint x="660" y="-460" />
            </Array>
          </mxGeometry>
        </mxCell>
        <mxCell id="_AYRFwqcf-ICDJ94vdFZ-13" value="&lt;h1&gt;carthago system&lt;/h1&gt;&lt;p&gt;-inward cheque, outward cheque, transfers&lt;/p&gt;&lt;p&gt;&lt;br&gt;&lt;/p&gt;" style="text;html=1;strokeColor=none;fillColor=none;spacing=5;spacingTop=-20;whiteSpace=wrap;overflow=hidden;rounded=0;labelBackgroundColor=none;" vertex="1" parent="1">
          <mxGeometry x="30" y="-120" width="260" height="80" as="geometry" />
        </mxCell>
        <mxCell id="_AYRFwqcf-ICDJ94vdFZ-18" value="" style="rounded=0;whiteSpace=wrap;html=1;labelBackgroundColor=none;strokeColor=#000000;" vertex="1" parent="1">
          <mxGeometry x="420" y="-402.4" width="120" height="372.4" as="geometry" />
        </mxCell>
        <mxCell id="_AYRFwqcf-ICDJ94vdFZ-19" value="&lt;b&gt;&lt;font style=&quot;font-size: 15px;&quot;&gt;MIDDLEWARE SYSTEM&lt;/font&gt;&lt;/b&gt;" style="text;html=1;strokeColor=none;fillColor=none;align=center;verticalAlign=middle;whiteSpace=wrap;rounded=0;labelBackgroundColor=none;rotation=-90;" vertex="1" parent="1">
          <mxGeometry x="381.25" y="-245" width="147.5" height="30" as="geometry" />
        </mxCell>
        <mxCell id="_AYRFwqcf-ICDJ94vdFZ-22" value="" style="endArrow=classic;html=1;rounded=0;fontSize=15;entryX=0.25;entryY=1;entryDx=0;entryDy=0;" edge="1" parent="1" target="_AYRFwqcf-ICDJ94vdFZ-2">
          <mxGeometry width="50" height="50" relative="1" as="geometry">
            <mxPoint x="540" y="-130" as="sourcePoint" />
            <mxPoint x="590" y="-180" as="targetPoint" />
          </mxGeometry>
        </mxCell>
        <mxCell id="_AYRFwqcf-ICDJ94vdFZ-23" value="" style="endArrow=classic;html=1;rounded=0;fontSize=15;exitX=-0.017;exitY=0.843;exitDx=0;exitDy=0;exitPerimeter=0;entryX=0.988;entryY=0.62;entryDx=0;entryDy=0;entryPerimeter=0;" edge="1" parent="1" target="_AYRFwqcf-ICDJ94vdFZ-1">
          <mxGeometry width="50" height="50" relative="1" as="geometry">
            <mxPoint x="418.96000000000004" y="-88.46680000000015" as="sourcePoint" />
            <mxPoint x="372.8368499999999" y="-203.5999999999999" as="targetPoint" />
          </mxGeometry>
        </mxCell>
        <mxCell id="_AYRFwqcf-ICDJ94vdFZ-25" value="&lt;font style=&quot;font-size: 12px;&quot;&gt;receive data&lt;/font&gt;" style="text;html=1;strokeColor=none;fillColor=none;align=center;verticalAlign=middle;whiteSpace=wrap;rounded=0;labelBackgroundColor=none;fontSize=15;rotation=60;" vertex="1" parent="1">
          <mxGeometry x="350" y="-130" width="90" height="30" as="geometry" />
        </mxCell>
        <mxCell id="_AYRFwqcf-ICDJ94vdFZ-26" value="&lt;span style=&quot;font-size: 12px;&quot;&gt;treate data in fcub&lt;/span&gt;" style="text;html=1;strokeColor=none;fillColor=none;align=center;verticalAlign=middle;whiteSpace=wrap;rounded=0;labelBackgroundColor=none;fontSize=15;rotation=-50;" vertex="1" parent="1">
          <mxGeometry x="563.45" y="-198.19" width="113.16" height="30" as="geometry" />
        </mxCell>
        <mxCell id="_AYRFwqcf-ICDJ94vdFZ-27" value="&lt;div style=&quot;text-align: left;&quot;&gt;&lt;span style=&quot;background-color: initial;&quot;&gt;&lt;b&gt;Generate all neccesary files&lt;/b&gt;&lt;/span&gt;&lt;/div&gt;&lt;br&gt;&lt;div style=&quot;text-align: left;&quot;&gt;&lt;span style=&quot;background-color: initial;&quot;&gt;1- inward files&lt;/span&gt;&lt;/div&gt;&lt;div style=&quot;text-align: left;&quot;&gt;&lt;span style=&quot;background-color: initial;&quot;&gt;2-outward files&lt;/span&gt;&lt;/div&gt;&lt;div style=&quot;text-align: left;&quot;&gt;&lt;span style=&quot;background-color: initial;&quot;&gt;3-tranfer files&lt;/span&gt;&lt;/div&gt;" style="text;html=1;strokeColor=none;fillColor=none;align=center;verticalAlign=middle;whiteSpace=wrap;rounded=0;labelBackgroundColor=none;fontSize=12;" vertex="1" parent="1">
          <mxGeometry x="432.5" y="-160" width="85" height="130" as="geometry" />
        </mxCell>
        <mxCell id="_AYRFwqcf-ICDJ94vdFZ-28" value="Background Job" style="text;html=1;strokeColor=none;fillColor=none;align=center;verticalAlign=middle;whiteSpace=wrap;rounded=0;labelBackgroundColor=none;fontSize=12;" vertex="1" parent="1">
          <mxGeometry x="410" y="-30" width="140" height="30" as="geometry" />
        </mxCell>
        <mxCell id="_AYRFwqcf-ICDJ94vdFZ-29" value="Manual process" style="text;html=1;strokeColor=none;fillColor=none;align=center;verticalAlign=middle;whiteSpace=wrap;rounded=0;labelBackgroundColor=none;fontSize=12;" vertex="1" parent="1">
          <mxGeometry x="420.56" y="-700" width="89.44" height="30" as="geometry" />
        </mxCell>
      </root>
    </mxGraphModel>
  </diagram>
</mxfile>
